<?xml version="1.0" standalone="no"?>
<!DOCTYPE svg PUBLIC "-//W3C//DTD SVG 1.1//EN" "http://www.w3.org/Graphics/SVG/1.1/DTD/svg11.dtd" >
<svg xmlns="http://www.w3.org/2000/svg" xmlns:xlink="http://www.w3.org/1999/xlink" version="1.1">
<metadata>
Created by FontForge 20160407 at Fri Sep 23 15:16:39 2016
 By Jimmy Warting
Copyright (c) 2013, 2014, Hubert and Fischer, Philipp Hubert (philipp@hubertfischer.com), Sebastian Fischer (sebastian@hubertfischer.com)
</metadata>
<defs>
<font id="RubikOne-Regular" horiz-adv-x="758" >
  <font-face 
    font-family="Rubik One"
    font-weight="400"
    font-stretch="normal"
    units-per-em="1000"
    panose-1="2 0 6 4 0 0 0 2 0 4"
    ascent="800"
    descent="-200"
    x-height="520"
    cap-height="700"
    bbox="-246 -306 1245 932"
    underline-thickness="50"
    underline-position="-100"
    unicode-range="U+0020-FB4A"
  />
<missing-glyph horiz-adv-x="290" 
 />
    <glyph glyph-name=".notdef" horiz-adv-x="290" 
 />
    <glyph glyph-name=".null" horiz-adv-x="0" 
 />
    <glyph glyph-name="nonmarkingreturn" horiz-adv-x="333" 
 />
    <glyph glyph-name="space" unicode=" " horiz-adv-x="290" 
 />
    <glyph glyph-name="exclam" unicode="!" horiz-adv-x="338" 
d="M82 228h174q11 0 19 -8t8 -19v-174q0 -11 -8 -19t-19 -8h-174q-11 0 -19 8t-8 19v174q0 11 8 19t19 8zM82 700h174q11 0 19 -8t8 -19v-378q0 -11 -8 -19t-19 -8h-174q-11 0 -19 8t-8 19v378q0 11 8 19t19 8z" />
    <glyph glyph-name="quotedbl" unicode="&#x22;" horiz-adv-x="609" 
d="M110 710h165q9 0 15.5 -6.5t6.5 -13t-1 -9.5l-95 -241q-12 -32 -46 -32h-108q-9 0 -15.5 6.5t-6.5 15.5v2l37 239q2 15 15.5 27t32.5 12zM402 710h165q9 0 15.5 -6.5t6.5 -13t-1 -9.5l-95 -241q-12 -32 -46 -32h-108q-9 0 -15.5 6.5t-6.5 15.5v2l37 239q2 15 15.5 27
t32.5 12z" />
    <glyph glyph-name="numbersign" unicode="#" horiz-adv-x="697" 
d="M318 402l-13 -82h71l13 82h-71zM622 567q10 0 17.5 -7.5t7.5 -17.5v-118q0 -10 -7.5 -17.5t-17.5 -7.5h-74l-11 -76h59q10 0 17.5 -7.5t7.5 -17.5v-128q0 -10 -7.5 -17.5t-17.5 -7.5h-85l-13 -85q-4 -21 -25 -21h-116q-9 0 -15.5 6.5t-6.5 15.5v2l13 82h-65l-13 -85
q-4 -21 -25 -21h-116q-9 0 -15.5 6.5t-6.5 15.5v2l13 82h-45q-11 0 -18 7.5t-7 17.5v128q0 10 7 17.5t18 7.5h71l11 76h-56q-11 0 -18 7.5t-7 17.5v118q0 10 7 17.5t18 7.5h81l11 67q4 21 24 21h116q9 0 15.5 -6.5t6.5 -15.5v-3l-10 -63h65l11 67q4 21 24 21h116
q9 0 15.5 -6.5t6.5 -15.5v-3l-10 -63h49z" />
    <glyph glyph-name="dollar" unicode="$" horiz-adv-x="770" 
d="M471 773v-72q100 -21 160.5 -80t60.5 -118q0 -9 -6.5 -15.5t-14.5 -6.5h-200q-23 0 -42 17t-51 17q-48 0 -48 -28q0 -15 23.5 -25t87.5 -18q149 -19 212.5 -69.5t63.5 -144.5t-67.5 -154.5t-178.5 -78.5v-70q0 -11 -8 -19t-19 -8h-121q-11 0 -19 8t-8 19v69
q-116 17 -178 74.5t-62 132.5q0 9 6.5 15.5t15.5 6.5h190q21 0 46.5 -20t70.5 -20q75 0 75 28q0 18 -27 27.5t-102 19.5q-258 34 -258 220q0 85 60.5 145t162.5 78v70q0 11 8 19t19 8h121q11 0 19 -8t8 -19z" />
    <glyph glyph-name="percent" unicode="%" horiz-adv-x="820" 
d="M593 222v-93q0 -30 25.5 -30t25.5 30v93q0 30 -25.5 30t-25.5 -30zM780 222v-94q0 -66 -43.5 -102t-118.5 -36t-118.5 36t-43.5 103v92q0 66 45 102.5t117 36.5t117 -36.5t45 -101.5zM177 572v-93q0 -30 25.5 -30t25.5 30v93q0 30 -25.5 30t-25.5 -30zM364 572v-94
q0 -66 -43.5 -102t-118.5 -36t-118.5 36t-43.5 103v92q0 66 45 102.5t117 36.5t117 -36.5t45 -101.5zM626 700h64q24 0 24 -20q0 -6 -4 -11l-484 -650q-14 -19 -36 -19h-64q-24 0 -24 20q0 6 4 11l484 650q14 19 36 19z" />
    <glyph glyph-name="ampersand" unicode="&#x26;" horiz-adv-x="824" 
d="M172.5 657.5q61.5 53.5 176 53.5t174.5 -53.5t60 -127.5q0 -55 -31.5 -97.5t-96.5 -80.5l75 -78q25 26 49 82q4 10 20 10h151q8 0 13 -5t5 -13q0 -29 -40.5 -91t-78.5 -102l119 -124q6 -6 6 -13.5t-5.5 -12.5t-12.5 -5h-204q-12 0 -25 10l-27 24q-74 -48 -194 -48
t-193 55.5t-73 159.5q0 117 130 190q-59 63 -59 138t61.5 128.5zM276.5 171q18.5 -16 49.5 -16t51 12l-88 91q-31 -15 -31 -43t18.5 -44zM380.5 548q-10.5 10 -26 10t-26.5 -10.5t-11 -30t27 -44.5q47 21 47 49q0 16 -10.5 26z" />
    <glyph glyph-name="quotesingle" unicode="'" horiz-adv-x="317" 
d="M110 710h165q9 0 15.5 -6.5t6.5 -13t-1 -9.5l-95 -241q-12 -32 -46 -32h-108q-9 0 -15.5 6.5t-6.5 15.5v2l37 239q2 15 15.5 27t32.5 12z" />
    <glyph glyph-name="parenleft" unicode="(" horiz-adv-x="407" 
d="M230 446v-275q0 -60 36 -101t92 -48q7 -1 13 -7t6 -15v-137q0 -9 -6.5 -15.5t-15.5 -6.5q-131 0 -218 87.5t-87 241.5v277q0 154 87 241.5t218 87.5q9 0 15.5 -6.5t6.5 -15.5v-137q0 -9 -6 -15t-13 -7q-56 -7 -92 -48t-36 -101z" />
    <glyph glyph-name="parenright" unicode=")" horiz-adv-x="407" 
d="M177 171v275q0 60 -36 101t-92 48q-7 1 -13 7t-6 15v137q0 9 6.5 15.5t15.5 6.5q131 0 218 -87.5t87 -241.5v-277q0 -154 -87 -241.5t-218 -87.5q-9 0 -15.5 6.5t-6.5 15.5v137q0 9 6 15t13 7q56 7 92 48t36 101z" />
    <glyph glyph-name="asterisk" unicode="*" horiz-adv-x="453" 
d="M60 447q0 11 7 16l65 59l-81 6q-21 2 -21 22q0 2 1 7l27 98q4 16 21 16q5 0 11 -3l76 -37l-20 84q-1 4 -1 9t6.5 12t15.5 7h120q9 0 15.5 -6.5t6.5 -12.5t-1 -10l-20 -83l76 37q6 3 11 3q17 0 21 -16l26 -98q1 -5 1 -7q0 -20 -20 -22l-81 -6l64 -58q8 -7 8 -17.5
t-8 -16.5l-88 -63q-6 -5 -17 -5t-17 13l-37 81l-37 -81q-6 -13 -17 -13t-17 5l-89 64q-7 5 -7 16z" />
    <glyph glyph-name="plus" unicode="+" horiz-adv-x="598" 
d="M212 99v161h-155q-11 0 -19 8t-8 19v109q0 11 8 19t19 8h155v156q0 11 8 19t19 8h122q11 0 19 -8t8 -19v-156h153q11 0 19 -8t8 -19v-109q0 -11 -8 -19t-19 -8h-153v-161q0 -11 -8 -19t-19 -8h-122q-11 0 -19 8t-8 19z" />
    <glyph glyph-name="comma" unicode="," horiz-adv-x="327" 
d="M125 228h165q9 0 15.5 -6.5t6.5 -13t-1 -9.5l-95 -241q-12 -32 -46 -32h-108q-9 0 -15.5 6.5t-6.5 15.5v2l37 239q2 15 15.5 27t32.5 12z" />
    <glyph glyph-name="hyphen" unicode="-" horiz-adv-x="487" 
d="M67 435h353q11 0 19 -8t8 -19v-142q0 -11 -8 -19t-19 -8h-353q-11 0 -19 8t-8 19v142q0 11 8 19t19 8z" />
    <glyph glyph-name="period" unicode="." horiz-adv-x="348" 
d="M87 228h174q11 0 19 -8t8 -19v-174q0 -11 -8 -19t-19 -8h-174q-11 0 -19 8t-8 19v174q0 11 8 19t19 8z" />
    <glyph glyph-name="slash" unicode="/" horiz-adv-x="597" 
d="M411 786h134q9 0 15.5 -6.5t6.5 -13t-2 -11.5l-338 -809q-12 -30 -44 -30h-131q-9 0 -15.5 6.5t-6.5 13t2 11.5l335 809q13 30 44 30z" />
    <glyph glyph-name="zero" unicode="0" horiz-adv-x="730" 
d="M310 452v-201q0 -29 14 -47t41 -18t41 18t14 47v201q0 65 -55 65t-55 -65zM680 442v-183q0 -129 -84.5 -199t-230.5 -70t-230.5 70.5t-84.5 200.5v179q0 129 87.5 199.5t227.5 70.5t227.5 -70.5t87.5 -197.5z" />
    <glyph glyph-name="one" unicode="1" horiz-adv-x="562" 
d="M502 673v-646q0 -11 -8 -19t-19 -8h-196q-11 0 -19 8t-8 19v404l-112 -86q-8 -6 -17.5 -6t-20.5 14l-88 114q-4 7 -4 13q0 18 13 26l241 187q10 7 22 7h189q11 0 19 -8t8 -19z" />
    <glyph glyph-name="two" unicode="2" horiz-adv-x="742" 
d="M665 206q11 0 19 -8t8 -19v-152q0 -11 -8 -19t-19 -8h-588q-11 0 -19 8t-8 19v104q0 36 25 54q212 153 257 192q71 62 71 100q0 31 -16 37q-8 3 -17.5 3t-16 -1.5t-11.5 -4t-9 -6.5t-6.5 -7t-5.5 -9t-4 -9q-5 -12 -5 -14q-8 -23 -40 -23h-188q-9 0 -15.5 6.5t-6.5 15.5
q0 111 86.5 180t221 69t215 -59.5t80.5 -164.5q0 -79 -55 -143t-168 -141h223z" />
    <glyph glyph-name="three" unicode="3" horiz-adv-x="757" 
d="M702 219q0 -103 -92 -166t-235 -63q-85 0 -151.5 21t-102.5 54q-71 65 -71 133q0 9 6.5 15.5t15.5 6.5h201q18 0 36 -18t64 -18q69 0 69 53q0 44 -70 44h-121q-11 0 -19 8t-8 19v81q0 28 20 40l139 76h-263q-11 0 -19 8t-8 19v141q0 11 8 19t19 8h512q11 0 19 -8t8 -19
v-127q0 -26 -20 -40l-117 -80q180 -45 180 -207z" />
    <glyph glyph-name="four" unicode="4" horiz-adv-x="786" 
d="M616 315h87q12 0 20 -8t8 -19v-149q0 -11 -8 -19t-19 -8h-88v-85q0 -11 -8 -19t-19 -8h-186q-11 0 -19 8t-8 19v85h-299q-11 0 -19 8t-8 19v143q0 17 11 31l283 370q14 17 37 17h208q11 0 19 -8t8 -19v-358zM383 304v144l-105 -144h105z" />
    <glyph glyph-name="five" unicode="5" horiz-adv-x="751" 
d="M342 190.5q12 -7.5 36.5 -7.5t42 16.5t17.5 43.5t-16.5 45t-42.5 18t-43.5 -12t-22.5 -12h-199q-9 0 -15.5 6.5t-6.5 15.5v5l40 357q4 34 39 34h447q11 0 19 -8t8 -19v-141q0 -11 -8 -19t-19 -8h-292l-8 -71q50 34 139.5 34t164 -66.5t74.5 -168t-84 -173.5t-236 -72
t-236.5 64.5t-84.5 159.5q0 9 6.5 15.5t15.5 6.5h202q23 0 37 -18t26 -25.5z" />
    <glyph glyph-name="six" unicode="6" horiz-adv-x="751" 
d="M701 254q0 -114 -90.5 -189t-233 -75t-235 69t-92.5 190q0 92 97 218l163 213q14 20 39 20h201q9 0 15.5 -6.5t6.5 -14.5t-4 -14l-126 -167q81 -4 166 -64q40 -28 66.5 -75.5t26.5 -104.5zM426.5 202.5q19.5 17.5 19.5 48t-19.5 47.5t-49.5 17t-49.5 -17t-19.5 -47.5
t19.5 -48t49.5 -17.5t49.5 17.5z" />
    <glyph glyph-name="seven" unicode="7" horiz-adv-x="651" 
d="M67 700h517q12 0 19.5 -8t7.5 -19v-132q0 -23 -13 -51l-218 -467q-13 -23 -41 -23h-193q-9 0 -15.5 6.5t-6.5 13.5t2 11l216 464h-275q-11 0 -19 8t-8 19v151q0 11 8 19t19 8z" />
    <glyph glyph-name="eight" unicode="8" horiz-adv-x="750" 
d="M151 650q71 60 222.5 60t221.5 -59.5t70 -147t-59 -133.5q41 -20 65 -62t24 -89t-18 -86t-54.5 -72t-100.5 -52t-148 -19q-163 0 -241 66t-78 162q0 48 24 89t63 63q-62 45 -62 132.5t71 147.5zM444 217q0 27 -19.5 43t-50.5 16t-50.5 -16t-19.5 -43t19.5 -43t50.5 -16
t50.5 16t19.5 43zM438 487q0 23 -17.5 38.5t-46.5 15.5t-46 -15.5t-17 -38.5t17 -38.5t46 -15.5t46.5 15.5t17.5 38.5z" />
    <glyph glyph-name="nine" unicode="9" horiz-adv-x="751" 
d="M50 449q0 108 86 184.5t237.5 76.5t239.5 -69t88 -182q0 -35 -15 -73.5t-27 -58.5t-49.5 -69.5t-45.5 -61.5l-132 -176q-14 -20 -39 -20h-201q-9 0 -15.5 6.5t-6.5 14.5t4 14l131 175q-115 11 -193 88q-27 26 -44.5 65.5t-17.5 85.5zM324.5 497.5q-19.5 -17.5 -19.5 -48
t19.5 -47.5t49.5 -17t49.5 17t19.5 47.5t-19.5 48t-49.5 17.5t-49.5 -17.5z" />
    <glyph glyph-name="colon" unicode=":" horiz-adv-x="308" 
d="M67 218h174q11 0 19 -8t8 -19v-164q0 -11 -8 -19t-19 -8h-174q-11 0 -19 8t-8 19v164q0 11 8 19t19 8zM67 568h174q11 0 19 -8t8 -19v-164q0 -11 -8 -19t-19 -8h-174q-11 0 -19 8t-8 19v164q0 11 8 19t19 8z" />
    <glyph glyph-name="semicolon" unicode=";" horiz-adv-x="360" 
d="M109 568h174q11 0 19 -8t8 -19v-164q0 -11 -8 -19t-19 -8h-174q-11 0 -19 8t-8 19v164q0 11 8 19t19 8zM125 228h155q9 0 15.5 -6.5t6.5 -13t-1 -9.5l-95 -241q-12 -32 -46 -32h-98q-9 0 -15.5 6.5t-6.5 15.5v2l37 239q2 15 15.5 27t32.5 12z" />
    <glyph glyph-name="less" unicode="&#x3c;" horiz-adv-x="531" 
d="M20 329v42q0 23 29 42l400 270q5 3 12.5 3t13.5 -6t6 -15v-162q0 -25 -32 -44l-175 -109l175 -110q10 -6 14.5 -9t11 -12.5t6.5 -21.5v-162q0 -9 -6 -15t-13.5 -6t-12.5 3l-400 270q-29 19 -29 42z" />
    <glyph glyph-name="equal" unicode="=" horiz-adv-x="559" 
d="M77 553h405q11 0 19 -8t8 -19v-116q0 -11 -8 -19t-19 -8h-405q-11 0 -19 8t-8 19v116q0 11 8 19t19 8zM77 303h405q11 0 19 -8t8 -19v-116q0 -11 -8 -19t-19 -8h-405q-11 0 -19 8t-8 19v116q0 11 8 19t19 8z" />
    <glyph glyph-name="greater" unicode="&#x3e;" horiz-adv-x="531" 
d="M511 371v-42q0 -23 -29 -42l-400 -270q-5 -3 -12.5 -3t-13.5 6t-6 15v162q0 12 6.5 21.5t11 12.5t14.5 9l175 110l-175 109q-32 19 -32 44v162q0 9 6 15t13.5 6t12.5 -3l400 -270q29 -19 29 -42z" />
    <glyph glyph-name="question" unicode="?" horiz-adv-x="664" 
d="M353 710q66 0 117.5 -13.5t81.5 -33.5t50 -47q32 -44 32 -88.5t-18 -82t-39.5 -61t-51.5 -54t-41 -46.5t-14 -20q-10 -11 -24 -11h-214q-7 0 -13 5.5t-6 11.5q0 26 32 66t57 62q67 57 67 85q0 15 -9.5 23.5t-29 8.5t-33 -9.5t-17.5 -21.5q-9 -31 -39 -31h-186
q-11 0 -18 9t-7 21v1q0 86 84.5 156t238.5 70zM242 213h183q11 0 19 -8t8 -19v-159q0 -11 -8 -19t-19 -8h-183q-11 0 -19 8t-8 19v159q0 11 8 19t19 8z" />
    <glyph glyph-name="at" unicode="@" horiz-adv-x="880" 
d="M225 339q0 100 45.5 152.5t134.5 52.5q65 0 87 -39v4q0 11 8 19t19 8h82q11 0 19 -8t8 -19v-212q0 -18 2 -28.5t12 -20t28 -9.5q45 0 45 58v119q0 63 -10 102.5t-37.5 68t-76 40t-125.5 11.5q-156 0 -228.5 -51.5t-72.5 -169.5v-139q0 -130 71.5 -184t229.5 -54
q69 0 114 8.5t59.5 16t32 21.5t26.5 14h110q9 0 15 -6t6 -14t-5 -15q-105 -134 -356 -134q-216 0 -317 87.5t-101 256.5v142q0 165 100 247.5t316 82.5q169 0 255 -53q79 -49 99 -160q10 -51 10 -120v-116q0 -74 -45 -113.5t-123 -39.5q-106 0 -143 39q-19 -24 -43 -36.5
t-71 -12.5q-89 0 -134.5 52t-45.5 152zM425 427q-57 0 -57 -85.5t57 -85.5q52 0 52 85.5t-52 85.5z" />
    <glyph glyph-name="A" unicode="A" horiz-adv-x="785" 
d="M284 700h217q36 0 45 -33l223 -638q1 -3 1 -9.5t-6.5 -13t-15.5 -6.5h-185q-30 0 -39 25l-24 66h-215l-24 -66q-9 -25 -39 -25h-185q-9 0 -15.5 6.5t-6.5 13t1 9.5l223 638q9 33 45 33zM336 286h113l-57 186z" />
    <glyph glyph-name="B" unicode="B" horiz-adv-x="756" 
d="M440 481q0 18 -10.5 32.5t-30.5 14.5h-84v-91h84q20 0 30.5 13t10.5 31zM315 270v-98h93q23 0 34.5 15.5t11.5 34.5v1q0 19 -12.5 33t-33.5 14h-93zM434 0h-342q-11 0 -19 8t-8 19v646q0 11 8 19t19 8h332q142 0 209.5 -51.5t67.5 -155.5v-3q0 -43 -25 -76.5t-55 -48.5
q40 -16 67.5 -56.5t27.5 -88.5q0 -220 -282 -220z" />
    <glyph glyph-name="C" unicode="C" horiz-adv-x="747" 
d="M305 434v-168q0 -81 74 -81q57 0 75 54q5 17 12.5 23t24.5 6h204q9 0 15.5 -6.5t6.5 -15.5q0 -87 -50 -146q-92 -110 -287 -110q-153 0 -244 67.5t-91 207.5v170q0 137 93 206t242 69q195 0 287 -110q50 -59 50 -146q0 -9 -6.5 -15.5t-15.5 -6.5h-204q-16 0 -23.5 6
t-13.5 23q-19 54 -75 54q-74 0 -74 -81z" />
    <glyph glyph-name="D" unicode="D" horiz-adv-x="760" 
d="M92 700h288q146 0 240.5 -72.5t94.5 -202.5v-149q0 -136 -92 -206t-242 -70h-289q-11 0 -19 8t-8 19v646q0 11 8 19t19 8zM315 505v-310h65q34 0 54.5 20.5t20.5 60.5v149q0 80 -75 80h-65z" />
    <glyph glyph-name="E" unicode="E" horiz-adv-x="695" 
d="M305 195h308q11 0 19 -8t8 -19v-141q0 -11 -8 -19t-19 -8h-521q-11 0 -19 8t-8 19v646q0 11 8 19t19 8h513q11 0 19 -8t8 -19v-141q0 -11 -8 -19t-19 -8h-300v-63h278q11 0 19 -8t8 -19v-130q0 -11 -8 -19t-19 -8h-278v-63z" />
    <glyph glyph-name="F" unicode="F" horiz-adv-x="663" 
d="M92 700h504q11 0 19 -8t8 -19v-152q0 -11 -8 -19t-19 -8h-286v-74h266q11 0 19 -8t8 -19v-151q0 -11 -8 -19t-19 -8h-266v-188q0 -11 -8 -19t-19 -8h-191q-11 0 -19 8t-8 19v646q0 11 8 19t19 8z" />
    <glyph glyph-name="G" unicode="G" horiz-adv-x="771" 
d="M424 422h275q11 0 19 -8t8 -19v-130q0 -132 -94 -203.5t-250.5 -71.5t-246.5 69.5t-90 208.5v168q0 133 92 203.5t245.5 70.5t248.5 -64.5t95 -158.5q0 -9 -6.5 -15.5t-15.5 -6.5h-221q-20 0 -29 11q-20 26 -30 30q-23 9 -42 9q-77 0 -77 -75v-170q0 -85 82 -85
q84 0 84 72h-47q-11 0 -19 8t-8 19v111q0 11 8 19t19 8z" />
    <glyph glyph-name="H" unicode="H" horiz-adv-x="792" 
d="M504 700h196q11 0 19 -8t8 -19v-646q0 -11 -8 -19t-19 -8h-196q-11 0 -19 8t-8 19v216h-162v-216q0 -11 -8 -19t-19 -8h-196q-11 0 -19 7.5t-8 19.5v646q0 11 8 19t19 8h196q11 0 19 -8t8 -19v-210h162v210q0 11 8 19t19 8z" />
    <glyph glyph-name="I" unicode="I" horiz-adv-x="388" 
d="M296 0h-204q-11 0 -19 8t-8 19v646q0 11 8 19t19 8h204q11 0 19 -8t8 -19v-646q0 -11 -8 -19t-19 -8z" />
    <glyph glyph-name="J" unicode="J" horiz-adv-x="743" 
d="M683 673v-410q0 -136 -90.5 -204.5t-228.5 -68.5t-231 66t-93 179q0 9 6.5 15.5t15.5 6.5h204q16 0 24.5 -7.5t17.5 -27t21.5 -28.5t35.5 -9q59 0 59 81v231h-297q-11 0 -19 8t-8 19v149q0 11 8 19t19 8h529q11 0 19 -8t8 -19z" />
    <glyph glyph-name="K" unicode="K" horiz-adv-x="733" 
d="M720 33q3 -5 3 -12.5t-6.5 -14t-15.5 -6.5h-228q-29 0 -41 23l-122 218v-214q0 -11 -8 -19t-19 -8h-191q-11 0 -19 8t-8 19v646q0 11 8 19t19 8h191q11 0 19 -8t8 -19v-198l113 203q11 22 40 22h221q9 0 15.5 -6.5t6.5 -14t-3 -12.5l-180 -302z" />
    <glyph glyph-name="L" unicode="L" horiz-adv-x="648" 
d="M319 205h277q11 0 19 -8t8 -19v-151q0 -11 -8 -19t-19 -8h-504q-11 0 -19 8t-8 19v646q0 11 8 19t19 8h200q11 0 19 -8t8 -19v-468z" />
    <glyph glyph-name="M" unicode="M" horiz-adv-x="876" 
d="M626 700h158q11 0 19 -8t8 -19v-646q0 -11 -8 -19t-19 -8h-181q-11 0 -19 8t-8 19v274l-66 -108q-16 -25 -37 -25h-70q-21 0 -37 25l-66 108v-274q0 -11 -8 -19t-19 -8h-181q-11 0 -19 8t-8 19v646q0 11 8 19t19 8h158q28 0 43 -27l145 -240l145 240q15 27 43 27z" />
    <glyph glyph-name="N" unicode="N" horiz-adv-x="760" 
d="M487 700h181q11 0 19 -8t8 -19v-646q0 -11 -8 -19t-19 -8h-158q-26 0 -41 23l-169 255v-251q0 -11 -8 -19t-19 -8h-181q-11 0 -19 8t-8 19v646q0 11 8 19t19 8h158q28 0 41 -23l169 -277v273q0 11 8 19t19 8z" />
    <glyph glyph-name="O" unicode="O" 
d="M379 710q151 0 242.5 -74.5t91.5 -209.5v-156q0 -137 -90.5 -208.5t-243.5 -71.5t-243.5 71.5t-90.5 208.5v156q0 136 91.5 210t242.5 74zM379 185q34 0 54 20t20 61v168q0 40 -20 60.5t-54 20.5t-54 -20.5t-20 -60.5v-168q0 -41 20 -61t54 -20z" />
    <glyph glyph-name="P" unicode="P" horiz-adv-x="726" 
d="M92 700h298q144 0 225 -62t81 -183t-80.5 -179t-225.5 -58h-65v-191q0 -11 -8 -19t-19 -8h-206q-11 0 -19 8t-8 19v646q0 11 8 19t19 8zM320 514v-111h70q18 0 32 13.5t14 38.5t-11 42t-35 17h-70z" />
    <glyph glyph-name="Q" unicode="Q" horiz-adv-x="769" 
d="M379 710q151 0 242.5 -74.5t91.5 -209.5v-156q0 -118 -71 -191l78 -113q3 -6 3 -12.5t-5.5 -12.5t-14.5 -6h-196q-25 0 -42 23l-28 35q-29 -3 -58 -3q-153 0 -243.5 71.5t-90.5 208.5v156q0 136 91.5 210t242.5 74zM379 185q34 0 54 20t20 61v168q0 40 -20 60.5t-54 20.5
t-54 -20.5t-20 -60.5v-168q0 -41 20 -61t54 -20z" />
    <glyph glyph-name="R" unicode="R" horiz-adv-x="742" 
d="M709 33q3 -6 3 -13t-6.5 -13.5t-15.5 -6.5h-205q-31 0 -43 27l-86 191h-41v-191q0 -11 -8 -19t-19 -8h-196q-11 0 -19 8t-8 19v646q0 11 8 19t19 8h296q144 0 225 -64.5t81 -185t-108 -189.5zM315 514v-106h73q22 0 34 14.5t12 36.5t-11.5 38.5t-34.5 16.5h-73z" />
    <glyph glyph-name="S" unicode="S" horiz-adv-x="721" 
d="M131.5 646q84.5 64 222 64t225 -67t87.5 -140q0 -9 -6.5 -15.5t-14.5 -6.5h-200q-23 0 -42 17t-51 17q-48 0 -48 -28q0 -15 23.5 -25t87.5 -18q149 -19 212.5 -69.5t63.5 -153t-93.5 -167t-244.5 -64.5t-237 62t-86 151q0 9 6.5 15.5t15.5 6.5h190q21 0 46.5 -20
t70.5 -20q75 0 75 28q0 18 -27 27.5t-102 19.5q-258 34 -258 220q0 102 84.5 166z" />
    <glyph glyph-name="T" unicode="T" horiz-adv-x="700" 
d="M57 700h586q11 0 19 -8t8 -19v-161q0 -11 -8 -19t-19 -8h-166v-458q0 -11 -8 -19t-19 -8h-200q-11 0 -19 8t-8 19v458h-166q-11 0 -19 8t-8 19v161q0 11 8 19t19 8z" />
    <glyph glyph-name="U" unicode="U" 
d="M480 700h196q11 0 19 -8t8 -19v-402q0 -140 -87 -210.5t-236.5 -70.5t-237 70t-87.5 211v402q0 11 8 19t19 8h196q11 0 19 -8t8 -19v-405q0 -77 74 -77t74 77v405q0 11 8 19t19 8z" />
    <glyph glyph-name="V" unicode="V" horiz-adv-x="726" 
d="M503 700h186q9 0 15.5 -6.5t6.5 -12.5t-1 -10l-188 -638q-9 -33 -45 -33h-228q-36 0 -45 33l-188 638q-1 4 -1 10t6.5 12.5t15.5 6.5h186q36 0 45 -33l95 -372l95 372q9 33 45 33z" />
    <glyph glyph-name="W" unicode="W" horiz-adv-x="878" 
d="M316 0h-143q-19 0 -31.5 11.5t-14.5 26.5l-92 637v3q0 9 6.5 15.5t15.5 6.5h186q33 0 36 -27l34 -282l41 125q10 29 34 29h102q24 0 34 -29l41 -124l34 281q3 27 36 27h186q9 0 15.5 -6.5t6.5 -15.5v-3l-92 -637q-2 -15 -14.5 -26.5t-31.5 -11.5h-143q-31 0 -41 27
l-82 205l-82 -205q-10 -27 -41 -27z" />
    <glyph glyph-name="X" unicode="X" horiz-adv-x="759" 
d="M746 33q3 -5 3 -12.5t-6.5 -14t-15.5 -6.5h-225q-27 0 -41 23l-87 134l-83 -134q-14 -23 -41 -23h-218q-9 0 -15.5 6.5t-6.5 14t3 12.5l210 325l-189 309q-3 6 -3 13t6.5 13.5t15.5 6.5h217q28 0 42 -25l70 -122l76 122q14 25 42 25h207q9 0 15.5 -6.5t6.5 -14t-3 -12.5
l-193 -306z" />
    <glyph glyph-name="Y" unicode="Y" horiz-adv-x="724" 
d="M460 0h-196q-11 0 -19 8t-8 19v197l-225 445q-2 4 -2 11t6.5 13.5t15.5 6.5h188q30 0 42 -25l100 -201l100 201q12 25 42 25h188q9 0 15.5 -6.5t6.5 -13.5t-2 -11l-225 -445v-197q0 -11 -8 -19t-19 -8z" />
    <glyph glyph-name="Z" unicode="Z" horiz-adv-x="715" 
d="M643 205q11 0 19 -8t8 -19v-151q0 -11 -8 -19t-19 -8h-571q-11 0 -19 8t-8 19v144q0 20 15 35l280 291h-263q-11 0 -19 8t-8 19v149q0 11 8 19t19 8h553q11 0 19 -8t8 -19v-142q0 -20 -13 -33l-265 -293h264z" />
    <glyph glyph-name="bracketleft" unicode="[" horiz-adv-x="491" 
d="M87 776h347q11 0 19 -8t8 -19v-109q0 -11 -8 -19t-19 -8h-193v-609h193q11 0 19 -8t8 -19v-109q0 -11 -8 -19t-19 -8h-347q-11 0 -19 8t-8 19v881q0 11 8 19t19 8z" />
    <glyph glyph-name="backslash" unicode="\" horiz-adv-x="597" 
d="M565 -53q2 -5 2 -11.5t-6.5 -13t-15.5 -6.5h-131q-32 0 -44 30l-338 809q-2 5 -2 11.5t6.5 13t15.5 6.5h134q31 0 44 -30z" />
    <glyph glyph-name="bracketright" unicode="]" horiz-adv-x="491" 
d="M57 776h347q11 0 19 -8t8 -19v-881q0 -11 -8 -19t-19 -8h-347q-11 0 -19 8t-8 19v109q0 11 8 19t19 8h193v609h-193q-11 0 -19 8t-8 19v109q0 11 8 19t19 8z" />
    <glyph glyph-name="asciicircum" unicode="^" horiz-adv-x="538" 
d="M204 736h130q12 0 18 -3t19 -16l112 -119q5 -5 5 -13q0 -16 -16 -16h-71q-26 0 -40 7l-92 42l-92 -42q-14 -7 -40 -7h-71q-16 0 -16 16q0 8 5 13l112 119q13 13 19 16t18 3z" />
    <glyph glyph-name="underscore" unicode="_" horiz-adv-x="839" 
d="M67 102h705q11 0 19 -8t8 -19v-146q0 -11 -8 -19t-19 -8h-705q-11 0 -19 8t-8 19v146q0 11 8 19t19 8z" />
    <glyph glyph-name="grave" unicode="`" horiz-adv-x="450" 
d="M400 585q0 -16 -16 -16h-130q-30 0 -41 10l-158 125q-5 5 -5 12q0 20 19 20h187q20 0 37 -19l102 -119q5 -5 5 -13z" />
    <glyph glyph-name="a" unicode="a" horiz-adv-x="645" 
d="M35 149q0 135 219 173l106 17q0 30 -5 40.5t-23.5 10.5t-36.5 -16t-34 -16h-170q-22 0 -22 21.5t15.5 46t45 48.5t83 40t119.5 16q134 0 201 -56t67 -160v-287q0 -11 -8 -19t-19 -8h-175q-11 0 -19 8t-8 19v28q-47 -65 -137 -65t-144.5 45.5t-54.5 113.5zM298 138
q65 0 65 78l-59 -13q-44 -10 -44 -37q0 -12 10 -20t28 -8z" />
    <glyph glyph-name="b" unicode="b" horiz-adv-x="669" 
d="M634 300v-79q0 -118 -59 -174.5t-154 -56.5t-147 67v-30q0 -11 -8 -19t-19 -8h-170q-11 0 -19 8t-8 19v656q0 11 8 19t19 8h185q11 0 19 -8t8 -19v-200q52 47 138.5 47t146.5 -59t60 -171zM289 227q0 -58 50 -58t50 58v66q0 58 -50 58q-47 0 -50 -50v-74z" />
    <glyph glyph-name="c" unicode="c" horiz-adv-x="638" 
d="M280 295v-70q0 -34 9 -49t28 -15t26 6.5t14.5 25t28.5 18.5h195q11 0 19 -8t8 -21t-9 -35t-31 -50t-54 -51.5t-84 -39.5t-115 -16q-125 0 -202.5 65.5t-77.5 181.5v46q0 116 77.5 181.5t202.5 65.5q74 0 134 -22.5t92.5 -55t49.5 -63.5t17 -47.5t-8 -24.5t-19 -8h-195
q-19 0 -29 20q-14 30 -37 30q-40 0 -40 -64z" />
    <glyph glyph-name="d" unicode="d" horiz-adv-x="669" 
d="M35 221v79q0 112 60 171t146.5 59t138.5 -47v200q0 11 8 19t19 8h185q11 0 19 -8t8 -19v-656q0 -11 -8 -19t-19 -8h-170q-11 0 -19 8t-8 19v30q-52 -67 -147 -67t-154 56.5t-59 174.5zM380 227v74q-3 50 -50 50q-50 0 -50 -58v-66q0 -58 50 -58t50 58z" />
    <glyph glyph-name="e" unicode="e" horiz-adv-x="640" 
d="M578 201h-298v-5q0 -61 39 -61q11 0 27 16t35 16h189q22 0 22 -22q0 -49 -73.5 -102t-199 -53t-205 65.5t-79.5 180.5v48q0 109 81 177.5t212.5 68.5t204 -77t72.5 -195v-30q0 -11 -8 -19t-19 -8zM320 390q-40 0 -40 -60v-4h80v4q0 60 -40 60z" />
    <glyph glyph-name="f" unicode="f" horiz-adv-x="511" 
d="M340 532v-12h113q11 0 19 -8t8 -19v-121q0 -11 -8 -19t-19 -8h-113v-318q0 -11 -8 -19t-19 -8h-175q-11 0 -19 8t-8 19v318h-69q-11 0 -19 8t-8 19v121q0 11 8 19t19 8h69v17q0 114 69 158.5t191 44.5h93q11 0 19 -8t8 -19v-121q0 -11 -8 -19t-19 -8h-81q-43 0 -43 -33z
" />
    <glyph glyph-name="g" unicode="g" horiz-adv-x="675" 
d="M35 249v51q0 112 60 171t153 59t147 -68v31q0 11 8 19t19 8h175q11 0 19 -8t8 -19l1 -476q0 -120 -78 -178.5t-205 -58.5q-79 0 -141 21.5t-93 52.5q-63 62 -63 105q0 11 8 19t19 8h195q18 0 29.5 -22.5t40.5 -22.5q43 0 43 54v71q-49 -43 -138.5 -43t-148 54t-58.5 172z
M330 197q47 0 50 50v54q-3 50 -50 50q-50 0 -50 -58v-38q0 -58 50 -58z" />
    <glyph glyph-name="h" unicode="h" horiz-adv-x="695" 
d="M299 296v-269q0 -11 -8 -19t-19 -8h-195q-11 0 -19 8t-8 19v656q0 11 8 19t19 8h195q11 0 19 -8t8 -19v-215q57 62 146 62t147 -58t58 -169v-275q0 -11 -8 -19t-19 -8h-196q-11 0 -19 8t-8 19v268q0 55 -50.5 55t-50.5 -55z" />
    <glyph glyph-name="i" unicode="i" horiz-adv-x="333" 
d="M256 0h-179q-11 0 -19 8t-8 19v466q0 11 8 19t19 8h179q11 0 19 -8t8 -19v-466q0 -11 -8 -19t-19 -8zM278 713v-121q0 -11 -8 -19t-19 -8h-169q-11 0 -19 8t-8 19v121q0 11 8 19t19 8h169q11 0 19 -8t8 -19z" />
    <glyph glyph-name="j" unicode="j" horiz-adv-x="360" 
d="M55 -190h-88q-11 0 -19 8t-8 19v121q0 11 8 19t19 8h58q43 0 43 50v458q0 11 8 19t19 8h188q11 0 19 -8t8 -19v-454q0 -115 -70 -172t-185 -57zM305 713v-121q0 -11 -8 -19t-19 -8h-178q-11 0 -19 8t-8 19v121q0 11 8 19t19 8h178q11 0 19 -8t8 -19z" />
    <glyph glyph-name="k" unicode="k" horiz-adv-x="656" 
d="M279 683v-324l88 144q10 17 29 17h202q10 0 17 -7t7 -16t-5 -16l-137 -195l162 -249q4 -6 4 -14.5t-7 -15.5t-17 -7h-210q-20 0 -31 17l-102 170v-160q0 -11 -8 -19t-19 -8h-175q-11 0 -19 8t-8 19v656q0 11 8 19t19 8h175q11 0 19 -8t8 -19z" />
    <glyph glyph-name="l" unicode="l" horiz-adv-x="333" 
d="M256 0h-179q-11 0 -19 8t-8 19v656q0 11 8 19t19 8h179q11 0 19 -8t8 -19v-656q0 -11 -8 -19t-19 -8z" />
    <glyph glyph-name="m" unicode="m" horiz-adv-x="948" 
d="M633 351q-16 0 -27.5 -12t-11.5 -36v-276q0 -11 -8 -19t-19 -8h-176q-11 0 -19 8t-8 19v269q0 55 -40 55q-17 0 -28.5 -12.5t-11.5 -34.5v-277q0 -11 -8 -19t-19 -8h-180q-11 0 -19 8t-8 19v466q0 11 8 19t19 8h165q11 0 19 -8t8 -19v-33q20 26 57 47q41 23 92 23
q110 0 148 -82q24 35 66 58.5t87 23.5q81 0 132.5 -57t51.5 -170v-276q0 -11 -8 -19t-19 -8h-176q-11 0 -19 8t-8 19v269q0 55 -40 55z" />
    <glyph glyph-name="n" unicode="n" horiz-adv-x="684" 
d="M639 303v-276q0 -11 -8 -19t-19 -8h-191q-11 0 -19 8t-8 19v269q0 55 -50 55t-50 -55v-269q0 -11 -8 -19t-19 -8h-190q-11 0 -19 8t-8 19v466q0 11 8 19t19 8h175q11 0 19 -8t8 -19v-33q26 31 70.5 50.5t95.5 19.5q82 0 138 -57.5t56 -169.5z" />
    <glyph glyph-name="o" unicode="o" horiz-adv-x="650" 
d="M35 226v68q0 114 81 175t209 61t209 -61t81 -175v-68q0 -115 -78 -175.5t-212 -60.5t-212 60.5t-78 175.5zM370 218v84q0 38 -10 53t-35 15t-35 -15t-10 -53v-84q0 -40 10 -54t35 -14t35 15t10 53z" />
    <glyph glyph-name="p" unicode="p" horiz-adv-x="669" 
d="M634 299v-79q0 -112 -60 -171t-146.5 -59t-138.5 47v-200q0 -11 -8 -19t-19 -8h-185q-11 0 -19 8t-8 19v656q0 11 8 19t19 8h170q11 0 19 -8t8 -19v-30q52 67 147 67t154 -56.5t59 -174.5zM289 293v-74q3 -50 50 -50q50 0 50 58v66q0 58 -50 58t-50 -58z" />
    <glyph glyph-name="q" unicode="q" horiz-adv-x="669" 
d="M35 220v79q0 118 59 174.5t154 56.5t147 -67v30q0 11 8 19t19 8h170q11 0 19 -8t8 -19v-656q0 -11 -8 -19t-19 -8h-185q-11 0 -19 8t-8 19v200q-52 -47 -138.5 -47t-146.5 59t-60 171zM380 293q0 58 -50 58t-50 -58v-66q0 -58 50 -58q47 0 50 50v74z" />
    <glyph glyph-name="r" unicode="r" horiz-adv-x="530" 
d="M269 493v-35q70 62 156 62h48q11 0 19 -8t8 -19v-156q0 -11 -8 -19t-19 -8h-129q-27 0 -42.5 -12.5t-17.5 -33.5v-237q0 -11 -8 -19t-19 -8h-190q-11 0 -19 8t-8 19v466q0 11 8 19t19 8h175q11 0 19 -8t8 -19z" />
    <glyph glyph-name="s" unicode="s" horiz-adv-x="604" 
d="M327 144q0 10 -5 16q-13 16 -96 31.5t-134.5 55t-51.5 110.5t68 122t183.5 51t189.5 -48t74 -97q0 -11 -6.5 -19t-15.5 -8h-168q-15 0 -37 16t-33 16q-23 0 -23 -16q0 -10 5 -16q13 -15 109 -29t143.5 -61.5t47.5 -105.5q0 -81 -73 -127t-207 -46q-71 0 -126 16t-84 40
q-57 47 -57 88q0 11 7 19t17 8h174q14 0 36.5 -15.5t42.5 -15.5t20 15z" />
    <glyph glyph-name="t" unicode="t" horiz-adv-x="531" 
d="M350 345v-110q0 -50 43 -50h91q11 0 19 -8t8 -19v-131q0 -11 -8 -19t-19 -8h-113q-250 0 -250 215v130h-79q-11 0 -19 8t-8 19v121q0 11 8 19t19 8h79v163q0 11 8 19t19 8h175q11 0 19 -8t8 -19v-163h126q11 0 19 -8t8 -19v-121q0 -11 -8 -19t-19 -8h-126z" />
    <glyph glyph-name="u" unicode="u" horiz-adv-x="684" 
d="M45 217v276q0 11 8 19t19 8h191q11 0 19 -8t8 -19v-269q0 -55 50 -55t50 55v269q0 11 8 19t19 8h190q11 0 19 -8t8 -19v-466q0 -11 -8 -19t-19 -8h-175q-11 0 -19 8t-8 19v33q-47 -70 -166 -70q-82 0 -138 57.5t-56 169.5z" />
    <glyph glyph-name="v" unicode="v" horiz-adv-x="642" 
d="M401 0h-160q-21 0 -33 25l-192 463q-1 3 -1 10t7 14t17 7h169q24 0 33 -24l80 -232l80 233q9 24 33 24h169q10 0 17 -7t7 -14t-1 -10l-192 -464q-12 -25 -33 -25z" />
    <glyph glyph-name="w" unicode="w" horiz-adv-x="877" 
d="M392 520h93q27 0 34 -24l65 -208l61 208q7 24 34 24h154q10 0 17 -7t7 -14t-1 -11l-146 -463q-8 -25 -33 -25h-134q-25 0 -33 25l-71 202l-72 -202q-8 -25 -33 -25h-134q-25 0 -33 25l-146 463q-1 4 -1 11t7 14t17 7h154q27 0 34 -24l61 -208l65 208q7 24 34 24z" />
    <glyph glyph-name="x" unicode="x" horiz-adv-x="642" 
d="M628 37q4 -5 4 -14t-7 -16t-17 -7h-192q-18 0 -30 17l-66 97l-69 -97q-11 -17 -30 -17h-187q-10 0 -17 7t-7 16t4 14l162 231l-144 215q-4 6 -4 14.5t7 15.5t17 7h183q19 0 32 -19l58 -89l58 89q13 19 32 19h175q10 0 17 -7t7 -15.5t-4 -14.5l-147 -214z" />
    <glyph glyph-name="y" unicode="y" horiz-adv-x="642" 
d="M40 520h169q23 0 32 -24l82 -228l85 228q10 24 34 24h167q9 0 16 -6.5t7 -13.5t-1 -11l-282 -655q-10 -24 -35 -24h-164q-9 0 -15.5 6t-6.5 14.5t1 10.5l80 192l-193 456q-1 3 -1 7q4 24 25 24z" />
    <glyph glyph-name="z" unicode="z" horiz-adv-x="624" 
d="M547 172q11 0 19 -8t8 -19v-118q0 -11 -8 -19t-19 -8h-470q-11 0 -19 8t-8 19v115q0 21 16 35l199 171h-181q-11 0 -19 8t-8 19v118q0 11 8 19t19 8h442q11 0 19 -8t8 -19v-126q0 -17 -14 -29l-190 -166h198z" />
    <glyph glyph-name="braceleft" unicode="{" horiz-adv-x="507" 
d="M50 283v52q0 29 29 42l17 7q54 22 54 99t25.5 134t68.5 91q86 68 211 68q9 0 15.5 -6.5t6.5 -15.5v-137q0 -9 -6 -15t-13 -7q-128 -16 -128 -119q0 -63 -22 -110t-51 -57q29 -10 51 -59t22 -108q0 -103 128 -119q7 -1 13 -7t6 -15v-137q0 -9 -6.5 -15.5t-15.5 -6.5
q-125 0 -211 68q-43 34 -68.5 91t-25.5 134t-54 99l-17 7q-29 13 -29 42z" />
    <glyph glyph-name="bar" unicode="|" horiz-adv-x="308" 
d="M87 896h134q11 0 19 -8t8 -19v-1050q0 -11 -8 -19t-19 -8h-134q-11 0 -19 8t-8 19v1050q0 11 8 19t19 8z" />
    <glyph glyph-name="braceright" unicode="}" horiz-adv-x="507" 
d="M457 335v-52q0 -29 -29 -42l-17 -7q-54 -22 -54 -99t-25.5 -134t-68.5 -91q-86 -68 -211 -68q-9 0 -15.5 6.5t-6.5 15.5v137q0 9 6 15t13 7q128 16 128 119q0 59 22 108t51 59q-29 10 -51 57t-22 110q0 103 -128 119q-7 1 -13 7t-6 15v137q0 9 6.5 15.5t15.5 6.5
q125 0 211 -68q43 -34 68.5 -91t25.5 -134t54 -99l17 -7q29 -13 29 -42z" />
    <glyph glyph-name="asciitilde" unicode="~" horiz-adv-x="550" 
d="M160 407q50 0 117.5 -21t109.5 -21t71 26q10 8 21.5 8.5t16 -8t4.5 -28.5v-108q0 -34 -30 -57t-80 -23t-117.5 21t-109.5 21t-71 -26q-10 -8 -21.5 -8.5t-16 8t-4.5 28.5v108q0 34 30 57t80 23z" />
    <glyph glyph-name="exclamdown" unicode="&#xa1;" horiz-adv-x="338" 
d="M256 292h-174q-11 0 -19 8t-8 19v174q0 11 8 19t19 8h174q11 0 19 -8t8 -19v-174q0 -11 -8 -19t-19 -8zM256 -180h-174q-11 0 -19 8t-8 19v378q0 11 8 19t19 8h174q11 0 19 -8t8 -19v-378q0 -11 -8 -19t-19 -8z" />
    <glyph glyph-name="cent" unicode="&#xa2;" horiz-adv-x="638" 
d="M390 -100h-149q-11 0 -19 8t-8 19v76q-83 23 -131 83.5t-48 150.5v46q0 90 48 150.5t131 83.5v66q0 11 8 19t19 8h149q11 0 19 -8t8 -19v-66q48 -12 86.5 -36.5t60.5 -51.5q44 -54 44 -93q0 -11 -8 -19t-19 -8h-195q-19 0 -29 20q-14 30 -37 30q-40 0 -40 -64v-70
q0 -34 9 -49t28 -15t26 6.5t14.5 25t28.5 18.5h195q11 0 19 -8t8 -21t-10.5 -36.5t-31.5 -51.5t-60.5 -53.5t-88.5 -38.5v-75q0 -11 -8 -19t-19 -8z" />
    <glyph glyph-name="sterling" unicode="&#xa3;" horiz-adv-x="787" 
d="M535 -10q-55 0 -133.5 22.5t-113 22.5t-50.5 -26q-5 -9 -15 -9h-154q-8 0 -13.5 5.5t-5.5 12.5q0 59 28.5 108t78.5 76q0 18 -4 48h-75q-11 0 -19 8t-8 19v112q0 11 8 19t19 8h35q-1 9 -1 30q0 265 305 265q140 0 228.5 -64t88.5 -182q0 -9 -6.5 -15.5t-15.5 -6.5h-204
q-29 0 -41 29q-18 44 -47 44t-38.5 -17t-9.5 -45.5t1 -37.5h113q11 0 19 -8t8 -19v-112q0 -11 -8 -19t-19 -8h-108q0 -33 -2 -51q80 -17 122 -17t71 37q7 9 18 9h131q19 0 19 -19q0 -99 -62 -159t-140 -60z" />
    <glyph glyph-name="currency" unicode="&#xa4;" horiz-adv-x="670" 
d="M619 510.5q0 -10.5 -8 -18.5l-51 -51q25 -52 25 -108.5t-25 -108.5l52 -51q9 -9 9 -18t-9 -18l-83 -82q-7 -7 -17 -7t-17 7l-52 52q-49 -24 -108.5 -24t-107.5 24l-51 -51q-9 -9 -18 -9l-18 9l-82 83q-8 7 -8 17t8 17l51 51q-24 53 -24 110.5t24 106.5l-51 51q-7 8 -7 18
t7 17l82 81q8 8 18 8t18 -8l49 -49q52 25 109.5 25t109.5 -25l51 51q7 7 17.5 7t17.5 -7l81 -82q8 -7 8 -17.5zM238 333q0 -41 28 -69t68.5 -28t69 28.5t28.5 68.5t-28.5 69t-69 29t-68.5 -28.5t-28 -69.5z" />
    <glyph glyph-name="yen" unicode="&#xa5;" horiz-adv-x="800" 
d="M158 303h75l-183 366q-2 4 -2 11t6.5 13.5t15.5 6.5h188q30 0 42 -25l100 -201l100 201q12 25 42 25h188q9 0 15.5 -6.5t6.5 -13.5t-2 -11l-184 -366h77q11 0 19 -8t8 -19v-116q0 -11 -8 -19t-19 -8h-118v-106q0 -11 -8 -19t-19 -8h-196q-11 0 -19 8t-8 19v106h-117
q-11 0 -19 8t-8 19v116q0 11 8 19t19 8z" />
    <glyph glyph-name="brokenbar" unicode="&#xa6;" horiz-adv-x="308" 
d="M87 354h134q11 0 19 -8t8 -19v-300q0 -11 -8 -19t-19 -8h-134q-11 0 -19 8t-8 19v300q0 11 8 19t19 8zM87 829h134q11 0 19 -8t8 -19v-300q0 -11 -8 -19t-19 -8h-134q-11 0 -19 8t-8 19v300q0 11 8 19t19 8z" />
    <glyph glyph-name="section" unicode="&#xa7;" horiz-adv-x="644" 
d="M570.5 402q43.5 -47 43.5 -129t-68 -135q16 -34 16 -72q0 -89 -66.5 -146.5t-182 -57.5t-188.5 51t-73 104q0 23 22 23h166q13 0 29.5 -14t32.5 -14q30 0 30 27q0 11 -5 19t-30.5 19t-73.5 20q-106 26 -149.5 73t-43.5 129t68 135q-16 32 -16 72q0 89 66.5 146.5
t182 57.5t188.5 -51t73 -104q0 -23 -22 -23h-166q-13 0 -29.5 14t-32.5 14q-30 0 -30 -27q0 -11 5 -19t30.5 -19t73.5 -20q106 -26 149.5 -73zM238 309q0 -21 25 -32t72 -23t52.5 -12t12 6t6.5 15q0 21 -25 32t-72 22.5t-52.5 11.5t-12 -5.5t-6.5 -14.5z" />
    <glyph glyph-name="dieresis" unicode="&#xa8;" horiz-adv-x="503" 
d="M73 736h121q10 0 16.5 -6.5t6.5 -16.5v-121q0 -10 -6.5 -16.5t-16.5 -6.5h-121q-10 0 -16.5 6.5t-6.5 16.5v121q0 10 6.5 16.5t16.5 6.5zM309 736h121q10 0 16.5 -6.5t6.5 -16.5v-121q0 -10 -6.5 -16.5t-16.5 -6.5h-121q-10 0 -16.5 6.5t-6.5 16.5v121q0 10 6.5 16.5
t16.5 6.5z" />
    <glyph glyph-name="copyright" unicode="&#xa9;" horiz-adv-x="780" 
d="M30 350q0 149 105.5 254.5t254.5 105.5t254.5 -105.5t105.5 -254.5t-105.5 -254.5t-254.5 -105.5t-254.5 105.5t-105.5 254.5zM110 350q0 -120 80.5 -203.5t199.5 -83.5t199.5 83.5t80.5 203.5t-80.5 203.5t-199.5 83.5t-199.5 -83.5t-80.5 -203.5zM351 305q0 -42 39 -42
q29 0 39 28q4 16 20 16h110q11 0 11 -12q0 -69 -52 -103.5t-130.5 -34.5t-126.5 36.5t-48 111.5v92q0 73 49.5 111t126.5 38t129 -34.5t52 -103.5q0 -4 -3.5 -8.5t-7.5 -4.5h-110q-16 0 -20 16q-11 30 -39 30q-39 0 -39 -44v-92z" />
    <glyph glyph-name="ordfeminine" unicode="&#xaa;" horiz-adv-x="350" 
d="M30 515q0 69 113 89l54 8q0 16 -2.5 21t-12.5 5t-19 -8t-17 -8h-87q-10 0 -10 12q0 25 35 50.5t99 25.5q137 0 137 -111v-146q0 -5 -4 -9.5t-10 -4.5h-89q-6 0 -10.5 4.5t-4.5 9.5v14q-22 -33 -69 -33t-75 23t-28 58zM165 510q34 0 34 40l-30 -8q-24 -5 -24 -18.5
t20 -13.5z" />
    <glyph glyph-name="guillemotleft" unicode="&#xab;" horiz-adv-x="627" 
d="M287 215v-141q0 -9 -6.5 -15.5t-15 -6.5t-14.5 5l-217 211q-14 12 -14 28v66q0 16 14 28l217 211q6 5 14.5 5t15 -6.5t6.5 -15.5v-141q0 -27 -18 -45l-69 -69l69 -69q18 -18 18 -45zM577 215v-141q0 -9 -6.5 -15.5t-15 -6.5t-14.5 5l-217 211q-14 12 -14 28v66
q0 16 14 28l217 211q6 5 14.5 5t15 -6.5t6.5 -15.5v-141q0 -27 -18 -45l-69 -69l69 -69q18 -18 18 -45z" />
    <glyph glyph-name="logicalnot" unicode="&#xac;" horiz-adv-x="609" 
d="M389 174v79h-312q-11 0 -19 8t-8 19v116q0 11 8 19t19 8h455q11 0 19 -8t8 -19v-222q0 -11 -8 -19t-19 -8h-116q-11 0 -19 8t-8 19z" />
    <glyph glyph-name="registered" unicode="&#xae;" horiz-adv-x="780" 
d="M562 200q3 -6 3 -12.5t-6.5 -13t-14.5 -6.5h-86q-21 0 -28 19l-44 95h-21v-90q0 -10 -6.5 -17t-16.5 -7h-85q-10 0 -16.5 7t-6.5 17v308q0 14 9.5 24t22.5 10h136q75 0 117.5 -34t42.5 -95t-55 -99zM365 437v-56h37q25 0 25 27q0 11 -6.5 20t-18.5 9h-37zM30 350
q0 149 105.5 254.5t254.5 105.5t254.5 -105.5t105.5 -254.5t-105.5 -254.5t-254.5 -105.5t-254.5 105.5t-105.5 254.5zM110 350q0 -120 80.5 -203.5t199.5 -83.5t199.5 83.5t80.5 203.5t-80.5 203.5t-199.5 83.5t-199.5 -83.5t-80.5 -203.5z" />
    <glyph glyph-name="macron" unicode="&#xaf;" horiz-adv-x="473" 
d="M73 726h327q10 0 16.5 -6.5t6.5 -16.5v-101q0 -10 -6.5 -16.5t-16.5 -6.5h-327q-10 0 -16.5 6.5t-6.5 16.5v101q0 10 6.5 16.5t16.5 6.5z" />
    <glyph glyph-name="degree" unicode="&#xb0;" horiz-adv-x="470" 
d="M384.5 392.5q-55.5 -52.5 -149 -52.5t-149.5 52.5t-56 132t56 132.5t149.5 53t149 -53.5t55.5 -132.5t-55.5 -131.5zM236 447q54 0 54 77.5t-54 77.5q-27 0 -41.5 -21t-14.5 -57q0 -77 56 -77z" />
    <glyph glyph-name="plusminus" unicode="&#xb1;" horiz-adv-x="558" 
d="M77 163h404q11 0 19 -8t8 -19v-109q0 -11 -8 -19t-19 -8h-404q-11 0 -19 8t-8 19v109q0 11 8 19t19 8zM192 213v141h-135q-11 0 -19 8t-8 19v109q0 11 8 19t19 8h135v136q0 11 8 19t19 8h122q11 0 19 -8t8 -19v-136h133q11 0 19 -8t8 -19v-109q0 -11 -8 -19t-19 -8h-133
v-141q0 -11 -8 -19t-19 -8h-122q-11 0 -19 8t-8 19z" />
    <glyph glyph-name="twosuperior" unicode="&#xb2;" horiz-adv-x="421" 
d="M357 453q14 0 14 -14v-76q0 -13 -14 -13h-294q-13 0 -13 13v52q0 18 12 27q94 68 129 98t35 50.5t-18 20.5t-27 -25q-5 -12 -20 -12h-94q-11 0 -11 11q0 56 43 90.5t110.5 34.5t107.5 -29.5t40 -76t-28 -80.5t-83 -71h111z" />
    <glyph glyph-name="threesuperior" unicode="&#xb3;" horiz-adv-x="430" 
d="M375 457q0 -52 -46 -84.5t-122 -32.5t-116.5 35t-40.5 71q0 10 10 10h100q8 0 16 -8t29 -8q31 0 31 23q0 20 -31 20h-57q-12 0 -12 13v48q0 14 10 20l49 28h-111q-14 0 -14 14v80q0 14 14 14h256q13 0 13 -14v-63q0 -14 -10 -20l-58 -40q90 -23 90 -106z" />
    <glyph glyph-name="acute" unicode="&#xb4;" horiz-adv-x="450" 
d="M194 736h187q19 0 19 -20q0 -7 -5 -12l-158 -125q-11 -10 -41 -10h-130q-16 0 -16 16q0 8 5 13l102 119q17 19 37 19z" />
    <glyph glyph-name="mu" unicode="&#xb5;" horiz-adv-x="689" 
d="M50 -172v665q0 11 8 19t19 8h196q11 0 19 -8t8 -19v-269q0 -55 50 -55t50 55v269q0 11 8 19t19 8h190q11 0 19 -8t8 -19v-466q0 -11 -8 -19t-19 -8h-175q-11 0 -19 8t-8 19v33q-34 -50 -115 -60v-172q0 -11 -8 -19t-19 -8h-196q-11 0 -19 8t-8 19z" />
    <glyph glyph-name="paragraph" unicode="&#xb6;" horiz-adv-x="562" 
d="M233 700h252q11 0 19 -8t8 -19v-746q0 -11 -8 -19t-19 -8h-44q-11 0 -19 8t-8 19v675h-79v-675q0 -11 -8 -19t-19 -8h-44q-11 0 -19 8t-8 19v379q-82 0 -139.5 57.5t-57.5 139t56.5 139.5t136.5 58z" />
    <glyph glyph-name="periodcentered" unicode="&#xb7;" horiz-adv-x="480" 
d="M100 434q0 58 41 99t99 41t99 -41t41 -99t-41 -99t-99 -41t-99 41t-41 99z" />
    <glyph glyph-name="cedilla" unicode="&#xb8;" horiz-adv-x="342" 
d="M185 49l-21 -88q11 6 44.5 6t58.5 -26.5t25 -64.5q0 -72 -60 -95q-30 -11 -60 -11l-62 12q-60 24 -60 65q0 13 13 13h61q12 0 25.5 -8t26.5 -8q29 0 29 24q0 10 -9 17.5t-23.5 7.5t-24.5 -6t-19 -6h-44q-14 0 -14 14q0 4 1 12l28 144q3 19 33 19h28q24 0 24 -21z" />
    <glyph glyph-name="onesuperior" unicode="&#xb9;" horiz-adv-x="326" 
d="M265 686v-323q0 -13 -13 -13h-108q-14 0 -14 13v191l-51 -39q-9 -8 -19 4l-49 64q-2 5 -2 10.5t7 9.5l120 93q5 4 11 4h105q13 0 13 -14z" />
    <glyph glyph-name="ordmasculine" unicode="&#xba;" horiz-adv-x="358" 
d="M30 554v36q0 58 42 89t107 31t107 -31t42 -89v-36q0 -59 -40 -89.5t-109 -30.5t-109 30.5t-40 89.5zM202 550v44q0 34 -23 34t-23 -34v-44q0 -20 5 -27t18 -7q23 0 23 34z" />
    <glyph glyph-name="guillemotright" unicode="&#xbb;" horiz-adv-x="627" 
d="M340 443v141q0 9 6.5 15.5t15 6.5t14.5 -5l217 -211q14 -12 14 -28v-66q0 -16 -14 -28l-217 -211q-6 -5 -14.5 -5t-15 6.5t-6.5 15.5v141q0 27 18 45l69 69l-69 69q-18 18 -18 45zM50 443v141q0 9 6.5 15.5t15 6.5t14.5 -5l217 -211q14 -12 14 -28v-66q0 -16 -14 -28
l-217 -211q-6 -5 -14.5 -5t-15 6.5t-6.5 15.5v141q0 27 18 45l69 69l-69 69q-18 18 -18 45z" />
    <glyph glyph-name="onequarter" unicode="&#xbc;" horiz-adv-x="814" 
d="M265 686v-323q0 -13 -13 -13h-108q-14 0 -14 13v191l-51 -39q-9 -8 -19 4l-49 64q-2 5 -2 10.5t7 9.5l120 93q5 4 11 4h105q13 0 13 -14zM696 157h43q14 0 14 -13v-85q0 -13 -13 -13h-44v-33q0 -13 -14 -13h-103q-13 0 -13 13v33h-160q-13 0 -13 13v82q0 10 5 15l142 185
q7 9 18 9h124q14 0 14 -14v-179zM569 152v72l-52 -72h52zM615 700h74q24 0 24 -20q0 -6 -4 -11l-494 -650q-14 -19 -36 -19h-74q-24 0 -24 20q0 6 4 11l494 650q14 19 36 19z" />
    <glyph glyph-name="onehalf" unicode="&#xbd;" horiz-adv-x="844" 
d="M769 103q14 0 14 -14v-76q0 -13 -14 -13h-294q-13 0 -13 13v52q0 18 12 27q94 68 129 98t35 50.5t-18 20.5t-27 -25q-5 -12 -20 -12h-94q-11 0 -11 11q0 56 43 90.5t110.5 34.5t107.5 -29.5t40 -76t-28 -80.5t-83 -71h111zM265 686v-323q0 -13 -13 -13h-108q-14 0 -14 13
v191l-51 -39q-9 -8 -19 4l-49 64q-2 5 -2 10.5t7 9.5l120 93q5 4 11 4h105q13 0 13 -14zM615 700h74q24 0 24 -20q0 -6 -4 -11l-494 -650q-14 -19 -36 -19h-74q-24 0 -24 20q0 6 4 11l494 650q14 19 36 19z" />
    <glyph glyph-name="threequarters" unicode="&#xbe;" horiz-adv-x="854" 
d="M717 157h43q14 0 14 -13v-85q0 -13 -13 -13h-44v-33q0 -13 -14 -13h-103q-13 0 -13 13v33h-160q-13 0 -13 13v82q0 10 5 15l142 185q7 9 18 9h124q14 0 14 -14v-179zM590 152v72l-52 -72h52zM335 457q0 -52 -46 -84.5t-122 -32.5t-116.5 35t-40.5 71q0 10 10 10h100
q8 0 16 -8t29 -8q31 0 31 23q0 20 -31 20h-57q-12 0 -12 13v48q0 14 10 20l49 28h-111q-14 0 -14 14v80q0 14 14 14h256q13 0 13 -14v-63q0 -14 -10 -20l-58 -40q90 -23 90 -106zM634 700h74q24 0 24 -20q0 -6 -4 -11l-494 -650q-14 -19 -36 -19h-74q-24 0 -24 20q0 6 4 11
l494 650q14 19 36 19z" />
    <glyph glyph-name="questiondown" unicode="&#xbf;" horiz-adv-x="664" 
d="M311 -190q-66 0 -117.5 13.5t-81.5 33.5t-50 47q-32 44 -32 88.5t18 82t39.5 61t51.5 54t41 46.5t14 20q10 11 24 11h214q7 0 13 -5.5t6 -11.5q0 -26 -32 -66t-57 -62q-67 -57 -67 -85q0 -15 9.5 -23.5t29 -8.5t33 9.5t17.5 21.5q9 31 39 31h186q11 0 18 -9t7 -21v-1
q0 -86 -84.5 -156t-238.5 -70zM422 307h-183q-11 0 -19 8t-8 19v159q0 11 8 19t19 8h183q11 0 19 -8t8 -19v-159q0 -11 -8 -19t-19 -8z" />
    <glyph glyph-name="Agrave" unicode="&#xc0;" horiz-adv-x="785" 
d="M284 700h217q36 0 45 -33l223 -638q1 -3 1 -9.5t-6.5 -13t-15.5 -6.5h-185q-30 0 -39 25l-24 66h-215l-24 -66q-9 -25 -39 -25h-185q-9 0 -15.5 6.5t-6.5 13t1 9.5l223 638q9 33 45 33zM336 286h113l-57 186zM485 766q0 -16 -16 -16h-140q-30 0 -41 10l-158 130
q-5 5 -5 12q0 20 19 20h197q20 0 37 -19l102 -124q5 -5 5 -13z" />
    <glyph glyph-name="Aacute" unicode="&#xc1;" horiz-adv-x="785" 
d="M284 700h217q36 0 45 -33l223 -638q1 -3 1 -9.5t-6.5 -13t-15.5 -6.5h-185q-30 0 -39 25l-24 66h-215l-24 -66q-9 -25 -39 -25h-185q-9 0 -15.5 6.5t-6.5 13t1 9.5l223 638q9 33 45 33zM336 286h113l-57 186zM437 922h197q19 0 19 -20q0 -7 -5 -12l-158 -130
q-11 -10 -41 -10h-140q-16 0 -16 16q0 8 5 13l102 124q17 19 37 19z" />
    <glyph glyph-name="Acircumflex" unicode="&#xc2;" horiz-adv-x="785" 
d="M284 700h217q36 0 45 -33l223 -638q1 -3 1 -9.5t-6.5 -13t-15.5 -6.5h-185q-30 0 -39 25l-24 66h-215l-24 -66q-9 -25 -39 -25h-185q-9 0 -15.5 6.5t-6.5 13t1 9.5l223 638q9 33 45 33zM336 286h113l-57 186zM327 922h130q11 0 16 -3t21 -16l117 -124q5 -5 5 -13
q0 -16 -16 -16h-71q-19 0 -40 7l-97 42l-97 -42q-21 -7 -40 -7h-71q-16 0 -16 16q0 8 5 13l117 124q16 13 21 16t16 3z" />
    <glyph glyph-name="Atilde" unicode="&#xc3;" horiz-adv-x="785" 
d="M284 700h217q36 0 45 -33l223 -638q1 -3 1 -9.5t-6.5 -13t-15.5 -6.5h-185q-30 0 -39 25l-24 66h-215l-24 -66q-9 -25 -39 -25h-185q-9 0 -15.5 6.5t-6.5 13t1 9.5l223 638q9 33 45 33zM336 286h113l-57 186zM535.5 763q-28.5 -16 -64 -16t-79.5 17t-63.5 17t-32.5 -22
q-5 -9 -15 -9h-84q-8 0 -13.5 5.5t-5.5 17t3.5 29t13 38t23.5 36.5q34 39 96 39q33 0 77 -17t62.5 -17t28.5 15.5t20 15.5h84q19 0 19 -19.5t-6.5 -42t-20.5 -47t-42.5 -40.5z" />
    <glyph glyph-name="Adieresis" unicode="&#xc4;" horiz-adv-x="785" 
d="M284 700h217q36 0 45 -33l223 -638q1 -3 1 -9.5t-6.5 -13t-15.5 -6.5h-185q-30 0 -39 25l-24 66h-215l-24 -66q-9 -25 -39 -25h-185q-9 0 -15.5 6.5t-6.5 13t1 9.5l223 638q9 33 45 33zM336 286h113l-57 186zM465 922h126q10 0 16.5 -6.5t6.5 -16.5v-126
q0 -10 -6.5 -16.5t-16.5 -6.5h-126q-10 0 -16.5 6.5t-6.5 16.5v126q0 10 6.5 16.5t16.5 6.5zM194 922h126q10 0 16.5 -6.5t6.5 -16.5v-126q0 -10 -6.5 -16.5t-16.5 -6.5h-126q-10 0 -16.5 6.5t-6.5 16.5v126q0 10 6.5 16.5t16.5 6.5z" />
    <glyph glyph-name="Aring" unicode="&#xc5;" horiz-adv-x="785" 
d="M284 700h217q36 0 45 -33l223 -638q1 -3 1 -9.5t-6.5 -13t-15.5 -6.5h-185q-30 0 -39 25l-24 66h-215l-24 -66q-9 -25 -39 -25h-185q-9 0 -15.5 6.5t-6.5 13t1 9.5l223 638q9 33 45 33zM336 286h113l-57 186zM473 767q-30 -27 -80.5 -27t-80.5 27t-30 69.5t30 69
t80.5 26.5t80.5 -26.5t30 -69t-30 -69.5zM392 805q29 0 29 31t-29 31t-29 -31t29 -31z" />
    <glyph glyph-name="AE" unicode="&#xc6;" horiz-adv-x="994" 
d="M284 700h660q11 0 19 -8t8 -19v-141q0 -11 -8 -19t-19 -8h-270v-63h248q11 0 19 -8t8 -19v-130q0 -11 -8 -19t-19 -8h-248v-63h278q11 0 19 -8t8 -19v-141q0 -11 -8 -19t-19 -8h-491q-11 0 -19 8t-8 19v64h-149l-24 -66q-9 -25 -39 -25h-185q-9 0 -15.5 6.5t-6.5 13
t1 9.5l223 638q9 33 45 33zM434 286v219h-32l-66 -219h98z" />
    <glyph glyph-name="Ccedilla" unicode="&#xc7;" horiz-adv-x="747" 
d="M305 434v-168q0 -81 74 -81q57 0 75 54q5 17 12.5 23t24.5 6h204q9 0 15.5 -6.5t6.5 -15.5q0 -64 -27 -113.5t-73 -79.5q-90 -59 -222 -63l-7 -29q11 6 44.5 6t58.5 -26.5t25 -64.5q0 -72 -60 -95q-30 -11 -60 -11l-62 12q-60 24 -60 65q0 13 13 13h61q12 0 25.5 -8
t26.5 -8q29 0 29 24q0 10 -9 17.5t-23.5 7.5t-24.5 -6t-19 -6h-44q-14 0 -14 14q0 4 1 12l17 87q-125 13 -196.5 79.5t-71.5 191.5v170q0 137 93 206t242 69q195 0 287 -110q50 -59 50 -146q0 -9 -6.5 -15.5t-15.5 -6.5h-204q-16 0 -23.5 6t-13.5 23q-19 54 -75 54
q-74 0 -74 -81z" />
    <glyph glyph-name="Egrave" unicode="&#xc8;" horiz-adv-x="695" 
d="M305 195h308q11 0 19 -8t8 -19v-141q0 -11 -8 -19t-19 -8h-521q-11 0 -19 8t-8 19v646q0 11 8 19t19 8h513q11 0 19 -8t8 -19v-141q0 -11 -8 -19t-19 -8h-300v-63h278q11 0 19 -8t8 -19v-130q0 -11 -8 -19t-19 -8h-278v-63zM468 766q0 -16 -16 -16h-140q-30 0 -41 10
l-158 130q-5 5 -5 12q0 20 19 20h197q20 0 37 -19l102 -124q5 -5 5 -13z" />
    <glyph glyph-name="Eacute" unicode="&#xc9;" horiz-adv-x="695" 
d="M613 195q11 0 19 -8t8 -19v-141q0 -11 -8 -19t-19 -8h-521q-11 0 -19 8t-8 19v646q0 11 8 19t19 8h513q11 0 19 -8t8 -19v-141q0 -11 -8 -19t-19 -8h-300v-63h278q11 0 19 -8t8 -19v-130q0 -11 -8 -19t-19 -8h-278v-63h308zM364 922h197q19 0 19 -20q0 -7 -5 -12
l-158 -130q-11 -10 -41 -10h-140q-16 0 -16 16q0 8 5 13l102 124q17 19 37 19z" />
    <glyph glyph-name="Ecircumflex" unicode="&#xca;" horiz-adv-x="690" 
d="M305 195h308q11 0 19 -8t8 -19v-141q0 -11 -8 -19t-19 -8h-521q-11 0 -19 8t-8 19v646q0 11 8 19t19 8h513q11 0 19 -8t8 -19v-141q0 -11 -8 -19t-19 -8h-300v-63h278q11 0 19 -8t8 -19v-130q0 -11 -8 -19t-19 -8h-278v-63zM290 922h130q11 0 16 -3t21 -16l117 -124
q5 -5 5 -13q0 -16 -16 -16h-71q-19 0 -40 7l-97 42l-97 -42q-21 -7 -40 -7h-71q-16 0 -16 16q0 8 5 13l117 124q16 13 21 16t16 3z" />
    <glyph glyph-name="Edieresis" unicode="&#xcb;" horiz-adv-x="695" 
d="M613 195q11 0 19 -8t8 -19v-141q0 -11 -8 -19t-19 -8h-521q-11 0 -19 8t-8 19v646q0 11 8 19t19 8h513q11 0 19 -8t8 -19v-141q0 -11 -8 -19t-19 -8h-300v-63h278q11 0 19 -8t8 -19v-130q0 -11 -8 -19t-19 -8h-278v-63h308zM412 922h126q10 0 16.5 -6.5t6.5 -16.5v-126
q0 -10 -6.5 -16.5t-16.5 -6.5h-126q-10 0 -16.5 6.5t-6.5 16.5v126q0 10 6.5 16.5t16.5 6.5zM141 922h126q10 0 16.5 -6.5t6.5 -16.5v-126q0 -10 -6.5 -16.5t-16.5 -6.5h-126q-10 0 -16.5 6.5t-6.5 16.5v126q0 10 6.5 16.5t16.5 6.5z" />
    <glyph glyph-name="Igrave" unicode="&#xcc;" horiz-adv-x="390" 
d="M298 0h-204q-11 0 -19 8t-8 19v646q0 11 8 19t19 8h204q11 0 19 -8t8 -19v-646q0 -11 -8 -19t-19 -8zM299 766q0 -16 -16 -16h-140q-30 0 -41 10l-158 130q-5 5 -5 12q0 20 19 20h197q20 0 37 -19l102 -124q5 -5 5 -13z" />
    <glyph glyph-name="Iacute" unicode="&#xcd;" horiz-adv-x="389" 
d="M296 0h-204q-11 0 -19 8t-8 19v646q0 11 8 19t19 8h204q11 0 19 -8t8 -19v-646q0 -11 -8 -19t-19 -8zM242 922h197q19 0 19 -20q0 -7 -5 -12l-158 -130q-11 -10 -41 -10h-140q-16 0 -16 16q0 8 5 13l102 124q17 19 37 19z" />
    <glyph glyph-name="Icircumflex" unicode="&#xce;" horiz-adv-x="394" 
d="M300 0h-204q-11 0 -19 8t-8 19v646q0 11 8 19t19 8h204q11 0 19 -8t8 -19v-646q0 -11 -8 -19t-19 -8zM132 922h130q11 0 16 -3t21 -16l117 -124q5 -5 5 -13q0 -16 -16 -16h-71q-19 0 -40 7l-97 42l-97 -42q-21 -7 -40 -7h-71q-16 0 -16 16q0 8 5 13l117 124q16 13 21 16
t16 3z" />
    <glyph glyph-name="Idieresis" unicode="&#xcf;" horiz-adv-x="391" 
d="M299 0h-204q-11 0 -19 8t-8 19v646q0 11 8 19t19 8h204q11 0 19 -8t8 -19v-646q0 -11 -8 -19t-19 -8zM274 922h126q10 0 16.5 -6.5t6.5 -16.5v-126q0 -10 -6.5 -16.5t-16.5 -6.5h-126q-10 0 -16.5 6.5t-6.5 16.5v126q0 10 6.5 16.5t16.5 6.5zM3 922h126q10 0 16.5 -6.5
t6.5 -16.5v-126q0 -10 -6.5 -16.5t-16.5 -6.5h-126q-10 0 -16.5 6.5t-6.5 16.5v126q0 10 6.5 16.5t16.5 6.5z" />
    <glyph glyph-name="Eth" unicode="&#xd0;" horiz-adv-x="760" 
d="M27 429h38v244q0 11 8 19t19 8h288q146 0 240.5 -72.5t94.5 -202.5v-149q0 -136 -92 -206t-242 -70h-289q-11 0 -19 8t-8 19v247h-38q-11 0 -19 8t-8 19v101q0 11 8 19t19 8zM315 505v-76h56q11 0 19 -8t8 -19v-101q0 -11 -8 -19t-19 -8h-56v-79h65q34 0 54.5 20.5
t20.5 60.5v149q0 80 -75 80h-65z" />
    <glyph glyph-name="Ntilde" unicode="&#xd1;" horiz-adv-x="760" 
d="M487 700h181q11 0 19 -8t8 -19v-646q0 -11 -8 -19t-19 -8h-158q-26 0 -41 23l-169 255v-251q0 -11 -8 -19t-19 -8h-181q-11 0 -19 8t-8 19v646q0 11 8 19t19 8h158q28 0 41 -23l169 -277v273q0 11 8 19t19 8zM524.5 763q-28.5 -16 -64 -16t-79.5 17t-63.5 17t-32.5 -22
q-5 -9 -15 -9h-84q-8 0 -13.5 5.5t-5.5 17t3.5 29t13 38t24.5 36.5q33 39 95 39q33 0 77 -17t62.5 -17t28.5 15.5t20 15.5h84q19 0 19 -19.5t-6.5 -42t-20.5 -47t-42.5 -40.5z" />
    <glyph glyph-name="Ograve" unicode="&#xd2;" 
d="M379 710q151 0 242.5 -74.5t91.5 -209.5v-156q0 -137 -90.5 -208.5t-243.5 -71.5t-243.5 71.5t-90.5 208.5v156q0 136 91.5 210t242.5 74zM379 185q34 0 54 20t20 61v168q0 40 -20 60.5t-54 20.5t-54 -20.5t-20 -60.5v-168q0 -41 20 -61t54 -20zM485 766q0 -16 -16 -16
h-140q-30 0 -41 10l-158 130q-5 5 -5 12q0 20 19 20h197q20 0 37 -19l102 -124q5 -5 5 -13z" />
    <glyph glyph-name="Oacute" unicode="&#xd3;" 
d="M379 710q151 0 242.5 -74.5t91.5 -209.5v-156q0 -137 -90.5 -208.5t-243.5 -71.5t-243.5 71.5t-90.5 208.5v156q0 136 91.5 210t242.5 74zM379 185q34 0 54 20t20 61v168q0 40 -20 60.5t-54 20.5t-54 -20.5t-20 -60.5v-168q0 -41 20 -61t54 -20zM429 922h197q19 0 19 -20
q0 -7 -5 -12l-158 -130q-11 -10 -41 -10h-140q-16 0 -16 16q0 8 5 13l102 124q17 19 37 19z" />
    <glyph glyph-name="Ocircumflex" unicode="&#xd4;" 
d="M379 710q151 0 242.5 -74.5t91.5 -209.5v-156q0 -137 -90.5 -208.5t-243.5 -71.5t-243.5 71.5t-90.5 208.5v156q0 136 91.5 210t242.5 74zM379 185q34 0 54 20t20 61v168q0 40 -20 60.5t-54 20.5t-54 -20.5t-20 -60.5v-168q0 -41 20 -61t54 -20zM314 922h130q11 0 16 -3
t21 -16l117 -124q5 -5 5 -13q0 -16 -16 -16h-71q-19 0 -40 7l-97 42l-97 -42q-21 -7 -40 -7h-71q-16 0 -16 16q0 8 5 13l117 124q16 13 21 16t16 3z" />
    <glyph glyph-name="Otilde" unicode="&#xd5;" 
d="M379 710q151 0 242.5 -74.5t91.5 -209.5v-156q0 -137 -90.5 -208.5t-243.5 -71.5t-243.5 71.5t-90.5 208.5v156q0 136 91.5 210t242.5 74zM379 185q34 0 54 20t20 61v168q0 40 -20 60.5t-54 20.5t-54 -20.5t-20 -60.5v-168q0 -41 20 -61t54 -20zM520.5 763
q-28.5 -16 -64 -16t-79.5 17t-63.5 17t-32.5 -22q-5 -9 -15 -9h-84q-8 0 -13.5 5.5t-5.5 17t3.5 29t13 38t24.5 36.5q33 39 95 39q33 0 77 -17t62.5 -17t28.5 15.5t20 15.5h84q19 0 19 -19.5t-6.5 -42t-20.5 -47t-42.5 -40.5z" />
    <glyph glyph-name="Odieresis" unicode="&#xd6;" 
d="M379 710q151 0 242.5 -74.5t91.5 -209.5v-156q0 -137 -90.5 -208.5t-243.5 -71.5t-243.5 71.5t-90.5 208.5v156q0 136 91.5 210t242.5 74zM379 185q34 0 54 20t20 61v168q0 40 -20 60.5t-54 20.5t-54 -20.5t-20 -60.5v-168q0 -41 20 -61t54 -20zM451 922h126
q10 0 16.5 -6.5t6.5 -16.5v-126q0 -10 -6.5 -16.5t-16.5 -6.5h-126q-10 0 -16.5 6.5t-6.5 16.5v126q0 10 6.5 16.5t16.5 6.5zM180 922h126q10 0 16.5 -6.5t6.5 -16.5v-126q0 -10 -6.5 -16.5t-16.5 -6.5h-126q-10 0 -16.5 6.5t-6.5 16.5v126q0 10 6.5 16.5t16.5 6.5z" />
    <glyph glyph-name="multiply" unicode="&#xd7;" horiz-adv-x="630" 
d="M49 454q-9 8 -9 18.5t6 18.5l100 105q8 9 19 9t18 -6l132 -126l132 126q7 6 18 6t19 -9l100 -105q6 -8 6 -18.5t-9 -18.5l-123 -118l124 -118q8 -8 8 -18.5t-6 -17.5l-101 -107q-6 -8 -17.5 -8t-18.5 6l-132 126l-132 -126q-7 -6 -18.5 -6t-17.5 8l-101 107q-6 7 -6 17.5
t8 18.5l124 118z" />
    <glyph glyph-name="Oslash" unicode="&#xd8;" 
d="M379 710q107 0 186.5 -39t117.5 -112l43 17q8 3 14 3t12 -6t6 -15v-108q0 -25 -22 -33l-23 -9v-138q0 -137 -90.5 -208.5t-243.5 -71.5q-116 0 -198 41.5t-115 122.5l-34 -13q-7 -3 -13.5 -3t-12.5 6t-6 15v108q0 25 22 33l23 9v117q0 136 91.5 210t242.5 74zM379 185
q34 0 54 20t20 61v40l-147 -58q7 -63 73 -63zM379 515q-34 0 -54 -20.5t-20 -60.5v-23l143 56q-15 48 -69 48z" />
    <glyph glyph-name="Ugrave" unicode="&#xd9;" 
d="M480 700h196q11 0 19 -8t8 -19v-402q0 -140 -87 -210.5t-236.5 -70.5t-237 70t-87.5 211v402q0 11 8 19t19 8h196q11 0 19 -8t8 -19v-405q0 -77 74 -77t74 77v405q0 11 8 19t19 8zM479 766q0 -16 -16 -16h-140q-30 0 -41 10l-158 130q-5 5 -5 12q0 20 19 20h197
q20 0 37 -19l102 -124q5 -5 5 -13z" />
    <glyph glyph-name="Uacute" unicode="&#xda;" 
d="M480 700h196q11 0 19 -8t8 -19v-402q0 -140 -87 -210.5t-236.5 -70.5t-237 70t-87.5 211v402q0 11 8 19t19 8h196q11 0 19 -8t8 -19v-405q0 -77 74 -77t74 77v405q0 11 8 19t19 8zM434 922h197q19 0 19 -20q0 -7 -5 -12l-158 -130q-11 -10 -41 -10h-140q-16 0 -16 16
q0 8 5 13l102 124q17 19 37 19z" />
    <glyph glyph-name="Ucircumflex" unicode="&#xdb;" 
d="M480 700h196q11 0 19 -8t8 -19v-402q0 -140 -87 -210.5t-236.5 -70.5t-237 70t-87.5 211v402q0 11 8 19t19 8h196q11 0 19 -8t8 -19v-405q0 -77 74 -77t74 77v405q0 11 8 19t19 8zM314 922h130q11 0 16 -3t21 -16l117 -124q5 -5 5 -13q0 -16 -16 -16h-71q-19 0 -40 7
l-97 42l-97 -42q-21 -7 -40 -7h-71q-16 0 -16 16q0 8 5 13l117 124q16 13 21 16t16 3z" />
    <glyph glyph-name="Udieresis" unicode="&#xdc;" 
d="M480 700h196q11 0 19 -8t8 -19v-402q0 -140 -87 -210.5t-236.5 -70.5t-237 70t-87.5 211v402q0 11 8 19t19 8h196q11 0 19 -8t8 -19v-405q0 -77 74 -77t74 77v405q0 11 8 19t19 8zM450 922h126q10 0 16.5 -6.5t6.5 -16.5v-126q0 -10 -6.5 -16.5t-16.5 -6.5h-126
q-10 0 -16.5 6.5t-6.5 16.5v126q0 10 6.5 16.5t16.5 6.5zM179 922h126q10 0 16.5 -6.5t6.5 -16.5v-126q0 -10 -6.5 -16.5t-16.5 -6.5h-126q-10 0 -16.5 6.5t-6.5 16.5v126q0 10 6.5 16.5t16.5 6.5z" />
    <glyph glyph-name="Yacute" unicode="&#xdd;" horiz-adv-x="724" 
d="M460 0h-196q-11 0 -19 8t-8 19v197l-225 445q-2 4 -2 11t6.5 13.5t15.5 6.5h188q30 0 42 -25l100 -201l100 201q12 25 42 25h188q9 0 15.5 -6.5t6.5 -13.5t-2 -11l-225 -445v-197q0 -11 -8 -19t-19 -8zM401 916h187q19 0 19 -20q0 -7 -5 -12l-158 -125q-11 -10 -41 -10
h-130q-16 0 -16 16q0 8 5 13l102 119q17 19 37 19z" />
    <glyph glyph-name="Thorn" unicode="&#xde;" horiz-adv-x="726" 
d="M92 700h206q11 0 19 -8t8 -19v-72h65q144 0 225 -62t81 -183t-80.5 -179t-225.5 -58h-65v-92q0 -11 -8 -19t-19 -8h-206q-11 0 -19 8t-8 19v646q0 11 8 19t19 8zM320 415v-111h70q18 0 32 13.5t14 38.5t-11 42t-35 17h-70z" />
    <glyph glyph-name="germandbls" unicode="&#xdf;" horiz-adv-x="690" 
d="M277 27q0 -11 -8 -19t-19 -8h-178q-11 0 -19 8t-8 19v425q0 116 73.5 186.5t221.5 71.5q144 -1 214.5 -60.5t70.5 -144t-59 -130.5q89 -45 89 -159q0 -83 -78 -149.5t-202 -66.5h-35q-15 0 -24 7.5t-9 19.5v114q0 12 9 20t17.5 7.5t9.5 -0.5q28 0 47 16t19 43
q0 59 -67 59h-9t-17 7.5t-9 19.5v98q0 26 31 27t48 14.5t17 36t-17 37t-46 15.5q-63 -2 -63 -82v-432z" />
    <glyph glyph-name="agrave" unicode="&#xe0;" horiz-adv-x="645" 
d="M35 149q0 135 219 173l106 17q0 30 -5 40.5t-23.5 10.5t-36.5 -16t-34 -16h-170q-22 0 -22 21.5t15.5 46t45 48.5t83 40t119.5 16q134 0 201 -56t67 -160v-287q0 -11 -8 -19t-19 -8h-175q-11 0 -19 8t-8 19v28q-47 -65 -137 -65t-144.5 45.5t-54.5 113.5zM298 138
q65 0 65 78l-59 -13q-44 -10 -44 -37q0 -12 10 -20t28 -8zM436 585q0 -16 -16 -16h-130q-30 0 -41 10l-158 125q-5 5 -5 12q0 20 19 20h187q20 0 37 -19l102 -119q5 -5 5 -13z" />
    <glyph glyph-name="aacute" unicode="&#xe1;" horiz-adv-x="645" 
d="M35 149q0 135 219 173l106 17q0 30 -5 40.5t-23.5 10.5t-36.5 -16t-34 -16h-170q-22 0 -22 21.5t15.5 46t45 48.5t83 40t119.5 16q134 0 201 -56t67 -160v-287q0 -11 -8 -19t-19 -8h-175q-11 0 -19 8t-8 19v28q-47 -65 -137 -65t-144.5 45.5t-54.5 113.5zM298 138
q65 0 65 78l-59 -13q-44 -10 -44 -37q0 -12 10 -20t28 -8zM350 736h187q19 0 19 -20q0 -7 -5 -12l-158 -125q-11 -10 -41 -10h-130q-16 0 -16 16q0 8 5 13l102 119q17 19 37 19z" />
    <glyph glyph-name="acircumflex" unicode="&#xe2;" horiz-adv-x="645" 
d="M35 149q0 135 219 173l106 17q0 30 -5 40.5t-23.5 10.5t-36.5 -16t-34 -16h-170q-22 0 -22 21.5t15.5 46t45 48.5t83 40t119.5 16q134 0 201 -56t67 -160v-287q0 -11 -8 -19t-19 -8h-175q-11 0 -19 8t-8 19v28q-47 -65 -137 -65t-144.5 45.5t-54.5 113.5zM298 138
q65 0 65 78l-59 -13q-44 -10 -44 -37q0 -12 10 -20t28 -8zM266 736h130q12 0 18 -3t19 -16l112 -119q5 -5 5 -13q0 -16 -16 -16h-71q-26 0 -40 7l-92 42l-92 -42q-14 -7 -40 -7h-71q-16 0 -16 16q0 8 5 13l112 119q13 13 19 16t18 3z" />
    <glyph glyph-name="atilde" unicode="&#xe3;" horiz-adv-x="645" 
d="M35 149q0 135 219 173l106 17q0 30 -5 40.5t-23.5 10.5t-36.5 -16t-34 -16h-170q-22 0 -22 21.5t15.5 46t45 48.5t83 40t119.5 16q134 0 201 -56t67 -160v-287q0 -11 -8 -19t-19 -8h-175q-11 0 -19 8t-8 19v28q-47 -65 -137 -65t-144.5 45.5t-54.5 113.5zM298 138
q65 0 65 78l-59 -13q-44 -10 -44 -37q0 -12 10 -20t28 -8zM482 594q-32 -26 -69.5 -26t-75 18.5t-48 18.5t-16.5 -1.5t-9.5 -2.5t-6.5 -4.5t-5 -4.5q-6 -7 -6 -12q-5 -9 -15 -9h-84q-8 0 -13.5 5.5t-5.5 19t7 36.5t21 47.5t41 40.5t61.5 16t70.5 -18.5t46 -18.5t16.5 1.5
t10.5 5.5q6 4 13 15.5t17 11.5h84q19 0 19 -19q0 -76 -53 -120z" />
    <glyph glyph-name="adieresis" unicode="&#xe4;" horiz-adv-x="645" 
d="M35 149q0 135 219 173l106 17q0 30 -5 40.5t-23.5 10.5t-36.5 -16t-34 -16h-170q-22 0 -22 21.5t15.5 46t45 48.5t83 40t119.5 16q134 0 201 -56t67 -160v-287q0 -11 -8 -19t-19 -8h-175q-11 0 -19 8t-8 19v28q-47 -65 -137 -65t-144.5 45.5t-54.5 113.5zM298 138
q65 0 65 78l-59 -13q-44 -10 -44 -37q0 -12 10 -20t28 -8zM155 736h121q10 0 16.5 -6.5t6.5 -16.5v-121q0 -10 -6.5 -16.5t-16.5 -6.5h-121q-10 0 -16.5 6.5t-6.5 16.5v121q0 10 6.5 16.5t16.5 6.5zM391 736h121q10 0 16.5 -6.5t6.5 -16.5v-121q0 -10 -6.5 -16.5t-16.5 -6.5
h-121q-10 0 -16.5 6.5t-6.5 16.5v121q0 10 6.5 16.5t16.5 6.5z" />
    <glyph glyph-name="aring" unicode="&#xe5;" horiz-adv-x="645" 
d="M35 149q0 135 219 173l106 17q0 30 -5 40.5t-23.5 10.5t-36.5 -16t-34 -16h-170q-22 0 -22 21.5t15.5 46t45 48.5t83 40t119.5 16q134 0 201 -56t67 -160v-287q0 -11 -8 -19t-19 -8h-175q-11 0 -19 8t-8 19v28q-47 -65 -137 -65t-144.5 45.5t-54.5 113.5zM298 138
q65 0 65 78l-59 -13q-44 -10 -44 -37q0 -12 10 -20t28 -8zM317 560q-52 0 -81 26t-29 67.5t29.5 67.5t81 26t81 -26t29.5 -67.5t-29.5 -67.5t-81.5 -26zM317 623q28 0 28 30.5t-28 30.5q-12 0 -20 -8t-8 -22q0 -31 28 -31z" />
    <glyph glyph-name="ae" unicode="&#xe6;" horiz-adv-x="962" 
d="M35 149q0 135 219 173l106 17q0 30 -5 40.5t-23.5 10.5t-36.5 -16t-34 -16h-170q-22 0 -22 21.5t15.5 46t45 48.5t83 40t119.5 16q106 0 157 -37q69 37 153 37q140 0 212.5 -77t72.5 -195v-30q0 -11 -8 -19t-19 -8h-298v-5q0 -61 39 -61q11 0 27 16t35 16h189
q22 0 22 -22q0 -49 -73.5 -102t-197.5 -53t-197 61q-72 -61 -197 -61q-99 0 -156.5 44.5t-57.5 114.5zM298 138q65 0 65 78l-59 -13q-44 -10 -44 -37q0 -12 10 -20t28 -8zM642 390q-40 0 -40 -60v-4h80v4q0 60 -40 60z" />
    <glyph glyph-name="ccedilla" unicode="&#xe7;" horiz-adv-x="638" 
d="M35 237v46q0 116 77.5 181.5t202.5 65.5q74 0 134 -22.5t92.5 -55t49.5 -63.5t17 -47.5t-8 -24.5t-19 -8h-195q-19 0 -29 20q-14 30 -37 30q-40 0 -40 -64v-70q0 -34 9 -49t28 -15t26 6.5t14.5 25t28.5 18.5h195q11 0 19 -8t8 -23t-15 -44t-45.5 -62.5t-89.5 -57.5
t-133 -25l-7 -30q11 6 44.5 6t58.5 -26.5t25 -64.5q0 -72 -60 -95q-30 -11 -60 -11l-62 12q-60 24 -60 65q0 13 13 13h61q12 0 25.5 -8t26.5 -8q29 0 29 24q0 10 -9 17.5t-23.5 7.5t-24.5 -6t-19 -6h-44q-14 0 -14 14q0 4 1 12l17 90q-95 17 -151.5 79.5t-56.5 160.5z" />
    <glyph glyph-name="egrave" unicode="&#xe8;" horiz-adv-x="640" 
d="M578 201h-298v-5q0 -61 39 -61q11 0 27 16t35 16h189q22 0 22 -22q0 -49 -73.5 -102t-199 -53t-205 65.5t-79.5 180.5v48q0 109 81 177.5t212.5 68.5t204 -77t72.5 -195v-30q0 -11 -8 -19t-19 -8zM320 390q-40 0 -40 -60v-4h80v4q0 60 -40 60zM424 585q0 -16 -16 -16
h-130q-30 0 -41 10l-158 125q-5 5 -5 12q0 20 19 20h187q20 0 37 -19l102 -119q5 -5 5 -13z" />
    <glyph glyph-name="eacute" unicode="&#xe9;" horiz-adv-x="640" 
d="M578 201h-298v-5q0 -61 39 -61q11 0 27 16t35 16h189q22 0 22 -22q0 -49 -73.5 -102t-199 -53t-205 65.5t-79.5 180.5v48q0 109 81 177.5t212.5 68.5t204 -77t72.5 -195v-30q0 -11 -8 -19t-19 -8zM320 390q-40 0 -40 -60v-4h80v4q0 60 -40 60zM371 736h187q19 0 19 -20
q0 -7 -5 -12l-158 -125q-11 -10 -41 -10h-130q-16 0 -16 16q0 8 5 13l102 119q17 19 37 19z" />
    <glyph glyph-name="ecircumflex" unicode="&#xea;" horiz-adv-x="640" 
d="M578 201h-298v-5q0 -61 39 -61q11 0 27 16t35 16h189q22 0 22 -22q0 -49 -73.5 -102t-199 -53t-205 65.5t-79.5 180.5v48q0 109 81 177.5t212.5 68.5t204 -77t72.5 -195v-30q0 -11 -8 -19t-19 -8zM320 390q-40 0 -40 -60v-4h80v4q0 60 -40 60zM256 736h130q12 0 18 -3
t19 -16l112 -119q5 -5 5 -13q0 -16 -16 -16h-71q-26 0 -40 7l-92 42l-92 -42q-14 -7 -40 -7h-71q-16 0 -16 16q0 8 5 13l112 119q13 13 19 16t18 3z" />
    <glyph glyph-name="edieresis" unicode="&#xeb;" horiz-adv-x="640" 
d="M578 201h-298v-5q0 -61 39 -61q11 0 27 16t35 16h189q22 0 22 -22q0 -49 -73.5 -102t-199 -53t-205 65.5t-79.5 180.5v48q0 109 81 177.5t212.5 68.5t204 -77t72.5 -195v-30q0 -11 -8 -19t-19 -8zM320 390q-40 0 -40 -60v-4h80v4q0 60 -40 60zM141 736h121
q10 0 16.5 -6.5t6.5 -16.5v-121q0 -10 -6.5 -16.5t-16.5 -6.5h-121q-10 0 -16.5 6.5t-6.5 16.5v121q0 10 6.5 16.5t16.5 6.5zM377 736h121q10 0 16.5 -6.5t6.5 -16.5v-121q0 -10 -6.5 -16.5t-16.5 -6.5h-121q-10 0 -16.5 6.5t-6.5 16.5v121q0 10 6.5 16.5t16.5 6.5z" />
    <glyph glyph-name="igrave" unicode="&#xec;" horiz-adv-x="333" 
d="M256 0h-179q-11 0 -19 8t-8 19v466q0 11 8 19t19 8h179q11 0 19 -8t8 -19v-466q0 -11 -8 -19t-19 -8zM250 585q0 -16 -16 -16h-130q-30 0 -41 10l-158 125q-5 5 -5 12q0 20 19 20h187q20 0 37 -19l102 -119q5 -5 5 -13z" />
    <glyph glyph-name="iacute" unicode="&#xed;" horiz-adv-x="333" 
d="M256 0h-179q-11 0 -19 8t-8 19v466q0 11 8 19t19 8h179q11 0 19 -8t8 -19v-466q0 -11 -8 -19t-19 -8zM216 736h187q19 0 19 -20q0 -7 -5 -12l-158 -125q-11 -10 -41 -10h-130q-16 0 -16 16q0 8 5 13l102 119q17 19 37 19z" />
    <glyph glyph-name="icircumflex" unicode="&#xee;" horiz-adv-x="333" 
d="M256 0h-179q-11 0 -19 8t-8 19v466q0 11 8 19t19 8h179q11 0 19 -8t8 -19v-466q0 -11 -8 -19t-19 -8zM101 736h130q12 0 18 -3t19 -16l112 -119q5 -5 5 -13q0 -16 -16 -16h-71q-26 0 -40 7l-92 42l-92 -42q-14 -7 -40 -7h-71q-16 0 -16 16q0 8 5 13l112 119q13 13 19 16
t18 3z" />
    <glyph glyph-name="idieresis" unicode="&#xef;" horiz-adv-x="333" 
d="M256 0h-179q-11 0 -19 8t-8 19v466q0 11 8 19t19 8h179q11 0 19 -8t8 -19v-466q0 -11 -8 -19t-19 -8zM-12 736h121q10 0 16.5 -6.5t6.5 -16.5v-121q0 -10 -6.5 -16.5t-16.5 -6.5h-121q-10 0 -16.5 6.5t-6.5 16.5v121q0 10 6.5 16.5t16.5 6.5zM224 736h121q10 0 16.5 -6.5
t6.5 -16.5v-121q0 -10 -6.5 -16.5t-16.5 -6.5h-121q-10 0 -16.5 6.5t-6.5 16.5v121q0 10 6.5 16.5t16.5 6.5z" />
    <glyph glyph-name="eth" unicode="&#xf0;" horiz-adv-x="655" 
d="M165 659q-13 9 -13 18.5t6.5 16t15.5 6.5h188q34 0 49 -10.5t37 -28.5h1l89 35q8 3 14 3t12 -6t6 -15v-28q0 -25 -22 -33l-39 -15q106 -126 106 -314v-62q0 -115 -78 -175.5t-212 -60.5t-212 60.5t-78 175.5v8q0 114 81 175t209 61h14q-12 27 -30 54l-118 -46
q-8 -3 -14 -3t-12 6t-6 15v28q0 25 22 33l74 29q-36 36 -90 73zM370 218v35q-1 31 -11.5 44t-34.5 13t-34 -15t-10 -53v-24q0 -40 10 -54t35 -14t35 15t10 53z" />
    <glyph glyph-name="ntilde" unicode="&#xf1;" horiz-adv-x="684" 
d="M639 303v-276q0 -11 -8 -19t-19 -8h-191q-11 0 -19 8t-8 19v269q0 55 -50 55t-50 -55v-269q0 -11 -8 -19t-19 -8h-190q-11 0 -19 8t-8 19v466q0 11 8 19t19 8h175q11 0 19 -8t8 -19v-33q26 31 70.5 50.5t95.5 19.5q82 0 138 -57.5t56 -169.5zM492 594q-32 -26 -69 -26
t-75 18.5t-48.5 18.5t-16.5 -1.5t-9.5 -2.5t-6.5 -4.5t-5 -4.5q-6 -7 -6 -12q-5 -9 -15 -9h-84q-8 0 -13.5 5.5t-5.5 19t7 36.5t21 47.5t41 40.5t61.5 16t70.5 -18.5t46 -18.5t16.5 1.5t10.5 5.5q6 4 13 15.5t17 11.5h84q19 0 19 -19q0 -76 -53 -120z" />
    <glyph glyph-name="ograve" unicode="&#xf2;" horiz-adv-x="650" 
d="M35 226v68q0 114 81 175t209 61t209 -61t81 -175v-68q0 -115 -78 -175.5t-212 -60.5t-212 60.5t-78 175.5zM370 218v84q0 38 -10 53t-35 15t-35 -15t-10 -53v-84q0 -40 10 -54t35 -14t35 15t10 53zM425 585q0 -16 -16 -16h-130q-30 0 -41 10l-158 125q-5 5 -5 12
q0 20 19 20h187q20 0 37 -19l102 -119q5 -5 5 -13z" />
    <glyph glyph-name="oacute" unicode="&#xf3;" horiz-adv-x="650" 
d="M35 294q0 114 81 175t209 61t209 -61t81 -175v-68q0 -115 -78 -175.5t-212 -60.5t-212 60.5t-78 175.5v68zM370 302q0 38 -10 53t-35 15t-35 -15t-10 -53v-84q0 -40 10 -54t35 -14t35 15t10 53v84zM379 736h187q19 0 19 -20q0 -7 -5 -12l-158 -125q-11 -10 -41 -10h-130
q-16 0 -16 16q0 8 5 13l102 119q17 19 37 19z" />
    <glyph glyph-name="ocircumflex" unicode="&#xf4;" horiz-adv-x="650" 
d="M35 226v68q0 114 81 175t209 61t209 -61t81 -175v-68q0 -115 -78 -175.5t-212 -60.5t-212 60.5t-78 175.5zM370 218v84q0 38 -10 53t-35 15t-35 -15t-10 -53v-84q0 -40 10 -54t35 -14t35 15t10 53zM260 736h130q12 0 18 -3t19 -16l112 -119q5 -5 5 -13q0 -16 -16 -16h-71
q-26 0 -40 7l-92 42l-92 -42q-14 -7 -40 -7h-71q-16 0 -16 16q0 8 5 13l112 119q13 13 19 16t18 3z" />
    <glyph glyph-name="otilde" unicode="&#xf5;" horiz-adv-x="650" 
d="M35 294q0 114 81 175t209 61t209 -61t81 -175v-68q0 -115 -78 -175.5t-212 -60.5t-212 60.5t-78 175.5v68zM370 302q0 38 -10 53t-35 15t-35 -15t-10 -53v-84q0 -40 10 -54t35 -14t35 15t10 53v84zM474 594q-31 -26 -68.5 -26t-75.5 18.5t-48 18.5t-16 -1.5t-9.5 -2.5
t-6.5 -4.5t-4 -4.5q-7 -7 -7 -12q-5 -9 -15 -9h-84q-8 0 -13.5 5.5t-5.5 19t7 36.5t21 47.5t41 40.5t61.5 16t70.5 -18.5t46 -18.5t16.5 1.5t11.5 5.5t12 15.5t17 11.5h84q19 0 19 -19q0 -76 -54 -120z" />
    <glyph glyph-name="odieresis" unicode="&#xf6;" horiz-adv-x="650" 
d="M35 294q0 114 81 175t209 61t209 -61t81 -175v-68q0 -115 -78 -175.5t-212 -60.5t-212 60.5t-78 175.5v68zM370 302q0 38 -10 53t-35 15t-35 -15t-10 -53v-84q0 -40 10 -54t35 -14t35 15t10 53v84zM147 736h121q10 0 16.5 -6.5t6.5 -16.5v-121q0 -10 -6.5 -16.5
t-16.5 -6.5h-121q-10 0 -16.5 6.5t-6.5 16.5v121q0 10 6.5 16.5t16.5 6.5zM383 736h121q10 0 16.5 -6.5t6.5 -16.5v-121q0 -10 -6.5 -16.5t-16.5 -6.5h-121q-10 0 -16.5 6.5t-6.5 16.5v121q0 10 6.5 16.5t16.5 6.5z" />
    <glyph glyph-name="divide" unicode="&#xf7;" horiz-adv-x="607" 
d="M67 425h473q11 0 19 -8t8 -19v-122q0 -11 -8 -19t-19 -8h-473q-11 0 -19 8t-8 19v122q0 11 8 19t19 8zM240 636h124q11 0 19 -8t8 -19v-114q0 -11 -8 -19t-19 -8h-124q-11 0 -19 8t-8 19v114q0 11 8 19t19 8zM240 206h124q11 0 19 -8t8 -19v-114q0 -11 -8 -19t-19 -8
h-124q-11 0 -19 8t-8 19v114q0 11 8 19t19 8z" />
    <glyph glyph-name="oslash" unicode="&#xf8;" horiz-adv-x="650" 
d="M614 315l1 -21v-68q0 -115 -78 -175.5t-212 -60.5q-190 0 -259 113l-34 -13q-8 -3 -14 -3t-12 6t-6 15v68q0 25 22 33l13 5v80q0 114 81 175t209 61q176 0 252 -106l41 16q8 3 14 3t12 -6t6 -15v-68q0 -25 -22 -33zM295 158q10 -8 32.5 -8t32.5 15t10 53v3l-88 -34
q3 -21 13 -29zM366 342q-8 28 -36.5 28t-38.5 -13.5t-11 -47.5z" />
    <glyph glyph-name="ugrave" unicode="&#xf9;" horiz-adv-x="684" 
d="M45 217v276q0 11 8 19t19 8h191q11 0 19 -8t8 -19v-269q0 -55 50 -55t50 55v269q0 11 8 19t19 8h190q11 0 19 -8t8 -19v-466q0 -11 -8 -19t-19 -8h-175q-11 0 -19 8t-8 19v33q-47 -70 -166 -70q-82 0 -138 57.5t-56 169.5zM436 585q0 -16 -16 -16h-130q-30 0 -41 10
l-158 125q-5 5 -5 12q0 20 19 20h187q20 0 37 -19l102 -119q5 -5 5 -13z" />
    <glyph glyph-name="uacute" unicode="&#xfa;" horiz-adv-x="684" 
d="M45 217v276q0 11 8 19t19 8h191q11 0 19 -8t8 -19v-269q0 -55 50 -55t50 55v269q0 11 8 19t19 8h190q11 0 19 -8t8 -19v-466q0 -11 -8 -19t-19 -8h-175q-11 0 -19 8t-8 19v33q-47 -70 -166 -70q-82 0 -138 57.5t-56 169.5zM400 736h187q19 0 19 -20q0 -7 -5 -12
l-158 -125q-11 -10 -41 -10h-130q-16 0 -16 16q0 8 5 13l102 119q17 19 37 19z" />
    <glyph glyph-name="ucircumflex" unicode="&#xfb;" horiz-adv-x="684" 
d="M45 217v276q0 11 8 19t19 8h191q11 0 19 -8t8 -19v-269q0 -55 50 -55t50 55v269q0 11 8 19t19 8h190q11 0 19 -8t8 -19v-466q0 -11 -8 -19t-19 -8h-175q-11 0 -19 8t-8 19v33q-47 -70 -166 -70q-82 0 -138 57.5t-56 169.5zM275 736h130q12 0 18 -3t19 -16l112 -119
q5 -5 5 -13q0 -16 -16 -16h-71q-26 0 -40 7l-92 42l-92 -42q-14 -7 -40 -7h-71q-16 0 -16 16q0 8 5 13l112 119q13 13 19 16t18 3z" />
    <glyph glyph-name="udieresis" unicode="&#xfc;" horiz-adv-x="684" 
d="M45 217v276q0 11 8 19t19 8h191q11 0 19 -8t8 -19v-269q0 -55 50 -55t50 55v269q0 11 8 19t19 8h190q11 0 19 -8t8 -19v-466q0 -11 -8 -19t-19 -8h-175q-11 0 -19 8t-8 19v33q-47 -70 -166 -70q-82 0 -138 57.5t-56 169.5zM161 736h121q10 0 16.5 -6.5t6.5 -16.5v-121
q0 -10 -6.5 -16.5t-16.5 -6.5h-121q-10 0 -16.5 6.5t-6.5 16.5v121q0 10 6.5 16.5t16.5 6.5zM397 736h121q10 0 16.5 -6.5t6.5 -16.5v-121q0 -10 -6.5 -16.5t-16.5 -6.5h-121q-10 0 -16.5 6.5t-6.5 16.5v121q0 10 6.5 16.5t16.5 6.5z" />
    <glyph glyph-name="yacute" unicode="&#xfd;" horiz-adv-x="642" 
d="M129 -159l80 192l-193 456q-1 3 -1 7q4 24 25 24h169q23 0 32 -24l82 -228l85 228q10 24 34 24h167q9 0 16 -6.5t7 -13.5t-1 -11l-282 -655q-10 -24 -35 -24h-164q-9 0 -15.5 6t-6.5 14.5t1 10.5zM370 736h187q19 0 19 -20q0 -7 -5 -12l-158 -125q-11 -10 -41 -10h-130
q-16 0 -16 16q0 8 5 13l102 119q17 19 37 19z" />
    <glyph glyph-name="thorn" unicode="&#xfe;" horiz-adv-x="669" 
d="M634 299v-79q0 -112 -60 -171t-146.5 -59t-138.5 47v-200q0 -11 -8 -19t-19 -8h-185q-11 0 -19 8t-8 19v845q0 11 8 19t19 8h185q11 0 19 -8t8 -19v-202q56 50 141.5 50t144.5 -56.5t59 -174.5zM289 293v-74q3 -50 50 -50q50 0 50 58v66q0 58 -50 58t-50 -58z" />
    <glyph glyph-name="ydieresis" unicode="&#xff;" horiz-adv-x="642" 
d="M129 -159l80 192l-193 456q-1 3 -1 7q4 24 25 24h169q23 0 32 -24l82 -228l85 228q10 24 34 24h167q9 0 16 -6.5t7 -13.5t-1 -11l-282 -655q-10 -24 -35 -24h-164q-9 0 -15.5 6t-6.5 14.5t1 10.5zM144 736h121q10 0 16.5 -6.5t6.5 -16.5v-121q0 -10 -6.5 -16.5
t-16.5 -6.5h-121q-10 0 -16.5 6.5t-6.5 16.5v121q0 10 6.5 16.5t16.5 6.5zM380 736h121q10 0 16.5 -6.5t6.5 -16.5v-121q0 -10 -6.5 -16.5t-16.5 -6.5h-121q-10 0 -16.5 6.5t-6.5 16.5v121q0 10 6.5 16.5t16.5 6.5z" />
    <glyph glyph-name="Amacron" unicode="&#x100;" horiz-adv-x="785" 
d="M284 700h217q36 0 45 -33l223 -638q1 -3 1 -9.5t-6.5 -13t-15.5 -6.5h-185q-30 0 -39 25l-24 66h-215l-24 -66q-9 -25 -39 -25h-185q-9 0 -15.5 6.5t-6.5 13t1 9.5l223 638q9 33 45 33zM336 286h113l-57 186zM204 917h377q10 0 16.5 -6.5t6.5 -16.5v-116
q0 -10 -6.5 -16.5t-16.5 -6.5h-377q-10 0 -16.5 6.5t-6.5 16.5v116q0 10 6.5 16.5t16.5 6.5z" />
    <glyph glyph-name="amacron" unicode="&#x101;" horiz-adv-x="645" 
d="M35 149q0 135 219 173l106 17q0 30 -5 40.5t-23.5 10.5t-36.5 -16t-34 -16h-170q-22 0 -22 21.5t15.5 46t45 48.5t83 40t119.5 16q134 0 201 -56t67 -160v-287q0 -11 -8 -19t-19 -8h-175q-11 0 -19 8t-8 19v28q-47 -65 -137 -65t-144.5 45.5t-54.5 113.5zM298 138
q65 0 65 78l-59 -13q-44 -10 -44 -37q0 -12 10 -20t28 -8zM166 726h327q10 0 16.5 -6.5t6.5 -16.5v-101q0 -10 -6.5 -16.5t-16.5 -6.5h-327q-10 0 -16.5 6.5t-6.5 16.5v101q0 10 6.5 16.5t16.5 6.5z" />
    <glyph glyph-name="Abreve" unicode="&#x102;" horiz-adv-x="785" 
d="M284 700h217q36 0 45 -33l223 -638q1 -3 1 -9.5t-6.5 -13t-15.5 -6.5h-185q-30 0 -39 25l-24 66h-215l-24 -66q-9 -25 -39 -25h-185q-9 0 -15.5 6.5t-6.5 13t1 9.5l223 638q9 33 45 33zM336 286h113l-57 186zM433 906q0 19 19 19h99q19 0 19 -19q0 -71 -45 -113.5
t-132.5 -42.5t-132.5 43t-45 113q0 19 19 19h99q19 0 19 -19q0 -55 40.5 -55t40.5 55z" />
    <glyph glyph-name="abreve" unicode="&#x103;" horiz-adv-x="645" 
d="M35 149q0 135 219 173l106 17q0 30 -5 40.5t-23.5 10.5t-36.5 -16t-34 -16h-170q-22 0 -22 21.5t15.5 46t45 48.5t83 40t119.5 16q134 0 201 -56t67 -160v-287q0 -11 -8 -19t-19 -8h-175q-11 0 -19 8t-8 19v28q-47 -65 -137 -65t-144.5 45.5t-54.5 113.5zM298 138
q65 0 65 78l-59 -13q-44 -10 -44 -37q0 -12 10 -20t28 -8zM373 714q0 19 19 19h94q19 0 19 -19q0 -68 -45.5 -107t-127.5 -39t-127 39t-45 107q0 19 19 19h94q19 0 19 -19q0 -50 40.5 -50t40.5 50z" />
    <glyph glyph-name="Aogonek" unicode="&#x104;" horiz-adv-x="785" 
d="M284 700h217q36 0 45 -33l223 -638q1 -3 1 -9.5t-6.5 -13t-15.5 -6.5h-31q-23 -1 -33.5 -16.5t-10.5 -34t12 -34t38 -15.5h10q11 0 19 -8t8 -19v-68q0 -11 -8 -19t-19 -8h-14q-86 0 -129 48t-43 124q0 25 5 50q-22 4 -28 25l-24 66h-215l-24 -66q-9 -25 -39 -25h-185
q-9 0 -15.5 6.5t-6.5 13t1 9.5l223 638q9 33 45 33zM336 286h113l-57 186z" />
    <glyph glyph-name="aogonek" unicode="&#x105;" horiz-adv-x="645" 
d="M573 -80q11 0 19 -8t8 -19v-58q0 -11 -8 -19t-19 -8h-14q-80 0 -121 42.5t-41 109.5q0 24 4 40h-3q-11 0 -19 8t-8 19v28q-47 -65 -137 -65t-144.5 45.5t-54.5 113.5q0 135 219 173l106 17q0 30 -5 40.5t-23.5 10.5t-36.5 -16t-34 -16h-170q-22 0 -22 21.5t15.5 46
t45 48.5t83 40t119.5 16q134 0 201 -56t67 -160v-287q0 -11 -8 -19t-19 -8h-10q-50 0 -50 -40t50 -40h10zM298 138q65 0 65 78l-59 -13q-44 -10 -44 -37q0 -12 10 -20t28 -8z" />
    <glyph glyph-name="Cacute" unicode="&#x106;" horiz-adv-x="747" 
d="M305 266q0 -81 74 -81q57 0 75 54q5 17 12.5 23t24.5 6h204q9 0 15.5 -6.5t6.5 -15.5q0 -87 -50 -146q-92 -110 -287 -110q-153 0 -244 67.5t-91 207.5v170q0 137 93 206t242 69q195 0 287 -110q50 -59 50 -146q0 -9 -6.5 -15.5t-15.5 -6.5h-204q-16 0 -23.5 6t-13.5 23
q-19 54 -75 54q-74 0 -74 -81v-168zM403 922h197q19 0 19 -20q0 -7 -5 -12l-158 -130q-11 -10 -41 -10h-140q-16 0 -16 16q0 8 5 13l102 124q17 19 37 19z" />
    <glyph glyph-name="cacute" unicode="&#x107;" horiz-adv-x="638" 
d="M280 295v-70q0 -34 9 -49t28 -15t26 6.5t14.5 25t28.5 18.5h195q11 0 19 -8t8 -21t-9 -35t-31 -50t-54 -51.5t-84 -39.5t-115 -16q-125 0 -202.5 65.5t-77.5 181.5v46q0 116 77.5 181.5t202.5 65.5q74 0 134 -22.5t92.5 -55t49.5 -63.5t17 -47.5t-8 -24.5t-19 -8h-195
q-19 0 -29 20q-14 30 -37 30q-40 0 -40 -64zM355 736h187q19 0 19 -20q0 -7 -5 -12l-158 -125q-11 -10 -41 -10h-130q-16 0 -16 16q0 8 5 13l102 119q17 19 37 19z" />
    <glyph glyph-name="Ccircumflex" unicode="&#x108;" horiz-adv-x="747" 
d="M305 434v-168q0 -81 74 -81q57 0 75 54q5 17 12.5 23t24.5 6h204q9 0 15.5 -6.5t6.5 -15.5q0 -87 -50 -146q-92 -110 -287 -110q-153 0 -244 67.5t-91 207.5v170q0 137 93 206t242 69q195 0 287 -110q50 -59 50 -146q0 -9 -6.5 -15.5t-15.5 -6.5h-204q-16 0 -23.5 6
t-13.5 23q-19 54 -75 54q-74 0 -74 -81zM315 922h130q11 0 16 -3t21 -16l117 -124q5 -5 5 -13q0 -16 -16 -16h-71q-19 0 -40 7l-97 42l-97 -42q-21 -7 -40 -7h-71q-16 0 -16 16q0 8 5 13l117 124q16 13 21 16t16 3z" />
    <glyph glyph-name="ccircumflex" unicode="&#x109;" horiz-adv-x="638" 
d="M280 295v-70q0 -34 9 -49t28 -15t26 6.5t14.5 25t28.5 18.5h195q11 0 19 -8t8 -21t-9 -35t-31 -50t-54 -51.5t-84 -39.5t-115 -16q-125 0 -202.5 65.5t-77.5 181.5v46q0 116 77.5 181.5t202.5 65.5q74 0 134 -22.5t92.5 -55t49.5 -63.5t17 -47.5t-8 -24.5t-19 -8h-195
q-19 0 -29 20q-14 30 -37 30q-40 0 -40 -64zM255 736h130q12 0 18 -3t19 -16l112 -119q5 -5 5 -13q0 -16 -16 -16h-71q-26 0 -40 7l-92 42l-92 -42q-14 -7 -40 -7h-71q-16 0 -16 16q0 8 5 13l112 119q13 13 19 16t18 3z" />
    <glyph glyph-name="Cdotaccent" unicode="&#x10a;" horiz-adv-x="747" 
d="M305 266q0 -81 74 -81q57 0 75 54q5 17 12.5 23t24.5 6h204q9 0 15.5 -6.5t6.5 -15.5q0 -87 -50 -146q-92 -110 -287 -110q-153 0 -244 67.5t-91 207.5v170q0 137 93 206t242 69q195 0 287 -110q50 -59 50 -146q0 -9 -6.5 -15.5t-15.5 -6.5h-204q-16 0 -23.5 6t-13.5 23
q-19 54 -75 54q-74 0 -74 -81v-168zM309 922h136q10 0 16.5 -6.5t6.5 -16.5v-136q0 -10 -6.5 -16.5t-16.5 -6.5h-136q-10 0 -16.5 6.5t-6.5 16.5v136q0 10 6.5 16.5t16.5 6.5z" />
    <glyph glyph-name="cdotaccent" unicode="&#x10b;" horiz-adv-x="638" 
d="M280 295v-70q0 -34 9 -49t28 -15t26 6.5t14.5 25t28.5 18.5h195q11 0 19 -8t8 -21t-9 -35t-31 -50t-54 -51.5t-84 -39.5t-115 -16q-125 0 -202.5 65.5t-77.5 181.5v46q0 116 77.5 181.5t202.5 65.5q74 0 134 -22.5t92.5 -55t49.5 -63.5t17 -47.5t-8 -24.5t-19 -8h-195
q-19 0 -29 20q-14 30 -37 30q-40 0 -40 -64zM253 736h131q10 0 16.5 -6.5t6.5 -16.5v-131q0 -10 -6.5 -16.5t-16.5 -6.5h-131q-10 0 -16.5 6.5t-6.5 16.5v131q0 10 6.5 16.5t16.5 6.5z" />
    <glyph glyph-name="Ccaron" unicode="&#x10c;" horiz-adv-x="747" 
d="M305 266q0 -81 74 -81q57 0 75 54q5 17 12.5 23t24.5 6h204q9 0 15.5 -6.5t6.5 -15.5q0 -87 -50 -146q-92 -110 -287 -110q-153 0 -244 67.5t-91 207.5v170q0 137 93 206t242 69q195 0 287 -110q50 -59 50 -146q0 -9 -6.5 -15.5t-15.5 -6.5h-204q-16 0 -23.5 6t-13.5 23
q-19 54 -75 54q-74 0 -74 -81v-168zM443 750h-130q-11 0 -16 3t-21 16l-117 124q-5 5 -5 13q0 16 16 16h71q19 0 40 -7l97 -42l97 42q21 7 40 7h71q16 0 16 -16q0 -8 -5 -13l-117 -124q-16 -13 -21 -16t-16 -3z" />
    <glyph glyph-name="ccaron" unicode="&#x10d;" horiz-adv-x="638" 
d="M280 295v-70q0 -34 9 -49t28 -15t26 6.5t14.5 25t28.5 18.5h195q11 0 19 -8t8 -21t-9 -35t-31 -50t-54 -51.5t-84 -39.5t-115 -16q-125 0 -202.5 65.5t-77.5 181.5v46q0 116 77.5 181.5t202.5 65.5q74 0 134 -22.5t92.5 -55t49.5 -63.5t17 -47.5t-8 -24.5t-19 -8h-195
q-19 0 -29 20q-14 30 -37 30q-40 0 -40 -64zM385 570h-130q-11 0 -16 3t-21 16l-117 124q-5 5 -5 13q0 16 16 16h71q19 0 40 -7l97 -42l97 42q21 7 40 7h71q16 0 16 -16q0 -8 -5 -13l-117 -124q-16 -13 -21 -16t-16 -3z" />
    <glyph glyph-name="Dcaron" unicode="&#x10e;" horiz-adv-x="760" 
d="M92 700h288q146 0 240.5 -72.5t94.5 -202.5v-149q0 -136 -92 -206t-242 -70h-289q-11 0 -19 8t-8 19v646q0 11 8 19t19 8zM315 505v-310h65q34 0 54.5 20.5t20.5 60.5v149q0 80 -75 80h-65zM435 750h-130q-11 0 -16 3t-21 16l-117 124q-5 5 -5 13q0 16 16 16h71
q19 0 40 -7l97 -42l97 42q21 7 40 7h71q16 0 16 -16q0 -8 -5 -13l-117 -124q-16 -13 -21 -16t-16 -3z" />
    <glyph glyph-name="dcaron" unicode="&#x10f;" horiz-adv-x="929" 
d="M35 221v79q0 112 60 171t146.5 59t138.5 -47v200q0 11 8 19t19 8h185q11 0 19 -8t8 -19v-656q0 -11 -8 -19t-19 -8h-170q-11 0 -19 8t-8 19v30q-52 -67 -147 -67t-154 56.5t-59 174.5zM380 227v74q-3 50 -50 50q-50 0 -50 -58v-66q0 -58 50 -58t50 58zM797 520h-107
q-19 0 -19 19q0 5 5 15l65 136q9 20 42 20h130q16 0 16 -16q0 -8 -5 -15l-90 -140q-12 -19 -37 -19z" />
    <glyph glyph-name="Dcroat" unicode="&#x110;" horiz-adv-x="760" 
d="M92 700h288q146 0 240.5 -72.5t94.5 -202.5v-149q0 -136 -92 -206t-242 -70h-289q-11 0 -19 8t-8 19v247h-38q-11 0 -19 8t-8 19v101q0 11 8 19t19 8h38v244q0 11 8 19t19 8zM315 505v-76h56q11 0 19 -8t8 -19v-101q0 -11 -8 -19t-19 -8h-56v-79h65q34 0 54.5 20.5
t20.5 60.5v149q0 80 -75 80h-65z" />
    <glyph glyph-name="dcroat" unicode="&#x111;" horiz-adv-x="669" 
d="M35 221v79q0 112 60 171t146.5 59t138.5 -47v55h-30q-11 0 -19 8t-8 19v51q0 11 8 19t19 8h30v40q0 11 8 19t19 8h185q11 0 19 -8t8 -19v-40h30q11 0 19 -8t8 -19v-51q0 -11 -8 -19t-19 -8h-30v-511q0 -11 -8 -19t-19 -8h-170q-11 0 -19 8t-8 19v30q-52 -67 -147 -67
t-154 56.5t-59 174.5zM380 227v74q-3 50 -50 50q-50 0 -50 -58v-66q0 -58 50 -58t50 58z" />
    <glyph glyph-name="Emacron" unicode="&#x112;" horiz-adv-x="695" 
d="M613 195q11 0 19 -8t8 -19v-141q0 -11 -8 -19t-19 -8h-521q-11 0 -19 8t-8 19v646q0 11 8 19t19 8h513q11 0 19 -8t8 -19v-141q0 -11 -8 -19t-19 -8h-300v-63h278q11 0 19 -8t8 -19v-130q0 -11 -8 -19t-19 -8h-278v-63h308zM153 917h377q10 0 16.5 -6.5t6.5 -16.5v-116
q0 -10 -6.5 -16.5t-16.5 -6.5h-377q-10 0 -16.5 6.5t-6.5 16.5v116q0 10 6.5 16.5t16.5 6.5z" />
    <glyph glyph-name="emacron" unicode="&#x113;" horiz-adv-x="640" 
d="M578 201h-298v-5q0 -61 39 -61q11 0 27 16t35 16h189q22 0 22 -22q0 -49 -73.5 -102t-199 -53t-205 65.5t-79.5 180.5v48q0 109 81 177.5t212.5 68.5t204 -77t72.5 -195v-30q0 -11 -8 -19t-19 -8zM320 390q-40 0 -40 -60v-4h80v4q0 60 -40 60zM156 726h327
q10 0 16.5 -6.5t6.5 -16.5v-101q0 -10 -6.5 -16.5t-16.5 -6.5h-327q-10 0 -16.5 6.5t-6.5 16.5v101q0 10 6.5 16.5t16.5 6.5z" />
    <glyph glyph-name="Ebreve" unicode="&#x114;" horiz-adv-x="695" 
d="M305 195h308q11 0 19 -8t8 -19v-141q0 -11 -8 -19t-19 -8h-521q-11 0 -19 8t-8 19v646q0 11 8 19t19 8h513q11 0 19 -8t8 -19v-141q0 -11 -8 -19t-19 -8h-300v-63h278q11 0 19 -8t8 -19v-130q0 -11 -8 -19t-19 -8h-278v-63zM393 906q0 19 19 19h99q19 0 19 -19
q0 -71 -45 -113.5t-132.5 -42.5t-132.5 43t-45 113q0 19 19 19h99q19 0 19 -19q0 -55 40.5 -55t40.5 55z" />
    <glyph glyph-name="ebreve" unicode="&#x115;" horiz-adv-x="640" 
d="M578 201h-298v-5q0 -61 39 -61q11 0 27 16t35 16h189q22 0 22 -22q0 -49 -73.5 -102t-199 -53t-205 65.5t-79.5 180.5v48q0 109 81 177.5t212.5 68.5t204 -77t72.5 -195v-30q0 -11 -8 -19t-19 -8zM320 390q-40 0 -40 -60v-4h80v4q0 60 -40 60zM360 714q0 19 19 19h94
q19 0 19 -19q0 -68 -45.5 -107t-127.5 -39t-127 39t-45 107q0 19 19 19h94q19 0 19 -19q0 -50 40.5 -50t40.5 50z" />
    <glyph glyph-name="Edotaccent" unicode="&#x116;" horiz-adv-x="695" 
d="M613 195q11 0 19 -8t8 -19v-141q0 -11 -8 -19t-19 -8h-521q-11 0 -19 8t-8 19v646q0 11 8 19t19 8h513q11 0 19 -8t8 -19v-141q0 -11 -8 -19t-19 -8h-300v-63h278q11 0 19 -8t8 -19v-130q0 -11 -8 -19t-19 -8h-278v-63h308zM281 922h136q10 0 16.5 -6.5t6.5 -16.5v-136
q0 -10 -6.5 -16.5t-16.5 -6.5h-136q-10 0 -16.5 6.5t-6.5 16.5v136q0 10 6.5 16.5t16.5 6.5z" />
    <glyph glyph-name="edotaccent" unicode="&#x117;" horiz-adv-x="640" 
d="M578 201h-298v-5q0 -61 39 -61q11 0 27 16t35 16h189q22 0 22 -22q0 -49 -73.5 -102t-199 -53t-205 65.5t-79.5 180.5v48q0 109 81 177.5t212.5 68.5t204 -77t72.5 -195v-30q0 -11 -8 -19t-19 -8zM320 390q-40 0 -40 -60v-4h80v4q0 60 -40 60zM255 736h131
q10 0 16.5 -6.5t6.5 -16.5v-131q0 -10 -6.5 -16.5t-16.5 -6.5h-131q-10 0 -16.5 6.5t-6.5 16.5v131q0 10 6.5 16.5t16.5 6.5z" />
    <glyph glyph-name="Eogonek" unicode="&#x118;" horiz-adv-x="695" 
d="M603 -100h10q11 0 19 -8t8 -19v-68q0 -11 -8 -19t-19 -8h-14q-86 0 -129 48t-43 124q0 23 5 50h-340q-11 0 -19 8t-8 19v646q0 11 8 19t19 8h513q11 0 19 -8t8 -19v-141q0 -11 -8 -19t-19 -8h-300v-63h278q11 0 19 -8t8 -19v-130q0 -11 -8 -19t-19 -8h-278v-63h308
q11 0 19 -8t8 -19v-141q0 -11 -8 -19t-19 -8h-10q-26 0 -38 -15.5t-12 -34.5t12 -34.5t38 -15.5z" />
    <glyph glyph-name="eogonek" unicode="&#x119;" horiz-adv-x="640" 
d="M321 -90q11 0 19 -8t8 -19v-58q0 -11 -8 -19t-19 -8h-14q-80 0 -121 42.5t-41 109.5q0 43 16 75q-126 63 -126 211v48q0 109 81 177.5t212.5 68.5t204 -77t72.5 -195v-30q0 -11 -8 -19t-19 -8h-298v-5q0 -61 39 -61q11 0 27 16t35 16h189q22 0 22 -22q0 -48 -72.5 -101
t-195.5 -54h-13q-50 0 -50 -40t50 -40h10zM320 390q-40 0 -40 -60v-4h80v4q0 60 -40 60z" />
    <glyph glyph-name="Ecaron" unicode="&#x11a;" horiz-adv-x="695" 
d="M613 195q11 0 19 -8t8 -19v-141q0 -11 -8 -19t-19 -8h-521q-11 0 -19 8t-8 19v646q0 11 8 19t19 8h513q11 0 19 -8t8 -19v-141q0 -11 -8 -19t-19 -8h-300v-63h278q11 0 19 -8t8 -19v-130q0 -11 -8 -19t-19 -8h-278v-63h308zM430 750h-130q-11 0 -16 3t-21 16l-117 124
q-5 5 -5 13q0 16 16 16h71q19 0 40 -7l97 -42l97 42q21 7 40 7h71q16 0 16 -16q0 -8 -5 -13l-117 -124q-16 -13 -21 -16t-16 -3z" />
    <glyph glyph-name="ecaron" unicode="&#x11b;" horiz-adv-x="640" 
d="M578 201h-298v-5q0 -61 39 -61q11 0 27 16t35 16h189q22 0 22 -22q0 -49 -73.5 -102t-199 -53t-205 65.5t-79.5 180.5v48q0 109 81 177.5t212.5 68.5t204 -77t72.5 -195v-30q0 -11 -8 -19t-19 -8zM320 390q-40 0 -40 -60v-4h80v4q0 60 -40 60zM385 570h-130q-11 0 -16 3
t-21 16l-117 124q-5 5 -5 13q0 16 16 16h71q19 0 40 -7l97 -42l97 42q21 7 40 7h71q16 0 16 -16q0 -8 -5 -13l-117 -124q-16 -13 -21 -16t-16 -3z" />
    <glyph glyph-name="Gcircumflex" unicode="&#x11c;" horiz-adv-x="771" 
d="M424 422h275q11 0 19 -8t8 -19v-130q0 -132 -94 -203.5t-250.5 -71.5t-246.5 69.5t-90 208.5v168q0 133 92 203.5t245.5 70.5t248.5 -64.5t95 -158.5q0 -9 -6.5 -15.5t-15.5 -6.5h-221q-20 0 -29 11q-20 26 -30 30q-23 9 -42 9q-77 0 -77 -75v-170q0 -85 82 -85
q84 0 84 72h-47q-11 0 -19 8t-8 19v111q0 11 8 19t19 8zM328 922h130q11 0 16 -3t21 -16l117 -124q5 -5 5 -13q0 -16 -16 -16h-71q-19 0 -40 7l-97 42l-97 -42q-21 -7 -40 -7h-71q-16 0 -16 16q0 8 5 13l117 124q16 13 21 16t16 3z" />
    <glyph glyph-name="gcircumflex" unicode="&#x11d;" horiz-adv-x="675" 
d="M35 249v51q0 112 60 171t153 59t147 -68v31q0 11 8 19t19 8h175q11 0 19 -8t8 -19l1 -476q0 -120 -78 -178.5t-205 -58.5q-79 0 -141 21.5t-93 52.5q-63 62 -63 105q0 11 8 19t19 8h195q18 0 29.5 -22.5t40.5 -22.5q43 0 43 54v71q-49 -43 -138.5 -43t-148 54t-58.5 172z
M330 197q47 0 50 50v54q-3 50 -50 50q-50 0 -50 -58v-38q0 -58 50 -58zM292 736h130q12 0 18 -3t19 -16l112 -119q5 -5 5 -13q0 -16 -16 -16h-71q-26 0 -40 7l-92 42l-92 -42q-14 -7 -40 -7h-71q-16 0 -16 16q0 8 5 13l112 119q13 13 19 16t18 3z" />
    <glyph glyph-name="Gbreve" unicode="&#x11e;" horiz-adv-x="771" 
d="M424 422h275q11 0 19 -8t8 -19v-130q0 -132 -94 -203.5t-250.5 -71.5t-246.5 69.5t-90 208.5v168q0 133 92 203.5t245.5 70.5t248.5 -64.5t95 -158.5q0 -9 -6.5 -15.5t-15.5 -6.5h-221q-20 0 -29 11q-20 26 -30 30q-23 9 -42 9q-77 0 -77 -75v-170q0 -85 82 -85
q84 0 84 72h-47q-11 0 -19 8t-8 19v111q0 11 8 19t19 8zM420 906q0 19 19 19h99q19 0 19 -19q0 -71 -45 -113.5t-132.5 -42.5t-132.5 43t-45 113q0 19 19 19h99q19 0 19 -19q0 -55 40.5 -55t40.5 55z" />
    <glyph glyph-name="gbreve" unicode="&#x11f;" horiz-adv-x="675" 
d="M35 249v51q0 112 60 171t153 59t147 -68v31q0 11 8 19t19 8h175q11 0 19 -8t8 -19l1 -476q0 -120 -78 -178.5t-205 -58.5q-79 0 -141 21.5t-93 52.5q-63 62 -63 105q0 11 8 19t19 8h195q18 0 29.5 -22.5t40.5 -22.5q43 0 43 54v71q-49 -43 -138.5 -43t-148 54t-58.5 172z
M330 197q47 0 50 50v54q-3 50 -50 50q-50 0 -50 -58v-38q0 -58 50 -58zM398 714q0 19 19 19h94q19 0 19 -19q0 -68 -45.5 -107t-127.5 -39t-127 39t-45 107q0 19 19 19h94q19 0 19 -19q0 -50 40.5 -50t40.5 50z" />
    <glyph glyph-name="Gdotaccent" unicode="&#x120;" horiz-adv-x="771" 
d="M424 422h275q11 0 19 -8t8 -19v-130q0 -132 -94 -203.5t-250.5 -71.5t-246.5 69.5t-90 208.5v168q0 133 92 203.5t245.5 70.5t248.5 -64.5t95 -158.5q0 -9 -6.5 -15.5t-15.5 -6.5h-221q-20 0 -29 11q-20 26 -30 30q-23 9 -42 9q-77 0 -77 -75v-170q0 -85 82 -85
q84 0 84 72h-47q-11 0 -19 8t-8 19v111q0 11 8 19t19 8zM311 922h136q10 0 16.5 -6.5t6.5 -16.5v-136q0 -10 -6.5 -16.5t-16.5 -6.5h-136q-10 0 -16.5 6.5t-6.5 16.5v136q0 10 6.5 16.5t16.5 6.5z" />
    <glyph glyph-name="gdotaccent" unicode="&#x121;" horiz-adv-x="675" 
d="M35 249v51q0 112 60 171t153 59t147 -68v31q0 11 8 19t19 8h175q11 0 19 -8t8 -19l1 -476q0 -120 -78 -178.5t-205 -58.5q-79 0 -141 21.5t-93 52.5q-63 62 -63 105q0 11 8 19t19 8h195q18 0 29.5 -22.5t40.5 -22.5q43 0 43 54v71q-49 -43 -138.5 -43t-148 54t-58.5 172z
M330 197q47 0 50 50v54q-3 50 -50 50q-50 0 -50 -58v-38q0 -58 50 -58zM282 736h131q10 0 16.5 -6.5t6.5 -16.5v-131q0 -10 -6.5 -16.5t-16.5 -6.5h-131q-10 0 -16.5 6.5t-6.5 16.5v131q0 10 6.5 16.5t16.5 6.5z" />
    <glyph glyph-name="Gcommaaccent" unicode="&#x122;" horiz-adv-x="771" 
d="M424 422h275q11 0 19 -8t8 -19v-130q0 -132 -94 -203.5t-250.5 -71.5t-246.5 69.5t-90 208.5v168q0 133 92 203.5t245.5 70.5t248.5 -64.5t95 -158.5q0 -9 -6.5 -15.5t-15.5 -6.5h-221q-20 0 -29 11q-20 26 -30 30q-23 9 -42 9q-77 0 -77 -75v-170q0 -85 82 -85
q84 0 84 72h-47q-11 0 -19 8t-8 19v111q0 11 8 19t19 8zM326 -250h-117q-19 0 -19 19q0 5 5 15l75 146q9 20 42 20h140q16 0 16 -16q0 -8 -5 -15l-100 -150q-12 -19 -37 -19z" />
    <glyph glyph-name="gcommaaccent" unicode="&#x123;" horiz-adv-x="675" 
d="M357 722h107q19 0 19 -19q0 -5 -5 -15l-45 -96q-9 -20 -42 -20h-130q-16 0 -16 16q0 8 5 15l70 100q15 19 37 19zM35 249v51q0 112 60 171t153 59t147 -68v31q0 11 8 19t19 8h175q11 0 19 -8t8 -19l1 -476q0 -120 -78 -178.5t-205 -58.5q-79 0 -141 21.5t-93 52.5
q-63 62 -63 105q0 11 8 19t19 8h195q18 0 29.5 -22.5t40.5 -22.5q43 0 43 54v71q-49 -43 -138.5 -43t-148 54t-58.5 172zM330 197q47 0 50 50v54q-3 50 -50 50q-50 0 -50 -58v-38q0 -58 50 -58z" />
    <glyph glyph-name="Hcircumflex" unicode="&#x124;" horiz-adv-x="792" 
d="M504 700h196q11 0 19 -8t8 -19v-646q0 -11 -8 -19t-19 -8h-196q-11 0 -19 8t-8 19v216h-162v-216q0 -11 -8 -19t-19 -8h-196q-11 0 -19 7.5t-8 19.5v646q0 11 8 19t19 8h196q11 0 19 -8t8 -19v-210h162v210q0 11 8 19t19 8zM326 922h130q11 0 16 -3t21 -16l117 -124
q5 -5 5 -13q0 -16 -16 -16h-71q-19 0 -40 7l-97 42l-97 -42q-21 -7 -40 -7h-71q-16 0 -16 16q0 8 5 13l117 124q16 13 21 16t16 3z" />
    <glyph glyph-name="hcircumflex" unicode="&#x125;" horiz-adv-x="700" 
d="M304 296v-269q0 -11 -8 -19t-19 -8h-195q-11 0 -19 8t-8 19v656q0 11 8 19t19 8h195q11 0 19 -8t8 -19v-215q57 62 146 62t147 -58t58 -169v-275q0 -11 -8 -19t-19 -8h-196q-11 0 -19 8t-8 19v268q0 55 -50.5 55t-50.5 -55zM111 906h130q12 0 18 -3t19 -16l112 -119
q5 -5 5 -13q0 -16 -16 -16h-71q-26 0 -40 7l-92 42l-92 -42q-14 -7 -40 -7h-71q-16 0 -16 16q0 8 5 13l112 119q13 13 19 16t18 3z" />
    <glyph glyph-name="Hbar" unicode="&#x126;" horiz-adv-x="792" 
d="M504 700h196q11 0 19 -8t8 -19v-646q0 -11 -8 -19t-19 -8h-196q-11 0 -19 8t-8 19v216h-162v-216q0 -11 -8 -19t-19 -8h-196q-11 0 -19 7.5t-8 19.5v646q0 11 8 19t19 8h196q11 0 19 -8t8 -19v-37h162v37q0 11 8 19t19 8zM315 463h162v48h-162v-48z" />
    <glyph glyph-name="hbar" unicode="&#x127;" horiz-adv-x="695" 
d="M299 296v-269q0 -11 -8 -19t-19 -8h-195q-11 0 -19 8t-8 19v511h-26q-11 0 -19 8t-8 19v51q0 11 8 19t19 8h26v40q0 11 8 19t19 8h195q11 0 19 -8t8 -19v-40h24q11 0 19 -8t8 -19v-51q0 -11 -8 -19t-19 -8h-24v-70q57 62 146 62t147 -58t58 -169v-275q0 -11 -8 -19
t-19 -8h-196q-11 0 -19 8t-8 19v268q0 55 -50.5 55t-50.5 -55z" />
    <glyph glyph-name="Itilde" unicode="&#x128;" horiz-adv-x="388" 
d="M296 0h-204q-11 0 -19 8t-8 19v646q0 11 8 19t19 8h204q11 0 19 -8t8 -19v-646q0 -11 -8 -19t-19 -8zM337.5 763q-28.5 -16 -64 -16t-79.5 17t-63.5 17t-32.5 -22q-5 -9 -15 -9h-84q-8 0 -13.5 5.5t-5.5 17t3.5 29t13 38t23.5 36.5q34 39 96 39q33 0 77 -17t62.5 -17
t28.5 15.5t20 15.5h84q19 0 19 -19.5t-6.5 -42t-20.5 -47t-42.5 -40.5z" />
    <glyph glyph-name="itilde" unicode="&#x129;" horiz-adv-x="333" 
d="M256 0h-179q-11 0 -19 8t-8 19v466q0 11 8 19t19 8h179q11 0 19 -8t8 -19v-466q0 -11 -8 -19t-19 -8zM316 594q-31 -26 -68.5 -26t-75.5 18.5t-48 18.5t-16 -1.5t-9.5 -2.5t-6.5 -4.5t-4 -4.5q-7 -7 -7 -12q-5 -9 -15 -9h-84q-8 0 -13.5 5.5t-5.5 19t7 36.5t21 47.5
t41 40.5t61.5 16t70.5 -18.5t46 -18.5t16.5 1.5t11.5 5.5t12 15.5t17 11.5h84q19 0 19 -19q0 -76 -54 -120z" />
    <glyph glyph-name="Imacron" unicode="&#x12a;" horiz-adv-x="388" 
d="M296 0h-204q-11 0 -19 8t-8 19v646q0 11 8 19t19 8h204q11 0 19 -8t8 -19v-646q0 -11 -8 -19t-19 -8zM5 917h377q10 0 16.5 -6.5t6.5 -16.5v-116q0 -10 -6.5 -16.5t-16.5 -6.5h-377q-10 0 -16.5 6.5t-6.5 16.5v116q0 10 6.5 16.5t16.5 6.5z" />
    <glyph glyph-name="imacron" unicode="&#x12b;" horiz-adv-x="333" 
d="M256 0h-179q-11 0 -19 8t-8 19v466q0 11 8 19t19 8h179q11 0 19 -8t8 -19v-466q0 -11 -8 -19t-19 -8zM3 726h327q10 0 16.5 -6.5t6.5 -16.5v-101q0 -10 -6.5 -16.5t-16.5 -6.5h-327q-10 0 -16.5 6.5t-6.5 16.5v101q0 10 6.5 16.5t16.5 6.5z" />
    <glyph glyph-name="Ibreve" unicode="&#x12c;" horiz-adv-x="388" 
d="M296 0h-204q-11 0 -19 8t-8 19v646q0 11 8 19t19 8h204q11 0 19 -8t8 -19v-646q0 -11 -8 -19t-19 -8zM234 906q0 19 19 19h99q19 0 19 -19q0 -71 -45 -113.5t-132.5 -42.5t-132.5 43t-45 113q0 19 19 19h99q19 0 19 -19q0 -55 40.5 -55t40.5 55z" />
    <glyph glyph-name="ibreve" unicode="&#x12d;" horiz-adv-x="333" 
d="M256 0h-179q-11 0 -19 8t-8 19v466q0 11 8 19t19 8h179q11 0 19 -8t8 -19v-466q0 -11 -8 -19t-19 -8zM207 714q0 19 19 19h94q19 0 19 -19q0 -68 -45.5 -107t-127.5 -39t-127 39t-45 107q0 19 19 19h94q19 0 19 -19q0 -50 40.5 -50t40.5 50z" />
    <glyph glyph-name="Iogonek" unicode="&#x12e;" horiz-adv-x="388" 
d="M286 -100h10q11 0 19 -8t8 -19v-68q0 -11 -8 -19t-19 -8h-14q-86 0 -129 48t-43 124q0 23 5 50h-23q-11 0 -19 8t-8 19v646q0 11 8 19t19 8h204q11 0 19 -8t8 -19v-646q0 -11 -8 -19t-19 -8h-10q-26 0 -38 -15.5t-12 -34.5t12 -34.5t38 -15.5z" />
    <glyph glyph-name="iogonek" unicode="&#x12f;" horiz-adv-x="333" 
d="M256 -80q11 0 19 -8t8 -19v-58q0 -11 -8 -19t-19 -8h-14q-80 0 -121 42.5t-41 109.5q0 24 4 40h-7q-11 0 -19 8t-8 19v466q0 11 8 19t19 8h179q11 0 19 -8t8 -19v-466q0 -11 -8 -19t-19 -8h-10q-50 0 -50 -40t50 -40h10zM278 713v-121q0 -11 -8 -19t-19 -8h-169
q-11 0 -19 8t-8 19v121q0 11 8 19t19 8h169q11 0 19 -8t8 -19z" />
    <glyph glyph-name="Idotaccent" unicode="&#x130;" horiz-adv-x="388" 
d="M296 0h-204q-11 0 -19 8t-8 19v646q0 11 8 19t19 8h204q11 0 19 -8t8 -19v-646q0 -11 -8 -19t-19 -8zM126 922h136q10 0 16.5 -6.5t6.5 -16.5v-136q0 -10 -6.5 -16.5t-16.5 -6.5h-136q-10 0 -16.5 6.5t-6.5 16.5v136q0 10 6.5 16.5t16.5 6.5z" />
    <glyph glyph-name="dotlessi" unicode="&#x131;" horiz-adv-x="333" 
d="M256 0h-179q-11 0 -19 8t-8 19v466q0 11 8 19t19 8h179q11 0 19 -8t8 -19v-466q0 -11 -8 -19t-19 -8z" />
    <glyph glyph-name="IJ" unicode="&#x132;" horiz-adv-x="1071" 
d="M296 0h-204q-11 0 -19 8t-8 19v646q0 11 8 19t19 8h204q11 0 19 -8t8 -19v-646q0 -11 -8 -19t-19 -8zM1011 673v-410q0 -136 -90.5 -204.5t-228.5 -68.5t-231 66t-93 179q0 9 6.5 15.5t15.5 6.5h204q16 0 24.5 -7.5t17.5 -27t21.5 -28.5t35.5 -9q59 0 59 81v231h-297
q-11 0 -19 8t-8 19v149q0 11 8 19t19 8h529q11 0 19 -8t8 -19z" />
    <glyph glyph-name="Jcircumflex" unicode="&#x134;" horiz-adv-x="743" 
d="M683 673v-410q0 -136 -90.5 -204.5t-228.5 -68.5t-231 66t-93 179q0 9 6.5 15.5t15.5 6.5h204q16 0 24.5 -7.5t17.5 -27t21.5 -28.5t35.5 -9q59 0 59 81v231h-297q-11 0 -19 8t-8 19v149q0 11 8 19t19 8h529q11 0 19 -8t8 -19zM324 922h130q11 0 16 -3t21 -16l117 -124
q5 -5 5 -13q0 -16 -16 -16h-71q-19 0 -40 7l-97 42l-97 -42q-21 -7 -40 -7h-71q-16 0 -16 16q0 8 5 13l117 124q16 13 21 16t16 3z" />
    <glyph glyph-name="jcircumflex" unicode="&#x135;" horiz-adv-x="518" 
d="M197 -190h-133q-11 0 -19 8t-8 19v156q0 11 8 19t19 8h101q43 0 43 50v267h-141q-11 0 -19 8t-8 19v129q0 11 8 19t19 8h358q11 0 19 -8t8 -19v-423q0 -120 -71.5 -190t-183.5 -70zM189 736h130q12 0 18 -3t19 -16l112 -119q5 -5 5 -13q0 -16 -16 -16h-71q-26 0 -40 7
l-92 42l-92 -42q-14 -7 -40 -7h-71q-16 0 -16 16q0 8 5 13l112 119q13 13 19 16t18 3z" />
    <glyph glyph-name="Kcommaaccent" unicode="&#x136;" horiz-adv-x="733" 
d="M720 33q3 -5 3 -12.5t-6.5 -14t-15.5 -6.5h-228q-29 0 -41 23l-122 218v-214q0 -11 -8 -19t-19 -8h-191q-11 0 -19 8t-8 19v646q0 11 8 19t19 8h191q11 0 19 -8t8 -19v-198l113 203q11 22 40 22h221q9 0 15.5 -6.5t6.5 -14t-3 -12.5l-180 -302zM336 -250h-117
q-19 0 -19 19q0 5 5 15l75 146q9 20 42 20h140q16 0 16 -16q0 -8 -5 -15l-100 -150q-12 -19 -37 -19z" />
    <glyph glyph-name="kcommaaccent" unicode="&#x137;" horiz-adv-x="656" 
d="M279 683v-324l88 144q10 17 29 17h202q10 0 17 -7t7 -16t-5 -16l-137 -195l162 -249q4 -6 4 -14.5t-7 -15.5t-17 -7h-210q-20 0 -31 17l-102 170v-160q0 -11 -8 -19t-19 -8h-175q-11 0 -19 8t-8 19v656q0 11 8 19t19 8h175q11 0 19 -8t8 -19zM285 -240h-107q-19 0 -19 19
q0 5 5 15l65 136q9 20 42 20h130q16 0 16 -16q0 -8 -5 -15l-90 -140q-12 -19 -37 -19z" />
    <glyph glyph-name="kgreenlandic" unicode="&#x138;" horiz-adv-x="656" 
d="M279 493v-144l88 154q10 17 29 17h202q10 0 17 -7t7 -16t-5 -16l-137 -205l162 -239q4 -6 4 -14.5t-7 -15.5t-17 -7h-210q-20 0 -31 17l-102 160v-150q0 -11 -8 -19t-19 -8h-175q-11 0 -19 8t-8 19v466q0 11 8 19t19 8h175q11 0 19 -8t8 -19z" />
    <glyph glyph-name="Lacute" unicode="&#x139;" horiz-adv-x="648" 
d="M319 205h277q11 0 19 -8t8 -19v-151q0 -11 -8 -19t-19 -8h-504q-11 0 -19 8t-8 19v646q0 11 8 19t19 8h200q11 0 19 -8t8 -19v-468zM233 922h197q19 0 19 -20q0 -7 -5 -12l-158 -130q-11 -10 -41 -10h-140q-16 0 -16 16q0 8 5 13l102 124q17 19 37 19z" />
    <glyph glyph-name="lacute" unicode="&#x13a;" horiz-adv-x="333" 
d="M256 0h-179q-11 0 -19 8t-8 19v656q0 11 8 19t19 8h179q11 0 19 -8t8 -19v-656q0 -11 -8 -19t-19 -8zM226 907h187q19 0 19 -20q0 -7 -5 -12l-158 -125q-11 -10 -41 -10h-130q-16 0 -16 16q0 8 5 13l102 119q17 19 37 19z" />
    <glyph glyph-name="Lcommaaccent" unicode="&#x13b;" horiz-adv-x="648" 
d="M319 205h277q11 0 19 -8t8 -19v-151q0 -11 -8 -19t-19 -8h-504q-11 0 -19 8t-8 19v646q0 11 8 19t19 8h200q11 0 19 -8t8 -19v-468zM286 -250h-117q-19 0 -19 19q0 5 5 15l75 146q9 20 42 20h140q16 0 16 -16q0 -8 -5 -15l-100 -150q-12 -19 -37 -19z" />
    <glyph glyph-name="lcommaaccent" unicode="&#x13c;" horiz-adv-x="333" 
d="M256 0h-179q-11 0 -19 8t-8 19v656q0 11 8 19t19 8h179q11 0 19 -8t8 -19v-656q0 -11 -8 -19t-19 -8zM132 -240h-107q-19 0 -19 19q0 5 5 15l65 136q9 20 42 20h130q16 0 16 -16q0 -8 -5 -15l-90 -140q-12 -19 -37 -19z" />
    <glyph glyph-name="Lcaron" unicode="&#x13d;" horiz-adv-x="665" 
d="M319 205h277q11 0 19 -8t8 -19v-151q0 -11 -8 -19t-19 -8h-504q-11 0 -19 8t-8 19v646q0 11 8 19t19 8h200q11 0 19 -8t8 -19v-468zM453 711h165q9 0 15.5 -6.5t6.5 -13t-1 -9.5l-95 -241q-12 -32 -46 -32h-108q-9 0 -15.5 6.5t-6.5 15.5v2l37 239q2 15 15.5 27t32.5 12z
" />
    <glyph glyph-name="lcaron" unicode="&#x13e;" horiz-adv-x="630" 
d="M256 0h-179q-11 0 -19 8t-8 19v656q0 11 8 19t19 8h179q11 0 19 -8t8 -19v-656q0 -11 -8 -19t-19 -8zM453 521h-107q-19 0 -19 19q0 5 5 15l65 136q9 20 42 20h130q16 0 16 -16q0 -7 -5 -15l-90 -140q-12 -19 -37 -19z" />
    <glyph glyph-name="Ldot" unicode="&#x13f;" horiz-adv-x="648" 
d="M398 496h136q10 0 16.5 -6.5t6.5 -16.5v-136q0 -10 -6.5 -16.5t-16.5 -6.5h-136q-10 0 -16.5 6.5t-6.5 16.5v136q0 10 6.5 16.5t16.5 6.5zM319 205h277q11 0 19 -8t8 -19v-151q0 -11 -8 -19t-19 -8h-504q-11 0 -19 8t-8 19v646q0 11 8 19t19 8h200q11 0 19 -8t8 -19v-468
z" />
    <glyph glyph-name="ldot" unicode="&#x140;" horiz-adv-x="500" 
d="M336 463h131q10 0 16.5 -6.5t6.5 -16.5v-131q0 -10 -6.5 -16.5t-16.5 -6.5h-131q-10 0 -16.5 6.5t-6.5 16.5v131q0 10 6.5 16.5t16.5 6.5zM256 0h-179q-11 0 -19 8t-8 19v656q0 11 8 19t19 8h179q11 0 19 -8t8 -19v-656q0 -11 -8 -19t-19 -8z" />
    <glyph glyph-name="Lslash" unicode="&#x141;" horiz-adv-x="648" 
d="M65 673q0 11 8 19t19 8h200q11 0 19 -8t8 -19v-185l145 57q8 3 14 3t12 -6t6 -15v-108q0 -25 -22 -33l-155 -61v-120h277q11 0 19 -8t8 -19v-151q0 -11 -8 -19t-19 -8h-504q-11 0 -19 8t-8 19v198l-18 -7q-7 -3 -13.5 -3t-12.5 6t-6 15v108q0 25 22 33l28 11v285z" />
    <glyph glyph-name="lslash" unicode="&#x142;" horiz-adv-x="373" 
d="M70 683q0 11 8 19t19 8h179q11 0 19 -8t8 -19v-201l28 11q7 3 13.5 3t12.5 -6t6 -15v-108q0 -25 -22 -33l-38 -15v-292q0 -11 -8 -19t-19 -8h-179q-11 0 -19 8t-8 19v202l-28 -11q-7 -3 -13.5 -3t-12.5 6t-6 15v108q0 25 22 33l38 14v292z" />
    <glyph glyph-name="Nacute" unicode="&#x143;" horiz-adv-x="760" 
d="M487 700h181q11 0 19 -8t8 -19v-646q0 -11 -8 -19t-19 -8h-158q-26 0 -41 23l-169 255v-251q0 -11 -8 -19t-19 -8h-181q-11 0 -19 8t-8 19v646q0 11 8 19t19 8h158q28 0 41 -23l169 -277v273q0 11 8 19t19 8zM394 922h197q19 0 19 -20q0 -7 -5 -12l-158 -130
q-11 -10 -41 -10h-140q-16 0 -16 16q0 8 5 13l102 124q17 19 37 19z" />
    <glyph glyph-name="nacute" unicode="&#x144;" horiz-adv-x="689" 
d="M639 303v-276q0 -11 -8 -19t-19 -8h-191q-11 0 -19 8t-8 19v269q0 55 -50 55t-50 -55v-269q0 -11 -8 -19t-19 -8h-190q-11 0 -19 8t-8 19v466q0 11 8 19t19 8h175q11 0 19 -8t8 -19v-33q26 31 70.5 50.5t95.5 19.5q82 0 138 -57.5t56 -169.5zM364 736h187q19 0 19 -20
q0 -7 -5 -12l-158 -125q-11 -10 -41 -10h-130q-16 0 -16 16q0 8 5 13l102 119q17 19 37 19z" />
    <glyph glyph-name="Ncommaaccent" unicode="&#x145;" horiz-adv-x="760" 
d="M487 700h181q11 0 19 -8t8 -19v-646q0 -11 -8 -19t-19 -8h-158q-26 0 -41 23l-169 255v-251q0 -11 -8 -19t-19 -8h-181q-11 0 -19 8t-8 19v646q0 11 8 19t19 8h158q28 0 41 -23l169 -277v273q0 11 8 19t19 8zM346 -250h-117q-19 0 -19 19q0 5 5 15l75 146q9 20 42 20h140
q16 0 16 -16q0 -8 -5 -15l-100 -150q-12 -19 -37 -19z" />
    <glyph glyph-name="ncommaaccent" unicode="&#x146;" horiz-adv-x="684" 
d="M639 303v-276q0 -11 -8 -19t-19 -8h-191q-11 0 -19 8t-8 19v269q0 55 -50 55t-50 -55v-269q0 -11 -8 -19t-19 -8h-190q-11 0 -19 8t-8 19v466q0 11 8 19t19 8h175q11 0 19 -8t8 -19v-33q26 31 70.5 50.5t95.5 19.5q82 0 138 -57.5t56 -169.5zM301 -240h-107q-19 0 -19 19
q0 5 5 15l65 136q9 20 42 20h130q16 0 16 -16q0 -8 -5 -15l-90 -140q-12 -19 -37 -19z" />
    <glyph glyph-name="Ncaron" unicode="&#x147;" horiz-adv-x="760" 
d="M487 700h181q11 0 19 -8t8 -19v-646q0 -11 -8 -19t-19 -8h-158q-26 0 -41 23l-169 255v-251q0 -11 -8 -19t-19 -8h-181q-11 0 -19 8t-8 19v646q0 11 8 19t19 8h158q28 0 41 -23l169 -277v273q0 11 8 19t19 8zM445 750h-130q-11 0 -16 3t-21 16l-117 124q-5 5 -5 13
q0 16 16 16h71q19 0 40 -7l97 -42l97 42q21 7 40 7h71q16 0 16 -16q0 -8 -5 -13l-117 -124q-16 -13 -21 -16t-16 -3z" />
    <glyph glyph-name="ncaron" unicode="&#x148;" horiz-adv-x="684" 
d="M639 303v-276q0 -11 -8 -19t-19 -8h-191q-11 0 -19 8t-8 19v269q0 55 -50 55t-50 -55v-269q0 -11 -8 -19t-19 -8h-190q-11 0 -19 8t-8 19v466q0 11 8 19t19 8h175q11 0 19 -8t8 -19v-33q26 31 70.5 50.5t95.5 19.5q82 0 138 -57.5t56 -169.5zM416 570h-130q-11 0 -16 3
t-21 16l-117 124q-5 5 -5 13q0 16 16 16h71q19 0 40 -7l97 -42l97 42q21 7 40 7h71q16 0 16 -16q0 -8 -5 -13l-117 -124q-16 -13 -21 -16t-16 -3z" />
    <glyph glyph-name="napostrophe" unicode="&#x149;" horiz-adv-x="684" 
d="M639 303v-276q0 -11 -8 -19t-19 -8h-191q-11 0 -19 8t-8 19v269q0 55 -50 55t-50 -55v-269q0 -11 -8 -19t-19 -8h-190q-11 0 -19 8t-8 19v466q0 11 8 19t19 8h175q11 0 19 -8t8 -19v-33q26 31 70.5 50.5t95.5 19.5q82 0 138 -57.5t56 -169.5zM92 556h-107q-19 0 -19 19
q0 5 5 15l65 136q9 20 42 20h130q16 0 16 -16q0 -8 -5 -15l-90 -140q-12 -19 -37 -19z" />
    <glyph glyph-name="Eng" unicode="&#x14a;" horiz-adv-x="760" 
d="M326 -130q0 11 8 19t19 8h40q34 0 50.5 18.5t16.5 62.5v58l-160 242v-251q0 -11 -8 -19t-19 -8h-181q-11 0 -19 8t-8 19v646q0 11 8 19t19 8h158q28 0 41 -23l169 -277v273q0 11 8 19t19 8h181q11 0 19 -8t8 -19v-706q0 -136 -90.5 -204.5t-235.5 -68.5h-16q-11 0 -19 8
t-8 19v149z" />
    <glyph glyph-name="eng" unicode="&#x14b;" horiz-adv-x="689" 
d="M261 -130q0 11 8 19t19 8h39q34 0 50.5 18.5t16.5 62.5v318q0 55 -50 55t-50 -55v-269q0 -11 -8 -19t-19 -8h-190q-11 0 -19 8t-8 19v466q0 11 8 19t19 8h175q11 0 19 -8t8 -19v-33q26 31 70.5 50.5t95.5 19.5q82 0 138 -57.5t56 -169.5v-336q0 -136 -88.5 -204.5
t-233.5 -68.5h-29q-11 0 -19 8t-8 19v149z" />
    <glyph glyph-name="Omacron" unicode="&#x14c;" 
d="M379 710q151 0 242.5 -74.5t91.5 -209.5v-156q0 -137 -90.5 -208.5t-243.5 -71.5t-243.5 71.5t-90.5 208.5v156q0 136 91.5 210t242.5 74zM379 185q34 0 54 20t20 61v168q0 40 -20 60.5t-54 20.5t-54 -20.5t-20 -60.5v-168q0 -41 20 -61t54 -20zM193 917h377
q10 0 16.5 -6.5t6.5 -16.5v-116q0 -10 -6.5 -16.5t-16.5 -6.5h-377q-10 0 -16.5 6.5t-6.5 16.5v116q0 10 6.5 16.5t16.5 6.5z" />
    <glyph glyph-name="omacron" unicode="&#x14d;" horiz-adv-x="650" 
d="M35 294q0 114 81 175t209 61t209 -61t81 -175v-68q0 -115 -78 -175.5t-212 -60.5t-212 60.5t-78 175.5v68zM370 302q0 38 -10 53t-35 15t-35 -15t-10 -53v-84q0 -40 10 -54t35 -14t35 15t10 53v84zM161 726h327q10 0 16.5 -6.5t6.5 -16.5v-101q0 -10 -6.5 -16.5
t-16.5 -6.5h-327q-10 0 -16.5 6.5t-6.5 16.5v101q0 10 6.5 16.5t16.5 6.5z" />
    <glyph glyph-name="Obreve" unicode="&#x14e;" 
d="M379 710q151 0 242.5 -74.5t91.5 -209.5v-156q0 -137 -90.5 -208.5t-243.5 -71.5t-243.5 71.5t-90.5 208.5v156q0 136 91.5 210t242.5 74zM379 185q34 0 54 20t20 61v168q0 40 -20 60.5t-54 20.5t-54 -20.5t-20 -60.5v-168q0 -41 20 -61t54 -20zM423 906q0 19 19 19h99
q19 0 19 -19q0 -71 -45 -113.5t-132.5 -42.5t-132.5 43t-45 113q0 19 19 19h99q19 0 19 -19q0 -55 40.5 -55t40.5 55z" />
    <glyph glyph-name="obreve" unicode="&#x14f;" horiz-adv-x="650" 
d="M35 226v68q0 114 81 175t209 61t209 -61t81 -175v-68q0 -115 -78 -175.5t-212 -60.5t-212 60.5t-78 175.5zM370 218v84q0 38 -10 53t-35 15t-35 -15t-10 -53v-84q0 -40 10 -54t35 -14t35 15t10 53zM366 714q0 19 19 19h94q19 0 19 -19q0 -68 -45.5 -107t-127.5 -39
t-127 39t-45 107q0 19 19 19h94q19 0 19 -19q0 -50 40.5 -50t40.5 50z" />
    <glyph glyph-name="Ohungarumlaut" unicode="&#x150;" horiz-adv-x="759" 
d="M379 710q151 0 242.5 -74.5t91.5 -209.5v-156q0 -137 -90.5 -208.5t-243.5 -71.5t-243.5 71.5t-90.5 208.5v156q0 136 91.5 210t242.5 74zM379 185q34 0 54 20t20 61v168q0 40 -20 60.5t-54 20.5t-54 -20.5t-20 -60.5v-168q0 -41 20 -61t54 -20zM256 922h158q20 0 20 -19
q0 -7 -6 -13l-122 -133q-6 -7 -40 -7h-91q-16 0 -16 16q0 5 5 15l55 122q7 17 22 19h15zM527 922h158q20 0 20 -19q0 -7 -6 -13l-122 -133q-6 -7 -40 -7h-91q-16 0 -16 16q0 5 5 15l55 122q7 17 22 19h15z" />
    <glyph glyph-name="ohungarumlaut" unicode="&#x151;" horiz-adv-x="646" 
d="M35 294q0 114 81 175t209 61t209 -61t81 -175v-68q0 -115 -78 -175.5t-212 -60.5t-212 60.5t-78 175.5v68zM370 302q0 38 -10 53t-35 15t-35 -15t-10 -53v-84q0 -40 10 -54t35 -14t35 15t10 53v84zM217 737h148q20 0 20 -19q0 -7 -6 -13l-122 -128q-6 -7 -30 -7h-91
q-16 0 -16 16q0 5 5 15l55 117q7 17 22 18q4 1 15 1zM474 737h148q20 0 20 -19q0 -7 -6 -13l-122 -128q-6 -7 -40 -7h-81q-16 0 -16 16q0 5 5 15l55 117q7 17 22 18q4 1 15 1z" />
    <glyph glyph-name="OE" unicode="&#x152;" horiz-adv-x="1028" 
d="M45 280v136q0 135 91.5 209t241.5 75h560q11 0 19 -8t8 -19v-141q0 -11 -8 -19t-19 -8h-280v-63h258q11 0 19 -8t8 -19v-130q0 -11 -8 -19t-19 -8h-258v-63h288q11 0 19 -8t8 -19v-141q0 -11 -8 -19t-19 -8h-568q-152 1 -242.5 72t-90.5 208zM305 276q0 -81 73 -81h40
v310h-40q-73 -2 -73 -81v-148z" />
    <glyph glyph-name="oe" unicode="&#x153;" horiz-adv-x="975" 
d="M913 201h-298v-5q0 -61 39 -61q11 0 27 16t35 16h189q22 0 22 -22q0 -49 -73.5 -102t-197.5 -53q-92 0 -160 35q-72 -35 -171 -35q-134 0 -212 60.5t-78 175.5v68q0 114 81 175t209 61q100 0 171 -38q71 38 159 38q140 0 212.5 -77t72.5 -195v-30q0 -11 -8 -19t-19 -8z
M370 218v84q0 38 -10 53t-35 15t-35 -15t-10 -53v-84q0 -40 10 -54t35 -14t35 15t10 53zM655 390q-40 0 -40 -60v-4h80v4q0 60 -40 60z" />
    <glyph glyph-name="Racute" unicode="&#x154;" horiz-adv-x="742" 
d="M709 33q3 -6 3 -13t-6.5 -13.5t-15.5 -6.5h-205q-31 0 -43 27l-86 191h-41v-191q0 -11 -8 -19t-19 -8h-196q-11 0 -19 8t-8 19v646q0 11 8 19t19 8h296q144 0 225 -64.5t81 -185t-108 -189.5zM315 514v-106h73q22 0 34 14.5t12 36.5t-11.5 38.5t-34.5 16.5h-73zM363 922
h197q19 0 19 -20q0 -7 -5 -12l-158 -130q-11 -10 -41 -10h-140q-16 0 -16 16q0 8 5 13l102 124q17 19 37 19z" />
    <glyph glyph-name="racute" unicode="&#x155;" horiz-adv-x="550" 
d="M269 493v-35q70 62 156 62h48q11 0 19 -8t8 -19v-156q0 -11 -8 -19t-19 -8h-129q-27 0 -42.5 -12.5t-17.5 -33.5v-237q0 -11 -8 -19t-19 -8h-190q-11 0 -19 8t-8 19v466q0 11 8 19t19 8h175q11 0 19 -8t8 -19zM314 736h187q19 0 19 -20q0 -7 -5 -12l-158 -125
q-11 -10 -41 -10h-130q-16 0 -16 16q0 8 5 13l102 119q17 19 37 19z" />
    <glyph glyph-name="Rcommaaccent" unicode="&#x156;" horiz-adv-x="742" 
d="M709 33q3 -6 3 -13t-6.5 -13.5t-15.5 -6.5h-205q-31 0 -43 27l-86 191h-41v-191q0 -11 -8 -19t-19 -8h-196q-11 0 -19 8t-8 19v646q0 11 8 19t19 8h296q144 0 225 -64.5t81 -185t-108 -189.5zM315 514v-106h73q22 0 34 14.5t12 36.5t-11.5 38.5t-34.5 16.5h-73zM326 -250
h-117q-19 0 -19 19q0 5 5 15l75 146q9 20 42 20h140q16 0 16 -16q0 -8 -5 -15l-100 -150q-12 -19 -37 -19z" />
    <glyph glyph-name="rcommaaccent" unicode="&#x157;" horiz-adv-x="530" 
d="M269 493v-35q70 62 156 62h48q11 0 19 -8t8 -19v-156q0 -11 -8 -19t-19 -8h-129q-27 0 -42.5 -12.5t-17.5 -33.5v-237q0 -11 -8 -19t-19 -8h-190q-11 0 -19 8t-8 19v466q0 11 8 19t19 8h175q11 0 19 -8t8 -19zM122 -240h-107q-19 0 -19 19q0 5 5 15l65 136q9 20 42 20
h130q16 0 16 -16q0 -8 -5 -15l-90 -140q-12 -19 -37 -19z" />
    <glyph glyph-name="Rcaron" unicode="&#x158;" horiz-adv-x="742" 
d="M709 33q3 -6 3 -13t-6.5 -13.5t-15.5 -6.5h-205q-31 0 -43 27l-86 191h-41v-191q0 -11 -8 -19t-19 -8h-196q-11 0 -19 8t-8 19v646q0 11 8 19t19 8h296q144 0 225 -64.5t81 -185t-108 -189.5zM315 514v-106h73q22 0 34 14.5t12 36.5t-11.5 38.5t-34.5 16.5h-73zM429 750
h-130q-11 0 -16 3t-21 16l-117 124q-5 5 -5 13q0 16 16 16h71q19 0 40 -7l97 -42l97 42q21 7 40 7h71q16 0 16 -16q0 -8 -5 -13l-117 -124q-16 -13 -21 -16t-16 -3z" />
    <glyph glyph-name="rcaron" unicode="&#x159;" horiz-adv-x="540" 
d="M279 493v-35q70 62 156 62h48q11 0 19 -8t8 -19v-156q0 -11 -8 -19t-19 -8h-129q-27 0 -42.5 -12.5t-17.5 -33.5v-237q0 -11 -8 -19t-19 -8h-190q-11 0 -19 8t-8 19v466q0 11 8 19t19 8h175q11 0 19 -8t8 -19zM346 570h-130q-11 0 -16 3t-21 16l-117 124q-5 5 -5 13
q0 16 16 16h71q19 0 40 -7l97 -42l97 42q21 7 40 7h71q16 0 16 -16q0 -8 -5 -13l-117 -124q-16 -13 -21 -16t-16 -3z" />
    <glyph glyph-name="Sacute" unicode="&#x15a;" horiz-adv-x="721" 
d="M131.5 646q84.5 64 222 64t225 -67t87.5 -140q0 -9 -6.5 -15.5t-14.5 -6.5h-200q-23 0 -42 17t-51 17q-48 0 -48 -28q0 -15 23.5 -25t87.5 -18q149 -19 212.5 -69.5t63.5 -153t-93.5 -167t-244.5 -64.5t-237 62t-86 151q0 9 6.5 15.5t15.5 6.5h190q21 0 46.5 -20
t70.5 -20q75 0 75 28q0 18 -27 27.5t-102 19.5q-258 34 -258 220q0 102 84.5 166zM373 922h197q19 0 19 -20q0 -7 -5 -12l-158 -130q-11 -10 -41 -10h-140q-16 0 -16 16q0 8 5 13l102 124q17 19 37 19z" />
    <glyph glyph-name="sacute" unicode="&#x15b;" horiz-adv-x="604" 
d="M327 144q0 10 -5 16q-13 16 -96 31.5t-134.5 55t-51.5 110.5t68 122t183.5 51t189.5 -48t74 -97q0 -11 -6.5 -19t-15.5 -8h-168q-15 0 -37 16t-33 16q-23 0 -23 -16q0 -10 5 -16q13 -15 109 -29t143.5 -61.5t47.5 -105.5q0 -81 -73 -127t-207 -46q-71 0 -126 16t-84 40
q-57 47 -57 88q0 11 7 19t17 8h174q14 0 36.5 -15.5t42.5 -15.5t20 15zM341 736h187q19 0 19 -20q0 -7 -5 -12l-158 -125q-11 -10 -41 -10h-130q-16 0 -16 16q0 8 5 13l102 119q17 19 37 19z" />
    <glyph glyph-name="Scircumflex" unicode="&#x15c;" horiz-adv-x="721" 
d="M131.5 646q84.5 64 222 64t225 -67t87.5 -140q0 -9 -6.5 -15.5t-14.5 -6.5h-200q-23 0 -42 17t-51 17q-48 0 -48 -28q0 -15 23.5 -25t87.5 -18q149 -19 212.5 -69.5t63.5 -153t-93.5 -167t-244.5 -64.5t-237 62t-86 151q0 9 6.5 15.5t15.5 6.5h190q21 0 46.5 -20
t70.5 -20q75 0 75 28q0 18 -27 27.5t-102 19.5q-258 34 -258 220q0 102 84.5 166zM289 922h130q11 0 16 -3t21 -16l117 -124q5 -5 5 -13q0 -16 -16 -16h-71q-19 0 -40 7l-97 42l-97 -42q-21 -7 -40 -7h-71q-16 0 -16 16q0 8 5 13l117 124q16 13 21 16t16 3z" />
    <glyph glyph-name="scircumflex" unicode="&#x15d;" horiz-adv-x="604" 
d="M327 144q0 10 -5 16q-13 16 -96 31.5t-134.5 55t-51.5 110.5t68 122t183.5 51t189.5 -48t74 -97q0 -11 -6.5 -19t-15.5 -8h-168q-15 0 -37 16t-33 16q-23 0 -23 -16q0 -10 5 -16q13 -15 109 -29t143.5 -61.5t47.5 -105.5q0 -81 -73 -127t-207 -46q-71 0 -126 16t-84 40
q-57 47 -57 88q0 11 7 19t17 8h174q14 0 36.5 -15.5t42.5 -15.5t20 15zM237 736h130q12 0 18 -3t19 -16l112 -119q5 -5 5 -13q0 -16 -16 -16h-71q-26 0 -40 7l-92 42l-92 -42q-14 -7 -40 -7h-71q-16 0 -16 16q0 8 5 13l112 119q13 13 19 16t18 3z" />
    <glyph glyph-name="Scedilla" unicode="&#x15e;" horiz-adv-x="721" 
d="M30 203q0 9 6.5 15.5t15.5 6.5h190q21 0 46.5 -20t70.5 -20q75 0 75 28q0 18 -27 27.5t-102 19.5q-258 34 -258 220q0 102 84.5 166t222 64t225 -67t87.5 -140q0 -9 -6.5 -15.5t-14.5 -6.5h-200q-23 0 -42 17t-51 17q-48 0 -48 -28q0 -15 23.5 -25t87.5 -18
q149 -19 212.5 -69.5t63.5 -151t-87 -164.5t-224 -69l-7 -29q11 6 44.5 6t58.5 -26.5t25 -64.5q0 -72 -61 -95q-29 -11 -59 -11l-61 12q-61 24 -61 65q0 13 13 13h61q12 0 25.5 -8t26.5 -8q29 0 29 24q0 10 -9 17.5t-23 7.5t-25 -6t-19 -6h-44q-14 0 -14 14q0 4 1 12l16 86
q-128 12 -197.5 71.5t-69.5 138.5z" />
    <glyph glyph-name="scedilla" unicode="&#x15f;" horiz-adv-x="604" 
d="M30 133q0 11 7 19t17 8h174q14 0 36.5 -15.5t42.5 -15.5t20 15q0 10 -5 16q-13 16 -96 31.5t-134.5 55t-51.5 110.5t68 122t183.5 51t189.5 -48t74 -97q0 -11 -6.5 -19t-15.5 -8h-168q-15 0 -37 16t-33 16q-23 0 -23 -16q0 -10 5 -16q13 -15 109 -29t143.5 -61.5
t47.5 -105.5q0 -78 -67 -123t-191 -49l-6 -29q11 6 44.5 6t58.5 -26.5t25 -64.5q0 -72 -61 -95q-29 -11 -59 -11l-61 12q-61 24 -61 65q0 13 13 13h61q12 0 25.5 -8t26.5 -8q29 0 29 24q0 10 -9 17.5t-23 7.5t-25 -6t-19 -6h-44q-14 0 -14 14q0 4 1 12l16 86
q-103 11 -155 56t-52 84z" />
    <glyph glyph-name="Scaron" unicode="&#x160;" horiz-adv-x="721" 
d="M131.5 646q84.5 64 222 64t225 -67t87.5 -140q0 -9 -6.5 -15.5t-14.5 -6.5h-200q-23 0 -42 17t-51 17q-48 0 -48 -28q0 -15 23.5 -25t87.5 -18q149 -19 212.5 -69.5t63.5 -153t-93.5 -167t-244.5 -64.5t-237 62t-86 151q0 9 6.5 15.5t15.5 6.5h190q21 0 46.5 -20
t70.5 -20q75 0 75 28q0 18 -27 27.5t-102 19.5q-258 34 -258 220q0 102 84.5 166zM417 750h-130q-11 0 -16 3t-21 16l-117 124q-5 5 -5 13q0 16 16 16h71q19 0 40 -7l97 -42l97 42q21 7 40 7h71q16 0 16 -16q0 -8 -5 -13l-117 -124q-16 -13 -21 -16t-16 -3z" />
    <glyph glyph-name="scaron" unicode="&#x161;" horiz-adv-x="604" 
d="M327 144q0 10 -5 16q-13 16 -96 31.5t-134.5 55t-51.5 110.5t68 122t183.5 51t189.5 -48t74 -97q0 -11 -6.5 -19t-15.5 -8h-168q-15 0 -37 16t-33 16q-23 0 -23 -16q0 -10 5 -16q13 -15 109 -29t143.5 -61.5t47.5 -105.5q0 -81 -73 -127t-207 -46q-71 0 -126 16t-84 40
q-57 47 -57 88q0 11 7 19t17 8h174q14 0 36.5 -15.5t42.5 -15.5t20 15zM367 570h-130q-11 0 -16 3t-21 16l-117 124q-5 5 -5 13q0 16 16 16h71q19 0 40 -7l97 -42l97 42q21 7 40 7h71q16 0 16 -16q0 -8 -5 -13l-117 -124q-16 -13 -21 -16t-16 -3z" />
    <glyph glyph-name="Tcommaaccent" unicode="&#x162;" horiz-adv-x="700" 
d="M57 700h586q11 0 19 -8t8 -19v-161q0 -11 -8 -19t-19 -8h-166v-458q0 -11 -8 -19t-19 -8h-200q-11 0 -19 8t-8 19v458h-166q-11 0 -19 8t-8 19v161q0 11 8 19t19 8zM299 -250h-117q-19 0 -19 19q0 5 5 15l75 146q9 20 42 20h140q16 0 16 -16q0 -8 -5 -15l-100 -150
q-12 -19 -37 -19z" />
    <glyph glyph-name="tcommaaccent" unicode="&#x163;" horiz-adv-x="531" 
d="M350 345v-110q0 -50 43 -50h91q11 0 19 -8t8 -19v-131q0 -11 -8 -19t-19 -8h-113q-250 0 -250 215v130h-79q-11 0 -19 8t-8 19v121q0 11 8 19t19 8h79v163q0 11 8 19t19 8h175q11 0 19 -8t8 -19v-163h126q11 0 19 -8t8 -19v-121q0 -11 -8 -19t-19 -8h-126zM263 -240h-107
q-19 0 -19 19q0 5 5 15l65 136q9 20 42 20h130q16 0 16 -16q0 -8 -5 -15l-90 -140q-12 -19 -37 -19z" />
    <glyph glyph-name="Tcaron" unicode="&#x164;" horiz-adv-x="700" 
d="M57 700h586q11 0 19 -8t8 -19v-161q0 -11 -8 -19t-19 -8h-166v-458q0 -11 -8 -19t-19 -8h-200q-11 0 -19 8t-8 19v458h-166q-11 0 -19 8t-8 19v161q0 11 8 19t19 8zM415 750h-130q-11 0 -16 3t-21 16l-117 124q-5 5 -5 13q0 16 16 16h71q19 0 40 -7l97 -42l97 42
q21 7 40 7h71q16 0 16 -16q0 -8 -5 -13l-117 -124q-16 -13 -21 -16t-16 -3z" />
    <glyph glyph-name="tcaron" unicode="&#x165;" horiz-adv-x="804" 
d="M350 345v-110q0 -50 43 -50h91q11 0 19 -8t8 -19v-131q0 -11 -8 -19t-19 -8h-113q-250 0 -250 215v130h-79q-11 0 -19 8t-8 19v121q0 11 8 19t19 8h79v163q0 11 8 19t19 8h175q11 0 19 -8t8 -19v-163h126q11 0 19 -8t8 -19v-121q0 -11 -8 -19t-19 -8h-126zM672 520h-107
q-19 0 -19 19q0 5 5 15l65 136q9 20 42 20h130q16 0 16 -16q0 -8 -5 -15l-90 -140q-12 -19 -37 -19z" />
    <glyph glyph-name="Tbar" unicode="&#x166;" horiz-adv-x="700" 
d="M57 700h586q11 0 19 -8t8 -19v-161q0 -11 -8 -19t-19 -8h-166v-105h84q11 0 19 -8t8 -19v-71q0 -11 -8 -19t-19 -8h-84v-228q0 -11 -8 -19t-19 -8h-200q-11 0 -19 8t-8 19v228h-96q-11 0 -19 8t-8 19v71q0 11 8 19t19 8h96v105h-166q-11 0 -19 8t-8 19v161q0 11 8 19
t19 8z" />
    <glyph glyph-name="tbar" unicode="&#x167;" horiz-adv-x="531" 
d="M350 370h126q11 0 19 -8t8 -19v-51q0 -11 -8 -19t-19 -8h-126v-30q0 -50 43 -50h91q11 0 19 -8t8 -19v-131q0 -11 -8 -19t-19 -8h-113q-250 0 -250 215v50h-79q-11 0 -19 8t-8 19v51q0 11 8 19t19 8h79v45h-79q-11 0 -19 8t-8 19v51q0 11 8 19t19 8h79v163q0 11 8 19
t19 8h175q11 0 19 -8t8 -19v-163h126q11 0 19 -8t8 -19v-51q0 -11 -8 -19t-19 -8h-126v-45z" />
    <glyph glyph-name="Utilde" unicode="&#x168;" 
d="M480 700h196q11 0 19 -8t8 -19v-402q0 -140 -87 -210.5t-236.5 -70.5t-237 70t-87.5 211v402q0 11 8 19t19 8h196q11 0 19 -8t8 -19v-405q0 -77 74 -77t74 77v405q0 11 8 19t19 8zM530 774q-32 -26 -69 -26t-75 18.5t-48.5 18.5t-16.5 -1.5t-9.5 -2.5t-6.5 -4.5t-5 -4.5
q-6 -7 -6 -12q-5 -9 -15 -9h-84q-8 0 -13.5 5.5t-5.5 19t7 36.5t21 47.5t41 40.5t61.5 16t70.5 -18.5t46 -18.5t16.5 1.5t10.5 5.5q6 4 13 15.5t17 11.5h84q19 0 19 -19q0 -76 -53 -120z" />
    <glyph glyph-name="utilde" unicode="&#x169;" horiz-adv-x="684" 
d="M45 217v276q0 11 8 19t19 8h191q11 0 19 -8t8 -19v-269q0 -55 50 -55t50 55v269q0 11 8 19t19 8h190q11 0 19 -8t8 -19v-466q0 -11 -8 -19t-19 -8h-175q-11 0 -19 8t-8 19v33q-47 -70 -166 -70q-82 0 -138 57.5t-56 169.5zM492 594q-32 -26 -69 -26t-75 18.5t-48.5 18.5
t-16.5 -1.5t-9.5 -2.5t-6.5 -4.5t-5 -4.5q-6 -7 -6 -12q-5 -9 -15 -9h-84q-8 0 -13.5 5.5t-5.5 19t7 36.5t21 47.5t41 40.5t61.5 16t70.5 -18.5t46 -18.5t16.5 1.5t10.5 5.5q6 4 13 15.5t17 11.5h84q19 0 19 -19q0 -76 -53 -120z" />
    <glyph glyph-name="Umacron" unicode="&#x16a;" 
d="M480 700h196q11 0 19 -8t8 -19v-402q0 -140 -87 -210.5t-236.5 -70.5t-237 70t-87.5 211v402q0 11 8 19t19 8h196q11 0 19 -8t8 -19v-405q0 -77 74 -77t74 77v405q0 11 8 19t19 8zM190 917h377q10 0 16.5 -6.5t6.5 -16.5v-116q0 -10 -6.5 -16.5t-16.5 -6.5h-377
q-10 0 -16.5 6.5t-6.5 16.5v116q0 10 6.5 16.5t16.5 6.5z" />
    <glyph glyph-name="umacron" unicode="&#x16b;" horiz-adv-x="684" 
d="M45 217v276q0 11 8 19t19 8h191q11 0 19 -8t8 -19v-269q0 -55 50 -55t50 55v269q0 11 8 19t19 8h190q11 0 19 -8t8 -19v-466q0 -11 -8 -19t-19 -8h-175q-11 0 -19 8t-8 19v33q-47 -70 -166 -70q-82 0 -138 57.5t-56 169.5zM176 726h327q10 0 16.5 -6.5t6.5 -16.5v-101
q0 -10 -6.5 -16.5t-16.5 -6.5h-327q-10 0 -16.5 6.5t-6.5 16.5v101q0 10 6.5 16.5t16.5 6.5z" />
    <glyph glyph-name="Ubreve" unicode="&#x16c;" 
d="M480 700h196q11 0 19 -8t8 -19v-402q0 -140 -87 -210.5t-236.5 -70.5t-237 70t-87.5 211v402q0 11 8 19t19 8h196q11 0 19 -8t8 -19v-405q0 -77 74 -77t74 77v405q0 11 8 19t19 8zM425 906q0 19 19 19h99q19 0 19 -19q0 -71 -45 -113.5t-132.5 -42.5t-132.5 43t-45 113
q0 19 19 19h99q19 0 19 -19q0 -55 40.5 -55t40.5 55z" />
    <glyph glyph-name="ubreve" unicode="&#x16d;" horiz-adv-x="684" 
d="M45 217v276q0 11 8 19t19 8h191q11 0 19 -8t8 -19v-269q0 -55 50 -55t50 55v269q0 11 8 19t19 8h190q11 0 19 -8t8 -19v-466q0 -11 -8 -19t-19 -8h-175q-11 0 -19 8t-8 19v33q-47 -70 -166 -70q-82 0 -138 57.5t-56 169.5zM380 714q0 19 19 19h94q19 0 19 -19
q0 -68 -45.5 -107t-127.5 -39t-127 39t-45 107q0 19 19 19h94q19 0 19 -19q0 -50 40.5 -50t40.5 50z" />
    <glyph glyph-name="Uring" unicode="&#x16e;" 
d="M480 700h196q11 0 19 -8t8 -19v-402q0 -140 -87 -210.5t-236.5 -70.5t-237 70t-87.5 211v402q0 11 8 19t19 8h196q11 0 19 -8t8 -19v-405q0 -77 74 -77t74 77v405q0 11 8 19t19 8zM375 740q-52 0 -81 26t-29 67.5t29.5 67.5t81 26t81 -26t29.5 -67.5t-29.5 -67.5
t-81.5 -26zM375 803q28 0 28 30.5t-28 30.5q-12 0 -20 -8t-8 -22q0 -31 28 -31z" />
    <glyph glyph-name="uring" unicode="&#x16f;" horiz-adv-x="684" 
d="M45 217v276q0 11 8 19t19 8h191q11 0 19 -8t8 -19v-269q0 -55 50 -55t50 55v269q0 11 8 19t19 8h190q11 0 19 -8t8 -19v-466q0 -11 -8 -19t-19 -8h-175q-11 0 -19 8t-8 19v33q-47 -70 -166 -70q-82 0 -138 57.5t-56 169.5zM339 560q-52 0 -81 26t-29 67.5t29.5 67.5
t81 26t81 -26t29.5 -67.5t-29.5 -67.5t-81.5 -26zM339 623q28 0 28 30.5t-28 30.5q-12 0 -20 -8t-8 -22q0 -31 28 -31z" />
    <glyph glyph-name="Uhungarumlaut" unicode="&#x170;" 
d="M480 700h196q11 0 19 -8t8 -19v-402q0 -140 -87 -210.5t-236.5 -70.5t-237 70t-87.5 211v402q0 11 8 19t19 8h196q11 0 19 -8t8 -19v-405q0 -77 74 -77t74 77v405q0 11 8 19t19 8zM269 922h158q20 0 20 -19q0 -7 -6 -13l-122 -133q-6 -7 -40 -7h-91q-16 0 -16 16
q0 5 5 15l55 122q7 17 22 19h15zM540 922h158q20 0 20 -19q0 -7 -6 -13l-122 -133q-6 -7 -40 -7h-91q-16 0 -16 16q0 5 5 15l55 122q7 17 22 19h15z" />
    <glyph glyph-name="uhungarumlaut" unicode="&#x171;" horiz-adv-x="684" 
d="M45 217v276q0 11 8 19t19 8h191q11 0 19 -8t8 -19v-269q0 -55 50 -55t50 55v269q0 11 8 19t19 8h190q11 0 19 -8t8 -19v-466q0 -11 -8 -19t-19 -8h-175q-11 0 -19 8t-8 19v33q-47 -70 -166 -70q-82 0 -138 57.5t-56 169.5zM245 737h148q20 0 20 -19q0 -7 -6 -13
l-122 -128q-6 -7 -30 -7h-91q-16 0 -16 16q0 5 5 15l55 117q7 17 22 18q4 1 15 1zM502 737h148q20 0 20 -19q0 -7 -6 -13l-122 -128q-6 -7 -40 -7h-81q-16 0 -16 16q0 5 5 15l55 117q7 17 22 18q4 1 15 1z" />
    <glyph glyph-name="Uogonek" unicode="&#x172;" 
d="M480 700h196q11 0 19 -8t8 -19v-402q0 -116 -60.5 -184.5t-167.5 -88.5q-59 -13 -59 -58q0 -19 12 -34.5t38 -15.5h10q11 0 19 -8t8 -19v-68q0 -11 -8 -19t-19 -8h-14q-86 0 -129 48t-43 124q0 32 7 56q-114 18 -178 86.5t-64 188.5v402q0 11 8 19t19 8h196q11 0 19 -8
t8 -19v-405q0 -77 74 -77t74 77v405q0 11 8 19t19 8z" />
    <glyph glyph-name="uogonek" unicode="&#x173;" horiz-adv-x="684" 
d="M45 217v276q0 11 8 19t19 8h191q11 0 19 -8t8 -19v-269q0 -55 50 -55t50 55v269q0 11 8 19t19 8h190q11 0 19 -8t8 -19v-466q0 -11 -8 -19t-19 -8h-10q-50 0 -50 -40t50 -40h10q11 0 19 -8t8 -19v-58q0 -11 -8 -19t-19 -8h-14q-80 0 -121 42.5t-41 109.5q0 24 4 40h-3
q-11 0 -19 8t-8 19v33q-47 -70 -166 -70q-82 0 -138 57.5t-56 169.5z" />
    <glyph glyph-name="Wcircumflex" unicode="&#x174;" horiz-adv-x="878" 
d="M316 0h-143q-19 0 -31.5 11.5t-14.5 26.5l-92 637v3q0 9 6.5 15.5t15.5 6.5h186q33 0 36 -27l34 -282l41 125q10 29 34 29h102q24 0 34 -29l41 -124l34 281q3 27 36 27h186q9 0 15.5 -6.5t6.5 -15.5v-3l-92 -637q-2 -15 -14.5 -26.5t-31.5 -11.5h-143q-31 0 -41 27
l-82 205l-82 -205q-10 -27 -41 -27zM375 922h130q11 0 16 -3t21 -16l117 -124q5 -5 5 -13q0 -16 -16 -16h-71q-19 0 -40 7l-97 42l-97 -42q-21 -7 -40 -7h-71q-16 0 -16 16q0 8 5 13l117 124q16 13 21 16t16 3z" />
    <glyph glyph-name="wcircumflex" unicode="&#x175;" horiz-adv-x="877" 
d="M392 520h93q27 0 34 -24l65 -208l61 208q7 24 34 24h154q10 0 17 -7t7 -14t-1 -11l-146 -463q-8 -25 -33 -25h-134q-25 0 -33 25l-71 202l-72 -202q-8 -25 -33 -25h-134q-25 0 -33 25l-146 463q-1 4 -1 11t7 14t17 7h154q27 0 34 -24l61 -208l65 208q7 24 34 24zM374 736
h130q12 0 18 -3t19 -16l112 -119q5 -5 5 -13q0 -16 -16 -16h-71q-26 0 -40 7l-92 42l-92 -42q-14 -7 -40 -7h-71q-16 0 -16 16q0 8 5 13l112 119q13 13 19 16t18 3z" />
    <glyph glyph-name="Ycircumflex" unicode="&#x176;" horiz-adv-x="724" 
d="M460 0h-196q-11 0 -19 8t-8 19v197l-225 445q-2 4 -2 11t6.5 13.5t15.5 6.5h188q30 0 42 -25l100 -201l100 201q12 25 42 25h188q9 0 15.5 -6.5t6.5 -13.5t-2 -11l-225 -445v-197q0 -11 -8 -19t-19 -8zM298 922h130q11 0 16 -3t21 -16l117 -124q5 -5 5 -13q0 -16 -16 -16
h-71q-19 0 -40 7l-97 42l-97 -42q-21 -7 -40 -7h-71q-16 0 -16 16q0 8 5 13l117 124q16 13 21 16t16 3z" />
    <glyph glyph-name="ycircumflex" unicode="&#x177;" horiz-adv-x="642" 
d="M40 520h169q23 0 32 -24l82 -228l85 228q10 24 34 24h167q9 0 16 -6.5t7 -13.5t-1 -11l-282 -655q-10 -24 -35 -24h-164q-9 0 -15.5 6t-6.5 14.5t1 10.5l80 192l-193 456q-1 3 -1 7q4 24 25 24zM258 736h130q12 0 18 -3t19 -16l112 -119q5 -5 5 -13q0 -16 -16 -16h-71
q-26 0 -40 7l-92 42l-92 -42q-14 -7 -40 -7h-71q-16 0 -16 16q0 8 5 13l112 119q13 13 19 16t18 3z" />
    <glyph glyph-name="Ydieresis" unicode="&#x178;" horiz-adv-x="724" 
d="M460 0h-196q-11 0 -19 8t-8 19v197l-225 445q-2 4 -2 11t6.5 13.5t15.5 6.5h188q30 0 42 -25l100 -201l100 201q12 25 42 25h188q9 0 15.5 -6.5t6.5 -13.5t-2 -11l-225 -445v-197q0 -11 -8 -19t-19 -8zM435 922h126q10 0 16.5 -6.5t6.5 -16.5v-126q0 -10 -6.5 -16.5
t-16.5 -6.5h-126q-10 0 -16.5 6.5t-6.5 16.5v126q0 10 6.5 16.5t16.5 6.5zM164 922h126q10 0 16.5 -6.5t6.5 -16.5v-126q0 -10 -6.5 -16.5t-16.5 -6.5h-126q-10 0 -16.5 6.5t-6.5 16.5v126q0 10 6.5 16.5t16.5 6.5z" />
    <glyph glyph-name="Zacute" unicode="&#x179;" horiz-adv-x="715" 
d="M643 205q11 0 19 -8t8 -19v-151q0 -11 -8 -19t-19 -8h-571q-11 0 -19 8t-8 19v144q0 20 15 35l280 291h-263q-11 0 -19 8t-8 19v149q0 11 8 19t19 8h553q11 0 19 -8t8 -19v-142q0 -20 -13 -33l-265 -293h264zM363 922h197q19 0 19 -20q0 -7 -5 -12l-158 -130
q-11 -10 -41 -10h-140q-16 0 -16 16q0 8 5 13l102 124q17 19 37 19z" />
    <glyph glyph-name="zacute" unicode="&#x17a;" horiz-adv-x="624" 
d="M547 172q11 0 19 -8t8 -19v-118q0 -11 -8 -19t-19 -8h-470q-11 0 -19 8t-8 19v115q0 21 16 35l199 171h-181q-11 0 -19 8t-8 19v118q0 11 8 19t19 8h442q11 0 19 -8t8 -19v-126q0 -17 -14 -29l-190 -166h198zM361 736h187q19 0 19 -20q0 -7 -5 -12l-158 -125
q-11 -10 -41 -10h-130q-16 0 -16 16q0 8 5 13l102 119q17 19 37 19z" />
    <glyph glyph-name="Zdotaccent" unicode="&#x17b;" horiz-adv-x="715" 
d="M643 205q11 0 19 -8t8 -19v-151q0 -11 -8 -19t-19 -8h-571q-11 0 -19 8t-8 19v144q0 20 15 35l280 291h-263q-11 0 -19 8t-8 19v149q0 11 8 19t19 8h553q11 0 19 -8t8 -19v-142q0 -20 -13 -33l-265 -293h264zM291 922h136q10 0 16.5 -6.5t6.5 -16.5v-136
q0 -10 -6.5 -16.5t-16.5 -6.5h-136q-10 0 -16.5 6.5t-6.5 16.5v136q0 10 6.5 16.5t16.5 6.5z" />
    <glyph glyph-name="zdotaccent" unicode="&#x17c;" horiz-adv-x="624" 
d="M547 172q11 0 19 -8t8 -19v-118q0 -11 -8 -19t-19 -8h-470q-11 0 -19 8t-8 19v115q0 21 16 35l199 171h-181q-11 0 -19 8t-8 19v118q0 11 8 19t19 8h442q11 0 19 -8t8 -19v-126q0 -17 -14 -29l-190 -166h198zM246 736h131q10 0 16.5 -6.5t6.5 -16.5v-131
q0 -10 -6.5 -16.5t-16.5 -6.5h-131q-10 0 -16.5 6.5t-6.5 16.5v131q0 10 6.5 16.5t16.5 6.5z" />
    <glyph glyph-name="Zcaron" unicode="&#x17d;" horiz-adv-x="715" 
d="M643 205q11 0 19 -8t8 -19v-151q0 -11 -8 -19t-19 -8h-571q-11 0 -19 8t-8 19v144q0 20 15 35l280 291h-263q-11 0 -19 8t-8 19v149q0 11 8 19t19 8h553q11 0 19 -8t8 -19v-142q0 -20 -13 -33l-265 -293h264zM423 750h-130q-11 0 -16 3t-21 16l-117 124q-5 5 -5 13
q0 16 16 16h71q19 0 40 -7l97 -42l97 42q21 7 40 7h71q16 0 16 -16q0 -8 -5 -13l-117 -124q-16 -13 -21 -16t-16 -3z" />
    <glyph glyph-name="zcaron" unicode="&#x17e;" horiz-adv-x="624" 
d="M547 172q11 0 19 -8t8 -19v-118q0 -11 -8 -19t-19 -8h-470q-11 0 -19 8t-8 19v115q0 21 16 35l199 171h-181q-11 0 -19 8t-8 19v118q0 11 8 19t19 8h442q11 0 19 -8t8 -19v-126q0 -17 -14 -29l-190 -166h198zM377 570h-130q-11 0 -16 3t-21 16l-117 124q-5 5 -5 13
q0 16 16 16h71q19 0 40 -7l97 -42l97 42q21 7 40 7h71q16 0 16 -16q0 -8 -5 -13l-117 -124q-16 -13 -21 -16t-16 -3z" />
    <glyph glyph-name="longs" unicode="&#x17f;" horiz-adv-x="511" 
d="M340 532v-505q0 -11 -8 -19t-19 -8h-175q-11 0 -19 8t-8 19v318h-69q-11 0 -19 8t-8 19v121q0 11 8 19t19 8h69v17q0 114 69 158.5t191 44.5h93q11 0 19 -8t8 -19v-121q0 -11 -8 -19t-19 -8h-81q-43 0 -43 -33z" />
    <glyph glyph-name="florin" unicode="&#x192;" horiz-adv-x="511" 
d="M-22 -279v149q0 11 8 19t19 8h39q34 0 50.5 18.5t16.5 62.5v367h-69q-11 0 -19 8t-8 19v121q0 11 8 19t19 8h69v17q0 114 69 158.5t191 44.5h93q11 0 19 -8t8 -19v-121q0 -11 -8 -19t-19 -8h-81q-43 0 -43 -33v-12h113q11 0 19 -8t8 -19v-121q0 -11 -8 -19t-19 -8h-113
v-378q0 -273 -296 -273h-39q-11 0 -19 8t-8 19z" />
    <glyph glyph-name="AEacute" unicode="&#x1fc;" horiz-adv-x="994" 
d="M284 700h660q11 0 19 -8t8 -19v-141q0 -11 -8 -19t-19 -8h-270v-63h248q11 0 19 -8t8 -19v-130q0 -11 -8 -19t-19 -8h-248v-63h278q11 0 19 -8t8 -19v-141q0 -11 -8 -19t-19 -8h-491q-11 0 -19 8t-8 19v64h-149l-24 -66q-9 -25 -39 -25h-185q-9 0 -15.5 6.5t-6.5 13
t1 9.5l223 638q9 33 45 33zM434 286v219h-32l-66 -219h98zM594 922h197q19 0 19 -20q0 -7 -5 -12l-158 -130q-11 -10 -41 -10h-140q-16 0 -16 16q0 8 5 13l102 124q17 19 37 19z" />
    <glyph glyph-name="aeacute" unicode="&#x1fd;" horiz-adv-x="962" 
d="M35 149q0 135 219 173l106 17q0 30 -5 40.5t-23.5 10.5t-36.5 -16t-34 -16h-170q-22 0 -22 21.5t15.5 46t45 48.5t83 40t119.5 16q106 0 157 -37q69 37 153 37q140 0 212.5 -77t72.5 -195v-30q0 -11 -8 -19t-19 -8h-298v-5q0 -61 39 -61q11 0 27 16t35 16h189
q22 0 22 -22q0 -49 -73.5 -102t-197.5 -53t-197 61q-72 -61 -197 -61q-99 0 -156.5 44.5t-57.5 114.5zM298 138q65 0 65 78l-59 -13q-44 -10 -44 -37q0 -12 10 -20t28 -8zM642 390q-40 0 -40 -60v-4h80v4q0 60 -40 60zM532 736h187q19 0 19 -20q0 -7 -5 -12l-158 -125
q-11 -10 -41 -10h-130q-16 0 -16 16q0 8 5 13l102 119q17 19 37 19z" />
    <glyph glyph-name="Oslashacute" unicode="&#x1fe;" 
d="M379 710q107 0 186.5 -39t117.5 -112l43 17q8 3 14 3t12 -6t6 -15v-108q0 -25 -22 -33l-23 -9v-138q0 -137 -90.5 -208.5t-243.5 -71.5q-116 0 -198 41.5t-115 122.5l-34 -13q-8 -3 -14 -3t-12 6t-6 15v108q0 25 22 33l23 9v117q0 136 91.5 210t242.5 74zM379 185
q34 0 54 20t20 61v40l-147 -58q7 -63 73 -63zM379 515q-34 0 -54 -20.5t-20 -60.5v-23l143 56q-15 48 -69 48zM414 922h197q19 0 19 -20q0 -7 -5 -12l-158 -130q-11 -10 -41 -10h-140q-16 0 -16 16q0 8 5 13l102 124q17 19 37 19z" />
    <glyph glyph-name="oslashacute" unicode="&#x1ff;" horiz-adv-x="650" 
d="M615 294v-68q0 -115 -78 -175.5t-212 -60.5q-190 0 -259 113l-34 -13q-8 -3 -14 -3t-12 6t-6 15v68q0 25 22 33l13 5v80q0 114 81 175t209 61q176 0 252 -106l41 16q8 3 14 3t12 -6t6 -15v-68q0 -25 -22 -33l-14 -6zM360 165q10 15 10 53v3l-88 -34q3 -21 13 -29t32.5 -8
t32.5 15zM291 356.5q-10 -13.5 -11 -47.5l86 33q-8 28 -36.5 28t-38.5 -13.5zM374 736h187q19 0 19 -20q0 -7 -5 -12l-158 -125q-11 -10 -41 -10h-130q-16 0 -16 16q0 8 5 13l102 119q17 19 37 19z" />
    <glyph glyph-name="Scommaaccent" unicode="&#x218;" horiz-adv-x="721" 
d="M131.5 646q84.5 64 222 64t225 -67t87.5 -140q0 -9 -6.5 -15.5t-14.5 -6.5h-200q-23 0 -42 17t-51 17q-48 0 -48 -28q0 -15 23.5 -25t87.5 -18q149 -19 212.5 -69.5t63.5 -153t-93.5 -167t-244.5 -64.5t-237 62t-86 151q0 9 6.5 15.5t15.5 6.5h190q21 0 46.5 -20
t70.5 -20q75 0 75 28q0 18 -27 27.5t-102 19.5q-258 34 -258 220q0 102 84.5 166zM316 -250h-117q-19 0 -19 19q0 5 5 15l75 146q9 20 42 20h140q16 0 16 -16q0 -8 -5 -15l-100 -150q-12 -19 -37 -19z" />
    <glyph glyph-name="scommaaccent" unicode="&#x219;" horiz-adv-x="604" 
d="M327 144q0 10 -5 16q-13 16 -96 31.5t-134.5 55t-51.5 110.5t68 122t183.5 51t189.5 -48t74 -97q0 -11 -6.5 -19t-15.5 -8h-168q-15 0 -37 16t-33 16q-23 0 -23 -16q0 -10 5 -16q13 -15 109 -29t143.5 -61.5t47.5 -105.5q0 -81 -73 -127t-207 -46q-71 0 -126 16t-84 40
q-57 47 -57 88q0 11 7 19t17 8h174q14 0 36.5 -15.5t42.5 -15.5t20 15zM249 -240h-107q-19 0 -19 19q0 5 5 15l65 136q9 20 42 20h130q16 0 16 -16q0 -8 -5 -15l-90 -140q-12 -19 -37 -19z" />
    <glyph glyph-name="dotlessj" unicode="&#x237;" horiz-adv-x="495" 
d="M185 -190h-133q-11 0 -19 8t-8 19v156q0 11 8 19t19 8h101q43 0 43 50v267h-141q-11 0 -19 8t-8 19v129q0 11 8 19t19 8h358q11 0 19 -8t8 -19v-423q0 -120 -71.5 -190t-183.5 -70z" />
    <glyph glyph-name="circumflex" unicode="&#x2c6;" horiz-adv-x="538" 
d="M204 736h130q12 0 18 -3t19 -16l112 -119q5 -5 5 -13q0 -16 -16 -16h-71q-26 0 -40 7l-92 42l-92 -42q-14 -7 -40 -7h-71q-16 0 -16 16q0 8 5 13l112 119q13 13 19 16t18 3z" />
    <glyph glyph-name="caron" unicode="&#x2c7;" horiz-adv-x="548" 
d="M339 570h-130q-11 0 -16 3t-21 16l-117 124q-5 5 -5 13q0 16 16 16h71q19 0 40 -7l97 -42l97 42q21 7 40 7h71q16 0 16 -16q0 -8 -5 -13l-117 -124q-16 -13 -21 -16t-16 -3z" />
    <glyph glyph-name="breve" unicode="&#x2d8;" horiz-adv-x="445" 
d="M263 714q0 19 19 19h94q19 0 19 -19q0 -68 -45.5 -107t-127.5 -39t-127 39t-45 107q0 19 19 19h94q19 0 19 -19q0 -50 40.5 -50t40.5 50z" />
    <glyph glyph-name="dotaccent" unicode="&#x2d9;" horiz-adv-x="277" 
d="M73 736h131q10 0 16.5 -6.5t6.5 -16.5v-131q0 -10 -6.5 -16.5t-16.5 -6.5h-131q-10 0 -16.5 6.5t-6.5 16.5v131q0 10 6.5 16.5t16.5 6.5z" />
    <glyph glyph-name="ring" unicode="&#x2da;" horiz-adv-x="321" 
d="M160 560q-52 0 -81 26t-29 67.5t29.5 67.5t81 26t81 -26t29.5 -67.5t-29.5 -67.5t-81.5 -26zM160 623q28 0 28 30.5t-28 30.5q-12 0 -20 -8t-8 -22q0 -31 28 -31z" />
    <glyph glyph-name="ogonek" unicode="&#x2db;" horiz-adv-x="303" 
d="M226 -80q11 0 19 -8t8 -19v-58q0 -11 -8 -19t-19 -8h-14q-80 0 -121 42.5t-41 109.5t41 109.5t121 42.5h14q11 0 19 -8t8 -19v-58q0 -11 -8 -19t-19 -8h-10q-50 0 -50 -40t50 -40h10z" />
    <glyph glyph-name="tilde" unicode="&#x2dc;" horiz-adv-x="507" 
d="M404 594q-32 -26 -69 -26t-75 18.5t-48.5 18.5t-16.5 -1.5t-9.5 -2.5t-6.5 -4.5t-5 -4.5q-6 -7 -6 -12q-5 -9 -15 -9h-84q-8 0 -13.5 5.5t-5.5 19t7 36.5t21 47.5t41 40.5t61.5 16t70.5 -18.5t46 -18.5t16.5 1.5t10.5 5.5q6 4 13 15.5t17 11.5h84q19 0 19 -19
q0 -76 -53 -120z" />
    <glyph glyph-name="hungarumlaut" unicode="&#x2dd;" horiz-adv-x="622" 
d="M147 737h148q20 0 20 -19q0 -7 -6 -13l-122 -128q-6 -7 -30 -7h-91q-16 0 -16 16q0 5 5 15l55 117q7 17 22 18q4 1 15 1zM404 737h148q20 0 20 -19q0 -7 -6 -13l-122 -128q-6 -7 -40 -7h-81q-16 0 -16 16q0 5 5 15l55 117q7 17 22 18q4 1 15 1z" />
    <glyph glyph-name="uni0400" unicode="&#x400;" horiz-adv-x="695" 
d="M305 195h308q11 0 19 -8t8 -19v-141q0 -11 -8 -19t-19 -8h-521q-11 0 -19 8t-8 19v646q0 11 8 19t19 8h513q11 0 19 -8t8 -19v-141q0 -11 -8 -19t-19 -8h-300v-63h278q11 0 19 -8t8 -19v-130q0 -11 -8 -19t-19 -8h-278v-63zM522 765q0 -16 -16 -16h-130q-30 0 -41 10
l-158 125q-5 5 -5 12q0 20 19 20h187q20 0 37 -19l102 -119q5 -5 5 -13z" />
    <glyph glyph-name="afii10023" unicode="&#x401;" horiz-adv-x="695" 
d="M613 195q11 0 19 -8t8 -19v-141q0 -11 -8 -19t-19 -8h-521q-11 0 -19 8t-8 19v646q0 11 8 19t19 8h513q11 0 19 -8t8 -19v-141q0 -11 -8 -19t-19 -8h-300v-63h278q11 0 19 -8t8 -19v-130q0 -11 -8 -19t-19 -8h-278v-63h308zM414 922h126q10 0 16.5 -6.5t6.5 -16.5v-126
q0 -10 -6.5 -16.5t-16.5 -6.5h-126q-10 0 -16.5 6.5t-6.5 16.5v126q0 10 6.5 16.5t16.5 6.5zM143 922h126q10 0 16.5 -6.5t6.5 -16.5v-126q0 -10 -6.5 -16.5t-16.5 -6.5h-126q-10 0 -16.5 6.5t-6.5 16.5v126q0 10 6.5 16.5t16.5 6.5z" />
    <glyph glyph-name="afii10051" unicode="&#x402;" horiz-adv-x="813" 
d="M768 222v-155q0 -137 -80.5 -202.5t-223.5 -65.5h-9q-11 0 -19 8t-8 19v126q0 11 8 19t19 8h19q57 0 57 99v137q0 65 -60 65h-56v-253q0 -11 -8 -19t-19 -8h-185q-11 0 -19 8t-8 19v496h-123q-10 0 -16.5 6.5t-6.5 16.5v131q0 10 6.5 16.5t16.5 6.5h512q10 0 16.5 -6.5
t6.5 -16.5v-131q0 -10 -6.5 -16.5t-16.5 -6.5h-150v-53h56q149 0 223 -59t74 -189z" />
    <glyph glyph-name="afii10052" unicode="&#x403;" horiz-adv-x="643" 
d="M319 495v-468q0 -11 -8 -19t-19 -8h-200q-11 0 -19 8t-8 19v646q0 11 8 19t19 8h504q11 0 19 -8t8 -19v-151q0 -11 -8 -19t-19 -8h-277zM389 916h187q19 0 19 -20q0 -7 -5 -12l-158 -125q-11 -10 -41 -10h-130q-16 0 -16 16q0 8 5 13l102 119q17 19 37 19z" />
    <glyph glyph-name="afii10053" unicode="&#x404;" horiz-adv-x="747" 
d="M40 305v91q0 145 93.5 229.5t238.5 84.5t242.5 -70t97.5 -175q0 -9 -6.5 -15.5t-15.5 -6.5h-194q-29 0 -41 29q-18 44 -76 44q-79 0 -79 -80h114q11 0 19 -8t8 -19v-116q0 -11 -8 -19t-19 -8h-114q0 -81 79 -81q58 0 76 44q12 29 41 29h194q9 0 15.5 -6.5t6.5 -15.5
q0 -105 -97.5 -175.5t-242.5 -70.5t-238.5 85t-93.5 230z" />
    <glyph glyph-name="afii10054" unicode="&#x405;" horiz-adv-x="721" 
d="M131.5 646q84.5 64 222 64t225 -67t87.5 -140q0 -9 -6.5 -15.5t-14.5 -6.5h-200q-23 0 -42 17t-51 17q-48 0 -48 -28q0 -15 23.5 -25t87.5 -18q149 -19 212.5 -69.5t63.5 -153t-93.5 -167t-244.5 -64.5t-237 62t-86 151q0 9 6.5 15.5t15.5 6.5h190q21 0 46.5 -20
t70.5 -20q75 0 75 28q0 18 -27 27.5t-102 19.5q-258 34 -258 220q0 102 84.5 166z" />
    <glyph glyph-name="afii10055" unicode="&#x406;" horiz-adv-x="378" 
d="M296 0h-204q-11 0 -19 8t-8 19v646q0 11 8 19t19 8h204q11 0 19 -8t8 -19v-646q0 -11 -8 -19t-19 -8z" />
    <glyph glyph-name="afii10056" unicode="&#x407;" horiz-adv-x="388" 
d="M296 0h-204q-11 0 -19 8t-8 19v646q0 11 8 19t19 8h204q11 0 19 -8t8 -19v-646q0 -11 -8 -19t-19 -8zM271 922h126q10 0 16.5 -6.5t6.5 -16.5v-126q0 -10 -6.5 -16.5t-16.5 -6.5h-126q-10 0 -16.5 6.5t-6.5 16.5v126q0 10 6.5 16.5t16.5 6.5zM0 922h126q10 0 16.5 -6.5
t6.5 -16.5v-126q0 -10 -6.5 -16.5t-16.5 -6.5h-126q-10 0 -16.5 6.5t-6.5 16.5v126q0 10 6.5 16.5t16.5 6.5z" />
    <glyph glyph-name="afii10057" unicode="&#x408;" horiz-adv-x="743" 
d="M683 673v-410q0 -136 -90.5 -204.5t-228.5 -68.5t-231 66t-93 179q0 9 6.5 15.5t15.5 6.5h204q16 0 24.5 -7.5t17.5 -27t21.5 -28.5t35.5 -9q59 0 59 81v231h-297q-11 0 -19 8t-8 19v149q0 11 8 19t19 8h529q11 0 19 -8t8 -19z" />
    <glyph glyph-name="afii10058" unicode="&#x409;" horiz-adv-x="1154" 
d="M48 -10q-11 0 -19.5 8t-8.5 19v147q0 11 8 19t19 8q74 0 74 77v405q0 11 8 19t19 8h578q11 0 19 -8t8 -19v-191h65q145 0 225.5 -58t80.5 -179t-81 -183t-225 -62h-298q-11 0 -19 8t-8 19v453h-122v-209q0 -140 -87 -210.5t-236 -70.5zM747 297v-111h70q24 0 35 17t11 42
t-14 38.5t-32 13.5h-70z" />
    <glyph glyph-name="afii10059" unicode="&#x40a;" horiz-adv-x="1132" 
d="M796 0h-298q-11 0 -19 8t-8 19v216h-156v-216q0 -11 -8 -19t-19 -8h-196q-11 0 -19 7.5t-8 19.5v646q0 11 8 19t19 8h196q11 0 19 -8t8 -19v-210h156v210q0 11 8 19t19 8h206q11 0 19 -8t8 -19v-191h65q145 0 225.5 -58t80.5 -179t-81 -183t-225 -62zM726 297v-111h70
q24 0 35 17t11 42t-14 38.5t-32 13.5h-70z" />
    <glyph glyph-name="afii10060" unicode="&#x40b;" horiz-adv-x="816" 
d="M531 27v174q0 65 -60 65h-56v-239q0 -11 -8 -19t-19 -8h-185q-11 0 -19 8t-8 19v496h-123q-10 0 -16.5 6.5t-6.5 16.5v131q0 10 6.5 16.5t16.5 6.5h510q10 0 16.5 -6.5t6.5 -16.5v-131q0 -10 -6.5 -16.5t-16.5 -6.5h-148v-57h56q300 0 300 -258v-181q0 -11 -8 -19t-19 -8
h-186q-11 0 -19 8t-8 19z" />
    <glyph glyph-name="afii10061" unicode="&#x40c;" horiz-adv-x="733" 
d="M720 33q3 -5 3 -12.5t-6.5 -14t-15.5 -6.5h-228q-29 0 -41 23l-122 218v-214q0 -11 -8 -19t-19 -8h-191q-11 0 -19 8t-8 19v646q0 11 8 19t19 8h191q11 0 19 -8t8 -19v-198l113 203q11 22 40 22h221q9 0 15.5 -6.5t6.5 -14t-3 -12.5l-180 -302zM394 922h197q19 0 19 -20
q0 -7 -5 -12l-158 -130q-11 -10 -41 -10h-140q-16 0 -16 16q0 8 5 13l102 124q17 19 37 19z" />
    <glyph glyph-name="uni040D" unicode="&#x40d;" horiz-adv-x="760" 
d="M92 700h181q11 0 19 -8t8 -19v-273l169 277q13 23 41 23h158q11 0 19 -8t8 -19v-646q0 -11 -8 -19t-19 -8h-181q-11 0 -19 8t-8 19v251l-169 -255q-15 -23 -41 -23h-158q-11 0 -19 8t-8 19v646q0 11 8 19t19 8zM508 765q0 -16 -16 -16h-130q-30 0 -41 10l-158 125
q-5 5 -5 12q0 20 19 20h187q20 0 37 -19l102 -119q5 -5 5 -13z" />
    <glyph glyph-name="afii10062" unicode="&#x40e;" horiz-adv-x="738" 
d="M114 214h100q50 0 55 14l-233 441q-1 3 -1 7q4 24 25 24h209q21 0 32 -24l93 -197l74 197q10 24 34 24h207q9 0 16 -6.5t7 -14.5t-1 -10l-199 -465q-52 -122 -109.5 -163t-183.5 -41h-125q-11 0 -19 8t-8 19v160q0 11 8 19t19 8zM431 894q0 19 19 19h94q19 0 19 -19
q0 -68 -45.5 -107t-127.5 -39t-127 39t-45 107q0 19 19 19h94q19 0 19 -19q0 -50 40.5 -50t40.5 50z" />
    <glyph glyph-name="afii10145" unicode="&#x40f;" horiz-adv-x="749" 
d="M315 220h122v453q0 11 8 19t19 8h193q11 0 19 -8t8 -19v-646q0 -11 -8 -19t-19 -8h-183v-96q0 -11 -8 -19t-19 -8h-147q-11 0 -19 8t-8 19v96h-181q-11 0 -19 8t-8 19v646q0 12 8 19.5t19 7.5h196q11 0 19 -8t8 -19v-453z" />
    <glyph glyph-name="afii10017" unicode="&#x410;" horiz-adv-x="785" 
d="M284 700h217q36 0 45 -33l223 -638q1 -3 1 -9.5t-6.5 -13t-15.5 -6.5h-185q-30 0 -39 25l-24 66h-215l-24 -66q-9 -25 -39 -25h-185q-9 0 -15.5 6.5t-6.5 13t1 9.5l223 638q9 33 45 33zM336 286h113l-57 186z" />
    <glyph glyph-name="afii10018" unicode="&#x411;" horiz-adv-x="696" 
d="M92 700h479q11 0 19 -8t8 -19v-141q0 -11 -8 -19t-19 -8h-256v-58h64q132 0 209.5 -57.5t77.5 -162.5t-76 -166t-211 -61h-287q-11 0 -19 8t-8 19v646q0 11 8 19t19 8zM315 280v-108h63q22 0 34 18t12 38t-12.5 36t-33.5 16h-63z" />
    <glyph glyph-name="afii10019" unicode="&#x412;" horiz-adv-x="756" 
d="M440 481q0 18 -10.5 32.5t-30.5 14.5h-84v-91h84q20 0 30.5 13t10.5 31zM315 270v-98h93q23 0 34.5 15.5t11.5 34.5v1q0 19 -12.5 33t-33.5 14h-93zM434 0h-342q-11 0 -19 8t-8 19v646q0 11 8 19t19 8h332q142 0 209.5 -51.5t67.5 -155.5v-3q0 -43 -25 -76.5t-55 -48.5
q40 -16 67.5 -56.5t27.5 -88.5q0 -220 -282 -220z" />
    <glyph glyph-name="afii10020" unicode="&#x413;" horiz-adv-x="643" 
d="M596 495h-277v-468q0 -11 -8 -19t-19 -8h-200q-11 0 -19 8t-8 19v646q0 11 8 19t19 8h504q11 0 19 -8t8 -19v-151q0 -11 -8 -19t-19 -8z" />
    <glyph glyph-name="afii10021" unicode="&#x414;" horiz-adv-x="872" 
d="M177 700h548q11 0 19 -8t8 -19v-453h43q11 0 19 -8t8 -19v-289q0 -11 -8 -19t-19 -8h-196q-11 0 -19 8t-8 19v96h-272v-96q0 -11 -8 -19t-19 -8h-196q-11 0 -19 7.5t-8 19.5v289q0 11 8 19t19 8h4q30 0 49.5 20t19.5 57v376q0 11 8 19t19 8zM502 480h-102v-184
q0 -56 -9 -76h111v260z" />
    <glyph glyph-name="afii10022" unicode="&#x415;" horiz-adv-x="695" 
d="M305 195h308q11 0 19 -8t8 -19v-141q0 -11 -8 -19t-19 -8h-521q-11 0 -19 8t-8 19v646q0 11 8 19t19 8h513q11 0 19 -8t8 -19v-141q0 -11 -8 -19t-19 -8h-300v-63h278q11 0 19 -8t8 -19v-130q0 -11 -8 -19t-19 -8h-278v-63z" />
    <glyph glyph-name="afii10024" unicode="&#x416;" horiz-adv-x="991" 
d="M978 33q3 -5 3 -12.5t-6.5 -14t-15.5 -6.5h-198q-29 0 -41 23l-112 248v-244q0 -11 -8 -19t-19 -8h-171q-11 0 -19 8t-8 19v244l-112 -248q-11 -23 -41 -23h-198q-9 0 -15.5 6.5t-6.5 14t3 12.5l167 332l-150 302q-3 5 -3 12.5t6.5 14t15.5 6.5h191q29 0 40 -22l103 -233
v228q0 11 8 19t19 8h171q11 0 19 -8t8 -19v-228l103 233q11 22 40 22h191q9 0 15.5 -6.5t6.5 -14t-3 -12.5l-150 -302z" />
    <glyph glyph-name="afii10025" unicode="&#x417;" horiz-adv-x="742" 
d="M427 470q0 45 -64 45q-37 0 -45.5 -6.5t-20 -18t-29.5 -11.5h-201q-9 0 -15.5 6.5t-6.5 23.5t10 44t34 55.5t59 50.5t91.5 36.5t125.5 14.5q140 0 231 -63.5t91 -159t-92 -141.5q97 -41 97 -135.5t-93 -157.5t-234 -63q-85 0 -151.5 21t-102.5 53q-71 65 -71 133
q0 9 6.5 15.5t15.5 6.5h201q18 0 36 -18t64 -18q69 0 69 44q0 33 -70 33h-101q-11 0 -19 9t-8 20v120q0 11 8 20t19 9h101q36 0 50.5 7t14.5 25z" />
    <glyph glyph-name="afii10026" unicode="&#x418;" horiz-adv-x="760" 
d="M92 700h181q11 0 19 -8t8 -19v-273l169 277q13 23 41 23h158q11 0 19 -8t8 -19v-646q0 -11 -8 -19t-19 -8h-181q-11 0 -19 8t-8 19v251l-169 -255q-15 -23 -41 -23h-158q-11 0 -19 8t-8 19v646q0 11 8 19t19 8z" />
    <glyph glyph-name="afii10027" unicode="&#x419;" horiz-adv-x="760" 
d="M92 700h181q11 0 19 -8t8 -19v-273l169 277q13 23 41 23h158q11 0 19 -8t8 -19v-646q0 -11 -8 -19t-19 -8h-181q-11 0 -19 8t-8 19v251l-169 -255q-15 -23 -41 -23h-158q-11 0 -19 8t-8 19v646q0 11 8 19t19 8zM418 906q0 19 19 19h99q19 0 19 -19q0 -71 -45 -113.5
t-132.5 -42.5t-132.5 43t-45 113q0 19 19 19h99q19 0 19 -19q0 -55 40.5 -55t40.5 55z" />
    <glyph glyph-name="afii10028" unicode="&#x41a;" horiz-adv-x="733" 
d="M720 33q3 -5 3 -12.5t-6.5 -14t-15.5 -6.5h-228q-29 0 -41 23l-122 218v-214q0 -11 -8 -19t-19 -8h-191q-11 0 -19 8t-8 19v646q0 11 8 19t19 8h191q11 0 19 -8t8 -19v-198l113 203q11 22 40 22h221q9 0 15.5 -6.5t6.5 -14t-3 -12.5l-180 -302z" />
    <glyph glyph-name="afii10029" unicode="&#x41b;" horiz-adv-x="808" 
d="M48 -10q-11 0 -19.5 8t-8.5 19v147q0 11 8 19t19 8q74 0 74 77v405q0 11 8 19t19 8h568q11 0 19 -8t8 -19v-646q0 -11 -8 -19t-19 -8h-196q-11 0 -19 8t-8 19v453h-122v-209q0 -140 -87 -210.5t-236 -70.5z" />
    <glyph glyph-name="afii10030" unicode="&#x41c;" horiz-adv-x="876" 
d="M626 700h158q11 0 19 -8t8 -19v-646q0 -11 -8 -19t-19 -8h-181q-11 0 -19 8t-8 19v274l-66 -108q-16 -25 -37 -25h-70q-21 0 -37 25l-66 108v-274q0 -11 -8 -19t-19 -8h-181q-11 0 -19 8t-8 19v646q0 11 8 19t19 8h158q28 0 43 -27l145 -240l145 240q15 27 43 27z" />
    <glyph glyph-name="afii10031" unicode="&#x41d;" horiz-adv-x="792" 
d="M504 700h196q11 0 19 -8t8 -19v-646q0 -11 -8 -19t-19 -8h-196q-11 0 -19 8t-8 19v216h-162v-216q0 -11 -8 -19t-19 -8h-196q-11 0 -19 7.5t-8 19.5v646q0 11 8 19t19 8h196q11 0 19 -8t8 -19v-210h162v210q0 11 8 19t19 8z" />
    <glyph glyph-name="afii10032" unicode="&#x41e;" 
d="M379 710q151 0 242.5 -74.5t91.5 -209.5v-156q0 -137 -90.5 -208.5t-243.5 -71.5t-243.5 71.5t-90.5 208.5v156q0 136 91.5 210t242.5 74zM379 185q34 0 54 20t20 61v168q0 40 -20 60.5t-54 20.5t-54 -20.5t-20 -60.5v-168q0 -41 20 -61t54 -20z" />
    <glyph glyph-name="afii10033" unicode="&#x41f;" horiz-adv-x="792" 
d="M92 700h608q11 0 19 -8t8 -19v-646q0 -11 -8 -19t-19 -8h-196q-11 0 -19 8t-8 19v453h-162v-453q0 -11 -8 -19t-19 -8h-196q-11 0 -19 7.5t-8 19.5v646q0 11 8 19t19 8z" />
    <glyph glyph-name="afii10034" unicode="&#x420;" horiz-adv-x="716" 
d="M92 700h298q144 0 225 -62t81 -183t-80.5 -179t-225.5 -58h-65v-191q0 -11 -8 -19t-19 -8h-206q-11 0 -19 8t-8 19v646q0 11 8 19t19 8zM320 514v-111h70q18 0 32 13.5t14 38.5t-11 42t-35 17h-70z" />
    <glyph glyph-name="afii10035" unicode="&#x421;" horiz-adv-x="747" 
d="M305 434v-168q0 -81 74 -81q57 0 75 54q5 17 12.5 23t24.5 6h204q9 0 15.5 -6.5t6.5 -15.5q0 -87 -50 -146q-92 -110 -287 -110q-153 0 -244 67.5t-91 207.5v170q0 137 93 206t242 69q195 0 287 -110q50 -59 50 -146q0 -9 -6.5 -15.5t-15.5 -6.5h-204q-16 0 -23.5 6
t-13.5 23q-19 54 -75 54q-74 0 -74 -81z" />
    <glyph glyph-name="afii10036" unicode="&#x422;" horiz-adv-x="700" 
d="M57 700h586q11 0 19 -8t8 -19v-161q0 -11 -8 -19t-19 -8h-166v-458q0 -11 -8 -19t-19 -8h-200q-11 0 -19 8t-8 19v458h-166q-11 0 -19 8t-8 19v161q0 11 8 19t19 8z" />
    <glyph glyph-name="afii10037" unicode="&#x423;" horiz-adv-x="728" 
d="M104 214h100q50 0 55 14l-233 441q-1 3 -1 7q4 24 25 24h209q21 0 32 -24l93 -197l74 197q10 24 34 24h207q9 0 16 -6.5t7 -14.5t-1 -10l-199 -465q-52 -122 -109.5 -163t-183.5 -41h-125q-11 0 -19 8t-8 19v160q0 11 8 19t19 8z" />
    <glyph glyph-name="afii10038" unicode="&#x424;" horiz-adv-x="839" 
d="M733.5 536.5q75.5 -70.5 75.5 -184.5t-75 -186.5t-202 -95.5v-63q0 -11 -8 -19t-19 -8h-176q-11 0 -19 8t-8 19v64q-124 25 -198 99t-74 185t74.5 181.5t197.5 93.5v63q0 11 8 19t19 8h176q11 0 19 -8t8 -19v-63q126 -23 201.5 -93.5zM527 263q57 26 57 88t-57 86v-174z
M307 437q-57 -24 -57 -86.5t57 -87.5v174z" />
    <glyph glyph-name="afii10039" unicode="&#x425;" horiz-adv-x="759" 
d="M746 33q3 -5 3 -12.5t-6.5 -14t-15.5 -6.5h-225q-27 0 -41 23l-87 134l-83 -134q-14 -23 -41 -23h-218q-9 0 -15.5 6.5t-6.5 14t3 12.5l210 325l-189 309q-3 6 -3 13t6.5 13.5t15.5 6.5h217q28 0 42 -25l70 -122l76 122q14 25 42 25h207q9 0 15.5 -6.5t6.5 -14t-3 -12.5
l-193 -306z" />
    <glyph glyph-name="afii10040" unicode="&#x426;" horiz-adv-x="788" 
d="M315 220h102v453q0 11 8 19t19 8h196q11 0 19 -8t8 -19v-453h74q11 0 19 -8t8 -19v-290q0 -11 -8 -19t-19 -8h-151q-11 0 -19 8t-8 19v97h-471q-11 0 -19 8t-8 19v646q0 12 8 19.5t19 7.5h196q11 0 19 -8t8 -19v-453z" />
    <glyph glyph-name="afii10041" unicode="&#x427;" horiz-adv-x="751" 
d="M292 673v-161q0 -78 67 -78h68v239q0 11 8 19t19 8h206q11 0 19 -8t8 -19v-646q0 -11 -8 -19t-19 -8h-206q-11 0 -19 8t-8 19v179h-71q-151 0 -238 78.5t-86 231.5l1 157q0 11 8 19t19 8h205q11 0 19 -8t8 -19z" />
    <glyph glyph-name="afii10042" unicode="&#x428;" horiz-adv-x="983" 
d="M891 0h-799q-11 0 -19 8t-8 19v646q0 12 8 19.5t19 7.5h186q11 0 19 -8t8 -19v-453h77v453q0 11 8 19t19 8h166q11 0 19 -8t8 -19v-453h76v453q0 11 8 19t19 8h186q11 0 19 -8t8 -19v-646q0 -11 -8 -19t-19 -8z" />
    <glyph glyph-name="afii10043" unicode="&#x429;" horiz-adv-x="1039" 
d="M814 0h-722q-11 0 -19 8t-8 19v646q0 12 8 19.5t19 7.5h186q11 0 19 -8t8 -19v-453h77v453q0 11 8 19t19 8h166q11 0 19 -8t8 -19v-453h76v453q0 11 8 19t19 8h186q11 0 19 -8t8 -19v-453h74q11 0 19 -8t8 -19v-290q0 -11 -8 -19t-19 -8h-151q-11 0 -19 8t-8 19v97z" />
    <glyph glyph-name="afii10044" unicode="&#x42a;" horiz-adv-x="821" 
d="M485 0h-298q-11 0 -19 8t-8 19v478h-113q-11 0 -19 8t-8 19v141q0 11 8 19t19 8h346q11 0 19 -8t8 -19v-191h65q145 0 225.5 -58t80.5 -179t-81 -183t-225 -62zM415 297v-111h70q24 0 35 17t11 42t-14 38.5t-32 13.5h-70z" />
    <glyph glyph-name="afii10045" unicode="&#x42b;" horiz-adv-x="1056" 
d="M390 0h-298q-11 0 -19 8t-8 19v646q0 11 8 19t19 8h206q11 0 19 -8t8 -19v-191h65q145 0 225.5 -58t80.5 -179t-81 -183t-225 -62zM320 297v-111h70q24 0 35 17t11 42t-14 38.5t-32 13.5h-70zM964 0h-204q-11 0 -19 8t-8 19v646q0 11 8 19t19 8h204q11 0 19 -8t8 -19
v-646q0 -11 -8 -19t-19 -8z" />
    <glyph glyph-name="afii10046" unicode="&#x42c;" horiz-adv-x="726" 
d="M390 0h-298q-11 0 -19 8t-8 19v646q0 11 8 19t19 8h206q11 0 19 -8t8 -19v-191h65q145 0 225.5 -58t80.5 -179t-81 -183t-225 -62zM320 297v-111h70q24 0 35 17t11 42t-14 38.5t-32 13.5h-70z" />
    <glyph glyph-name="afii10047" unicode="&#x42d;" horiz-adv-x="747" 
d="M712 396v-91q0 -145 -93.5 -230t-238.5 -85t-242.5 70.5t-97.5 175.5q0 9 6.5 15.5t15.5 6.5h194q29 0 41 -29q18 -44 76 -44q79 0 79 81h-114q-11 0 -19 8t-8 19v116q0 11 8 19t19 8h114q0 80 -79 80q-58 0 -76 -44q-12 -29 -41 -29h-194q-9 0 -15.5 6.5t-6.5 15.5
q0 105 97.5 175t242.5 70t238.5 -84.5t93.5 -229.5z" />
    <glyph glyph-name="afii10048" unicode="&#x42e;" horiz-adv-x="1105" 
d="M496.5 645.5q89.5 64.5 235 64.5t237 -74.5t91.5 -209.5v-156q0 -137 -90.5 -208.5t-239.5 -71.5t-238.5 64t-98.5 189h-78v-216q0 -11 -8 -19t-19 -8h-196q-11 0 -19 7.5t-8 19.5v646q0 11 8 19t19 8h196q11 0 19 -8t8 -19v-210h79q13 118 102.5 182.5zM726 185
q34 0 54 20t20 61v168q0 40 -20 60.5t-54 20.5t-54 -20.5t-20 -60.5v-168q0 -41 20 -61t54 -20z" />
    <glyph glyph-name="afii10049" unicode="&#x42f;" horiz-adv-x="742" 
d="M156 261q-108 69 -108 189.5t81 185t225 64.5h296q11 0 19 -8t8 -19v-646q0 -11 -8 -19t-19 -8h-196q-11 0 -19 8t-8 19v191h-41l-86 -191q-12 -27 -43 -27h-205q-9 0 -15.5 6.5t-6.5 13.5t3 13zM427 408v106h-73q-23 0 -34.5 -16.5t-11.5 -38.5t12 -36.5t34 -14.5h73z
" />
    <glyph glyph-name="afii10065" unicode="&#x430;" horiz-adv-x="645" 
d="M35 149q0 138 219 173l106 17q0 30 -5 40.5t-23.5 10.5t-36.5 -16t-34 -16h-170q-22 0 -22 21.5t15.5 46t45 48.5t83 40t119.5 16q134 0 201 -56t67 -160v-287q0 -11 -8 -19t-19 -8h-175q-11 0 -19 8t-8 19v28q-47 -65 -137 -65t-144.5 45.5t-54.5 113.5zM298 138
q65 0 65 78l-59 -13q-44 -10 -44 -37q0 -12 10 -20t28 -8z" />
    <glyph glyph-name="afii10066" unicode="&#x431;" horiz-adv-x="645" 
d="M340 730h143q11 0 19 -8t8 -28.5t-6.5 -37t-20.5 -30t-39.5 -37t-38.5 -35.5q-37 -36 -67 -74q123 -4 200 -65t77 -171v-18q0 -115 -78 -175.5t-212 -60.5t-212 60.5t-78 175.5v61q0 63 19.5 118.5t49.5 93t65 72t66 57.5q72 54 80 86q1 5 8 10.5t17 5.5zM370 225v18
q0 77 -45 77t-45 -77v-18q0 -41 10 -58t34.5 -17t35 18t10.5 57z" />
    <glyph glyph-name="afii10067" unicode="&#x432;" horiz-adv-x="645" 
d="M364 0h-287q-11 0 -19 8t-8 19v466q0 11 8 19t19 8h267q261 0 261 -156q0 -58 -46 -97q66 -39 66 -108q0 -159 -261 -159zM274 188v-51h70q26 0 36 6t10 21q0 24 -46 24h-70zM274 383v-51h70q46 0 46 24q0 15 -10 21t-36 6h-70z" />
    <glyph glyph-name="afii10068" unicode="&#x433;" horiz-adv-x="530" 
d="M77 520h396q11 0 19 -8t8 -19v-121q0 -11 -8 -19t-19 -8h-193v-318q0 -11 -8 -19t-19 -8h-175q-11 0 -19 8t-8 19l-1 466q0 11 8 19t19 8z" />
    <glyph glyph-name="afii10069" unicode="&#x434;" horiz-adv-x="707" 
d="M640 -103h-134q-11 0 -19 8t-8 19v75h-251v-75q0 -11 -8 -19t-19 -8h-134q-11 0 -19 8t-8 19v214q0 11 8 19t19 8h30q13 0 20.5 13.5t7.5 32.5v282q0 11 8 19t19 8h422q11 0 19 -8t8 -19v-328h39q11 0 19 -8t8 -19v-214q0 -11 -8 -19t-19 -8zM332 355v-135q0 -18 -4 -50
h65v185h-61z" />
    <glyph glyph-name="afii10070" unicode="&#x435;" horiz-adv-x="640" 
d="M578 201h-298v-5q0 -61 39 -61q11 0 27 16t35 16h189q22 0 22 -22q0 -49 -73.5 -102t-199 -53t-205 65.5t-79.5 180.5v48q0 109 81 177.5t212.5 68.5t204 -77t72.5 -195v-30q0 -11 -8 -19t-19 -8zM320 390q-40 0 -40 -60v-4h80v4q0 60 -40 60z" />
    <glyph glyph-name="afii10072" unicode="&#x436;" horiz-adv-x="883" 
d="M337 493q0 11 8 19t19 8h155q11 0 19 -8t8 -19v-154l78 164q10 17 29 17h172q10 0 17 -7t7 -16t-5 -16l-107 -195l132 -249q4 -6 4 -14.5t-7 -15.5t-17 -7h-180q-20 0 -31 17l-92 190v-180q0 -11 -8 -19t-19 -8h-155q-11 0 -19 8t-8 19v179l-91 -189q-11 -17 -31 -17
h-180q-10 0 -17 7t-7 15.5t4 14.5l131 248l-108 196q-5 7 -5 16t7 16t17 7h172q19 0 29 -17l79 -165v155z" />
    <glyph glyph-name="afii10073" unicode="&#x437;" horiz-adv-x="579" 
d="M191 219v85q0 9 6 15.5t15 6.5h65q24 0 32.5 5.5t8.5 18.5q0 26 -40 26q-31 0 -38 -3.5t-19 -12.5t-23 -9h-157q-7 0 -11.5 5t-4.5 18t7 33.5t25.5 43t46.5 39.5q64 40 179.5 40t190.5 -48t75 -118q0 -29 -19 -59.5t-58 -47.5q40 -16 58.5 -45t18.5 -59q0 -70 -75 -118
t-194 -48q-157 0 -222 79q-33 40 -33 83q0 7 4.5 12t11.5 5h157q11 0 23 -9t15 -11q11 -5 46.5 -5t35.5 26q0 30 -41 30h-65q-9 0 -15 6.5t-6 15.5z" />
    <glyph glyph-name="afii10074" unicode="&#x438;" horiz-adv-x="673" 
d="M596 0h-179q-11 0 -19 8t-8 19v163l-112 -179q-8 -11 -23 -11h-179q-11 0 -18.5 8t-7.5 19v466q0 11 8 19t19 8h179q11 0 19 -8t8 -19v-163l111 177q8 13 23 13h179q11 0 19 -8t8 -19v-466q0 -11 -8 -19t-19 -8z" />
    <glyph glyph-name="afii10075" unicode="&#x439;" horiz-adv-x="673" 
d="M596 0h-179q-11 0 -19 8t-8 19v163l-112 -179q-8 -11 -23 -11h-179q-11 0 -18.5 8t-7.5 19v466q0 11 8 19t19 8h179q11 0 19 -8t8 -19v-163l111 177q8 13 23 13h179q11 0 19 -8t8 -19v-466q0 -11 -8 -19t-19 -8zM377 714q0 19 19 19h94q19 0 19 -19q0 -68 -45.5 -107
t-127.5 -39t-127 39t-45 107q0 19 19 19h94q19 0 19 -19q0 -50 40.5 -50t40.5 50z" />
    <glyph glyph-name="afii10076" unicode="&#x43a;" horiz-adv-x="656" 
d="M279 493v-164l98 174q10 17 29 17h192q10 0 17 -7t7 -16t-5 -16l-127 -215l152 -229q4 -6 4 -14.5t-7 -15.5t-17 -7h-210q-20 0 -31 17l-102 170v-160q0 -11 -8 -19t-19 -8h-175q-11 0 -19 8t-8 19v466q0 11 8 19t19 8h175q11 0 19 -8t8 -19z" />
    <glyph glyph-name="afii10077" unicode="&#x43b;" horiz-adv-x="677" 
d="M94 -10h-27q-11 0 -19 8t-8 19v131q0 11 8 19t19 8h7q43 0 43 50v268q0 11 8 19t19 8h456q11 0 19 -8t8 -19v-466q0 -11 -8 -19t-19 -8h-179q-11 0 -19 8t-8 19v318h-45v-126q0 -115 -70 -172t-185 -57z" />
    <glyph glyph-name="afii10078" unicode="&#x43c;" horiz-adv-x="763" 
d="M521 520h171q9 0 15 -6t6 -14v-480q0 -8 -6 -14t-15 -6h-188q-9 0 -14.5 6t-5.5 14v164l-50 -80q-12 -19 -27 -19h-52q-16 0 -28 19l-49 80v-164q0 -8 -6 -14t-14 -6h-188q-8 0 -14 6t-6 14v480q0 8 6 14t14 6h171q20 0 32 -20l108 -178l108 178q12 20 32 20z" />
    <glyph glyph-name="afii10079" unicode="&#x43d;" horiz-adv-x="673" 
d="M596 0h-179q-11 0 -19 8t-8 19v148h-107v-148q0 -11 -8 -19t-19 -8h-179q-11 0 -19 8t-8 19v466q0 11 8 19t19 8h179q11 0 19 -8t8 -19v-143h107v143q0 11 8 19t19 8h179q11 0 19 -8t8 -19v-466q0 -11 -8 -19t-19 -8z" />
    <glyph glyph-name="afii10080" unicode="&#x43e;" horiz-adv-x="650" 
d="M35 226v68q0 114 81 175t209 61t209 -61t81 -175v-68q0 -115 -78 -175.5t-212 -60.5t-212 60.5t-78 175.5zM370 218v84q0 38 -10 53t-35 15t-35 -15t-10 -53v-84q0 -40 10 -54t35 -14t35 15t10 53z" />
    <glyph glyph-name="afii10081" unicode="&#x43f;" horiz-adv-x="673" 
d="M596 0h-179q-11 0 -19 8t-8 19v318h-107v-318q0 -11 -8 -19t-19 -8h-179q-11 0 -19 8t-8 19v466q0 11 8 19t19 8h519q11 0 19 -8t8 -19v-466q0 -11 -8 -19t-19 -8z" />
    <glyph glyph-name="afii10082" unicode="&#x440;" horiz-adv-x="669" 
d="M634 299v-79q0 -112 -60 -171t-146.5 -59t-138.5 47v-201q0 -11 -8 -19t-19 -8h-185q-11 0 -19 8t-8 19v657q0 11 8 19t19 8h170q11 0 19 -8t8 -19v-30q52 67 147 67t154 -56.5t59 -174.5zM289 293v-74q3 -50 50 -50q50 0 50 58v66q0 58 -50 58t-50 -58z" />
    <glyph glyph-name="afii10083" unicode="&#x441;" horiz-adv-x="638" 
d="M280 295v-70q0 -34 9 -49t28 -15t26 6.5t14.5 25t28.5 18.5h195q11 0 19 -8t8 -21t-9 -35t-31 -50t-54 -51.5t-84 -39.5t-115 -16q-125 0 -202.5 65.5t-77.5 181.5v46q0 116 77.5 181.5t202.5 65.5q74 0 134 -22.5t92.5 -55t49.5 -63.5t17 -47.5t-8 -24.5t-19 -8h-195
q-19 0 -29 20q-14 30 -37 30q-40 0 -40 -64z" />
    <glyph glyph-name="afii10084" unicode="&#x442;" horiz-adv-x="569" 
d="M37 520h495q11 0 19 -8t8 -19v-121q0 -11 -8 -19t-19 -8h-133v-318q0 -11 -8 -19t-19 -8h-175q-11 0 -19 8t-8 19v318h-133q-11 0 -19 8t-8 19v121q0 11 8 19t19 8z" />
    <glyph glyph-name="afii10085" unicode="&#x443;" horiz-adv-x="648" 
d="M109 -16h50q24 0 33.5 8.5t22.5 40.5l-194 456q-1 3 -1 7q4 24 25 24h169q23 0 32 -24l83 -228l84 228q8 24 34 24h167q9 0 16 -6.5t7 -14.5t-1 -10l-199 -465q-52 -123 -104.5 -169t-148.5 -46h-75q-11 0 -19 8t-8 19v121q0 11 8 19t19 8z" />
    <glyph glyph-name="afii10086" unicode="&#x444;" horiz-adv-x="920" 
d="M35 220v79q0 119 54.5 175t147.5 56q61 0 114 -51v194q0 11 8 19t19 8h150q11 0 19 -8t8 -19v-210q52 67 128 67q93 0 147.5 -56t54.5 -175v-79q0 -113 -55.5 -171.5t-146.5 -58.5q-39 0 -62 11t-51 36v-201q0 -11 -8 -19t-19 -8h-165q-11 0 -19 8t-8 19v201
q-27 -25 -51.5 -36t-62.5 -11q-91 0 -146.5 58.5t-55.5 171.5zM350 219v74q0 27 -12.5 42.5t-35.5 15.5t-32.5 -14.5t-9.5 -43.5v-66q0 -29 9.5 -43.5t32 -14.5t35.5 13.5t13 36.5zM570 293v-74q0 -23 13 -36.5t35.5 -13.5t32 14.5t9.5 43.5v66q0 29 -9.5 43.5t-32.5 14.5
t-35.5 -15.5t-12.5 -42.5z" />
    <glyph glyph-name="afii10087" unicode="&#x445;" horiz-adv-x="642" 
d="M628 37q4 -5 4 -14t-7 -16t-17 -7h-192q-18 0 -30 17l-66 97l-69 -97q-11 -17 -30 -17h-187q-10 0 -17 7t-7 16t4 14l162 231l-144 215q-4 6 -4 14.5t7 15.5t17 7h183q19 0 32 -19l58 -89l58 89q13 19 32 19h175q10 0 17 -7t7 -15.5t-4 -14.5l-147 -214z" />
    <glyph glyph-name="afii10088" unicode="&#x446;" horiz-adv-x="694" 
d="M491 0h-414q-11 0 -19 8t-8 19v466q0 11 8 19t19 8h169q11 0 19 -8t8 -19v-318h87v318q0 11 8 19t19 8h169q11 0 19 -8t8 -19v-318h64q11 0 19 -8t8 -19v-223q0 -11 -8 -19t-19 -8h-129q-11 0 -19 8t-8 19v75z" />
    <glyph glyph-name="afii10089" unicode="&#x447;" horiz-adv-x="665" 
d="M366 319v174q0 11 8 19t19 8h195q11 0 19 -8t8 -19v-466q0 -11 -8 -19t-19 -8h-195q-11 0 -19 8t-8 19v93h-36q-142 0 -216 56.5t-74 180.5v136q0 11 8 19t19 8h186q11 0 19 -8t8 -19v-129q0 -45 50 -45h36z" />
    <glyph glyph-name="afii10090" unicode="&#x448;" horiz-adv-x="865" 
d="M77 520h164q11 0 19 -8t8 -19v-318h59v318q0 11 8 19t19 8h154q11 0 19 -8t8 -19v-318h57v318q0 11 8 19t19 8h169q11 0 19 -8t8 -19v-466q0 -11 -8 -19t-19 -8h-711q-11 0 -19 8t-8 19v466q0 11 8 19t19 8z" />
    <glyph glyph-name="afii10091" unicode="&#x449;" horiz-adv-x="927" 
d="M724 0h-647q-11 0 -19 8t-8 19v466q0 11 8 19t19 8h164q11 0 19 -8t8 -19v-308h59v308q0 11 8 19t19 8h154q11 0 19 -8t8 -19v-308h57v308q0 11 8 19t19 8h169q11 0 19 -8t8 -19v-308h65q11 0 19 -8t8 -19v-233q0 -11 -8 -19t-19 -8h-129q-11 0 -19 8t-8 19v75z" />
    <glyph glyph-name="afii10092" unicode="&#x44a;" horiz-adv-x="766" 
d="M470 0h-277q-11 0 -19 8t-8 19v318h-109q-11 0 -19 8t-8 19v121q0 11 8 19t19 8h321q11 0 19 -8t8 -19v-60h65q116 0 188.5 -63t72.5 -155t-65.5 -153.5t-195.5 -61.5zM400 258v-81h70q46 0 46 39q0 16 -12 29t-34 13h-70z" />
    <glyph glyph-name="afii10093" unicode="&#x44b;" horiz-adv-x="944" 
d="M867 0h-179q-11 0 -19 8t-8 19v466q0 11 8 19t19 8h179q11 0 19 -8t8 -19v-466q0 -11 -8 -19t-19 -8zM355 0h-277q-11 0 -19 8t-8 19l-1 466q0 11 8 19t19 8h186q11 0 19 -8t8 -19v-60h65q116 0 188.5 -63t72.5 -155t-65.5 -153.5t-195.5 -61.5zM285 258v-81h70
q46 0 46 39q0 16 -12 29t-34 13h-70z" />
    <glyph glyph-name="afii10094" unicode="&#x44c;" horiz-adv-x="645" 
d="M355 0h-277q-11 0 -19 8t-8 19l-1 466q0 11 8 19t19 8h186q11 0 19 -8t8 -19v-60h65q116 0 188.5 -63t72.5 -155t-65.5 -153.5t-195.5 -61.5zM285 258v-81h70q46 0 46 39q0 16 -12 29t-34 13h-70z" />
    <glyph glyph-name="afii10095" unicode="&#x44d;" horiz-adv-x="643" 
d="M360 324q-11 35 -50.5 35t-53.5 -30q-10 -20 -29 -20h-175q-11 0 -19 8t-8 25t15 47.5t45.5 63t88.5 55t132 22.5q128 0 215 -66.5t87 -180.5v-46q0 -114 -86 -180.5t-214 -66.5q-63 0 -114 16t-81.5 39.5t-50.5 51.5q-37 50 -37 87q0 11 8 19t19 8h175q21 0 29 -20
q13 -30 54.5 -30t50.5 38h-60q-11 0 -19 8t-8 19v71q0 11 8 19t19 8h59z" />
    <glyph glyph-name="afii10096" unicode="&#x44e;" horiz-adv-x="943" 
d="M256 0h-179q-11 0 -19 8t-8 19v466q0 11 8 19t19 8h179q11 0 19 -8t8 -19v-143h51q20 87 96.5 133.5t196 46.5t200.5 -61t81 -175v-68q0 -115 -78 -175.5t-204 -60.5t-201.5 47t-92.5 138h-49v-148q0 -11 -8 -19t-19 -8zM663 218v84q0 38 -10 53t-35 15t-35 -15t-10 -53
v-84q0 -40 10 -54t35 -14t35 15t10 53z" />
    <glyph glyph-name="afii10097" unicode="&#x44f;" horiz-adv-x="670" 
d="M325 520h268q11 0 19 -8t8 -19v-466q0 -11 -8 -19t-19 -8h-186q-11 0 -19 8t-8 19v81h-44l-46 -91q-11 -17 -31 -17h-205q-10 0 -17 7t-7 15.5t4 14.5l83 146q-58 55 -58 129q0 92 69.5 150t196.5 58zM385 283v61h-60q-46 0 -46 -32q0 -29 46 -29h60z" />
    <glyph glyph-name="uni0450" unicode="&#x450;" horiz-adv-x="640" 
d="M578 201h-298v-5q0 -61 39 -61q11 0 27 16t35 16h189q22 0 22 -22q0 -49 -73.5 -102t-199 -53t-205 65.5t-79.5 180.5v48q0 109 81 177.5t212.5 68.5t204 -77t72.5 -195v-30q0 -11 -8 -19t-19 -8zM320 390q-40 0 -40 -60v-4h80v4q0 60 -40 60zM424 585q0 -16 -16 -16
h-130q-30 0 -41 10l-158 125q-5 5 -5 12q0 20 19 20h187q20 0 37 -19l102 -119q5 -5 5 -13z" />
    <glyph glyph-name="afii10071" unicode="&#x451;" horiz-adv-x="640" 
d="M578 201h-298v-5q0 -61 39 -61q11 0 27 16t35 16h189q22 0 22 -22q0 -49 -73.5 -102t-199 -53t-205 65.5t-79.5 180.5v48q0 109 81 177.5t212.5 68.5t204 -77t72.5 -195v-30q0 -11 -8 -19t-19 -8zM320 390q-40 0 -40 -60v-4h80v4q0 60 -40 60zM141 736h121
q10 0 16.5 -6.5t6.5 -16.5v-121q0 -10 -6.5 -16.5t-16.5 -6.5h-121q-10 0 -16.5 6.5t-6.5 16.5v121q0 10 6.5 16.5t16.5 6.5zM377 736h121q10 0 16.5 -6.5t6.5 -16.5v-121q0 -10 -6.5 -16.5t-16.5 -6.5h-121q-10 0 -16.5 6.5t-6.5 16.5v121q0 10 6.5 16.5t16.5 6.5z" />
    <glyph glyph-name="afii10099" unicode="&#x452;" horiz-adv-x="772" 
d="M369 276v-249q0 -11 -8 -19t-19 -8h-185q-11 0 -19 8t-8 19v492h-67q-10 0 -16.5 6.5t-6.5 16.5v91q0 10 6.5 16.5t16.5 6.5h67v27q0 11 8 19t19 8h185q11 0 19 -8t8 -19v-27h71q10 0 16.5 -6.5t6.5 -16.5v-91q0 -10 -6.5 -16.5t-16.5 -6.5h-71v-71q26 29 68.5 45.5
t88.5 16.5q83 0 142 -58.5t59 -169.5v-215q0 -137 -80.5 -202.5t-223.5 -65.5h-9q-11 0 -19 8t-8 19v126q0 11 8 19t19 8h19q57 0 57 99v198q0 26 -17.5 40.5t-42.5 14.5t-43 -14.5t-18 -40.5z" />
    <glyph glyph-name="afii10100" unicode="&#x453;" horiz-adv-x="530" 
d="M77 520h396q11 0 19 -8t8 -19v-121q0 -11 -8 -19t-19 -8h-193v-318q0 -11 -8 -19t-19 -8h-175q-11 0 -19 8t-8 19l-1 466q0 11 8 19t19 8zM313 736h187q19 0 19 -20q0 -7 -5 -12l-158 -125q-11 -10 -41 -10h-130q-16 0 -16 16q0 8 5 13l102 119q17 19 37 19z" />
    <glyph glyph-name="afii10101" unicode="&#x454;" horiz-adv-x="643" 
d="M387 329q-14 30 -53.5 30t-50.5 -35h59q11 0 19 -8t8 -19v-71q0 -11 -8 -19t-19 -8h-60q9 -38 50.5 -38t54.5 30q8 20 29 20h175q11 0 19 -8t8 -21t-8 -35t-28.5 -50t-51 -51.5t-81.5 -39.5t-114 -16q-128 0 -214 66.5t-86 180.5v46q0 114 87 180.5t215 66.5
q74 0 132 -22.5t89 -55.5q60 -64 60 -116q0 -11 -8 -19t-19 -8h-175q-19 0 -29 20z" />
    <glyph glyph-name="afii10102" unicode="&#x455;" horiz-adv-x="604" 
d="M327 144q0 10 -5 16q-13 16 -96 31.5t-134.5 55t-51.5 110.5t68 122t183.5 51t189.5 -48t74 -97q0 -11 -6.5 -19t-15.5 -8h-168q-15 0 -37 16t-33 16q-23 0 -23 -16q0 -10 5 -16q13 -15 109 -29t143.5 -61.5t47.5 -105.5q0 -81 -73 -127t-207 -46q-71 0 -126 16t-84 40
q-57 47 -57 88q0 11 7 19t17 8h174q14 0 36.5 -15.5t42.5 -15.5t20 15z" />
    <glyph glyph-name="afii10103" unicode="&#x456;" horiz-adv-x="333" 
d="M256 0h-179q-11 0 -19 8t-8 19v466q0 11 8 19t19 8h179q11 0 19 -8t8 -19v-466q0 -11 -8 -19t-19 -8zM278 713v-121q0 -11 -8 -19t-19 -8h-169q-11 0 -19 8t-8 19v121q0 11 8 19t19 8h169q11 0 19 -8t8 -19z" />
    <glyph glyph-name="afii10104" unicode="&#x457;" horiz-adv-x="333" 
d="M256 0h-179q-11 0 -19 8t-8 19v466q0 11 8 19t19 8h179q11 0 19 -8t8 -19v-466q0 -11 -8 -19t-19 -8zM-12 736h121q10 0 16.5 -6.5t6.5 -16.5v-121q0 -10 -6.5 -16.5t-16.5 -6.5h-121q-10 0 -16.5 6.5t-6.5 16.5v121q0 10 6.5 16.5t16.5 6.5zM224 736h121q10 0 16.5 -6.5
t6.5 -16.5v-121q0 -10 -6.5 -16.5t-16.5 -6.5h-121q-10 0 -16.5 6.5t-6.5 16.5v121q0 10 6.5 16.5t16.5 6.5z" />
    <glyph glyph-name="afii10105" unicode="&#x458;" horiz-adv-x="360" 
d="M55 -190h-88q-11 0 -19 8t-8 19v121q0 11 8 19t19 8h58q43 0 43 50v458q0 11 8 19t19 8h188q11 0 19 -8t8 -19v-454q0 -115 -70 -172t-185 -57zM305 713v-121q0 -11 -8 -19t-19 -8h-178q-11 0 -19 8t-8 19v121q0 11 8 19t19 8h178q11 0 19 -8t8 -19z" />
    <glyph glyph-name="afii10106" unicode="&#x459;" horiz-adv-x="994" 
d="M698 0h-272q-11 0 -19 8t-8 19v318h-55v-126q0 -115 -68 -172t-182 -57h-27q-11 0 -19 8t-8 19v131q0 11 8 19t19 8h7q43 0 43 50v268q0 11 8 19t19 8h462q11 0 19 -8t8 -19v-60h65q116 0 188.5 -63t72.5 -155t-65.5 -153.5t-195.5 -61.5zM628 258v-81h70q46 0 46 39
q0 16 -12 29t-34 13h-70z" />
    <glyph glyph-name="afii10107" unicode="&#x45a;" horiz-adv-x="959" 
d="M663 0h-272q-11 0 -19 8t-8 19v148h-86v-148q0 -11 -8 -19t-19 -8h-174q-11 0 -19 8t-8 19v466q0 11 8 19t19 8h174q11 0 19 -8t8 -19v-143h85v143q0 11 8 19t19 8h181q11 0 19 -8t8 -19v-60h65q116 0 188.5 -63t72.5 -155t-65.5 -153.5t-195.5 -61.5zM593 258v-81h70
q46 0 46 39q0 16 -12 29t-34 13h-70z" />
    <glyph glyph-name="afii10108" unicode="&#x45b;" horiz-adv-x="775" 
d="M369 276v-249q0 -11 -8 -19t-19 -8h-185q-11 0 -19 8t-8 19v492h-67q-10 0 -16.5 6.5t-6.5 16.5v91q0 10 6.5 16.5t16.5 6.5h67v27q0 11 8 19t19 8h185q11 0 19 -8t8 -19v-27h71q10 0 16.5 -6.5t6.5 -16.5v-91q0 -10 -6.5 -16.5t-16.5 -6.5h-71v-71q26 29 68.5 45.5
t88.5 16.5q84 0 144 -58t60 -169v-255q0 -11 -8 -19t-19 -8h-196q-11 0 -19 8t-8 19v248q0 26 -15 40.5t-40 14.5t-40.5 -14.5t-15.5 -40.5z" />
    <glyph glyph-name="afii10109" unicode="&#x45c;" horiz-adv-x="656" 
d="M279 493v-164l98 174q10 17 29 17h192q10 0 17 -7t7 -16t-5 -16l-127 -215l152 -229q4 -6 4 -14.5t-7 -15.5t-17 -7h-210q-20 0 -31 17l-102 170v-160q0 -11 -8 -19t-19 -8h-175q-11 0 -19 8t-8 19v466q0 11 8 19t19 8h175q11 0 19 -8t8 -19zM369 736h187q19 0 19 -20
q0 -7 -5 -12l-158 -125q-11 -10 -41 -10h-130q-16 0 -16 16q0 8 5 13l102 119q17 19 37 19z" />
    <glyph glyph-name="uni045D" unicode="&#x45d;" horiz-adv-x="673" 
d="M596 0h-179q-11 0 -19 8t-8 19v163l-112 -179q-8 -11 -23 -11h-179q-11 0 -18.5 8t-7.5 19v466q0 11 8 19t19 8h179q11 0 19 -8t8 -19v-163l111 177q8 13 23 13h179q11 0 19 -8t8 -19v-466q0 -11 -8 -19t-19 -8zM460 585q0 -16 -16 -16h-130q-30 0 -41 10l-158 125
q-5 5 -5 12q0 20 19 20h187q20 0 37 -19l102 -119q5 -5 5 -13z" />
    <glyph glyph-name="afii10110" unicode="&#x45e;" horiz-adv-x="648" 
d="M109 -16h50q24 0 33.5 8.5t22.5 40.5l-194 456q-1 3 -1 7q4 24 25 24h169q23 0 32 -24l83 -228l84 228q8 24 34 24h167q9 0 16 -6.5t7 -14.5t-1 -10l-199 -465q-52 -123 -104.5 -169t-148.5 -46h-75q-11 0 -19 8t-8 19v121q0 11 8 19t19 8zM371 714q0 19 19 19h94
q19 0 19 -19q0 -68 -45.5 -107t-127.5 -39t-127 39t-45 107q0 19 19 19h94q19 0 19 -19q0 -50 40.5 -50t40.5 50z" />
    <glyph glyph-name="afii10193" unicode="&#x45f;" horiz-adv-x="673" 
d="M550 0h-137v-80q0 -22 -27 -22h-129q-11 0 -19 8t-8 19v75h-139q-11 0 -19 8t-8 19v466q0 11 8 19t19 8h159q11 0 19 -8t8 -19v-308h87v308q0 11 8 19t19 8h159q11 0 19 -8t8 -19v-466q0 -11 -8 -19t-19 -8z" />
    <glyph glyph-name="afii10050" unicode="&#x490;" horiz-adv-x="643" 
d="M596 495h-277v-468q0 -11 -8 -19t-19 -8h-200q-11 0 -19 8t-8 19v646q0 11 8 19t19 8h316v77q0 11 8 19t19 8h161q11 0 19 -8t8 -19v-255q0 -11 -8 -19t-19 -8z" />
    <glyph glyph-name="afii10098" unicode="&#x491;" horiz-adv-x="550" 
d="M77 520h250v65q0 11 8 19t19 8h139q11 0 19 -8t8 -19v-213q0 -11 -8 -19t-19 -8h-213v-318q0 -11 -8 -19t-19 -8h-175q-11 0 -19 8t-8 19l-1 466q0 11 8 19t19 8z" />
    <glyph glyph-name="alefhebrew" unicode="&#x5d0;" horiz-adv-x="614" 
d="M225 140v-111q0 -13 -8 -21t-19 -8h-139q-11 0 -19 9t-8 20v107q0 98 20 154t74 100l-93 148q-3 6 -3 13t6.5 13.5t15.5 6.5h167q24 0 42 -25l109 -170q9 16 9 55v111q0 13 8 21t19 8h149q11 0 19 -9t8 -20v-115q0 -155 -102 -223l111 -171q3 -5 3 -12.5t-6.5 -14
t-15.5 -6.5h-175q-27 0 -41 23l-126 200q-5 -20 -5 -83z" />
    <glyph glyph-name="bethebrew" unicode="&#x5d1;" horiz-adv-x="585" 
d="M57 571h142q152 0 229 -57t77 -196v-143h33q11 0 19 -8t8 -19v-121q0 -11 -8 -19t-19 -8h-491q-11 0 -19 8t-8 19v121q0 11 8 19t19 8h225v146q0 75 -74 75h-141q-11 0 -19 8t-8 19v121q0 11 8 19t19 8z" />
    <glyph glyph-name="gimelhebrew" unicode="&#x5d2;" horiz-adv-x="613" 
d="M597 27q1 -3 1 -8t-8 -12t-20 -7h-179q-18 0 -27 26l-36 79q-26 -4 -43 -21.5t-17 -45.5v-9q0 -13 -8 -21t-19 -8h-179q-11 0 -19 9t-8 20v5q0 92 65.5 161t162.5 83v44q0 39 -19 61.5t-55 22.5h-51q-11 0 -19 8t-8 19v121q0 11 8 19t19 8h52q150 0 228.5 -61t78.5 -201
v-67z" />
    <glyph glyph-name="dalethebrew" unicode="&#x5d3;" horiz-adv-x="552" 
d="M495 396h-53v-369q0 -11 -8 -19t-19 -8h-177q-11 0 -19 8t-8 19v369h-174q-11 0 -19 8t-8 19v121q0 11 8 19t19 8h458q11 0 19 -8t8 -19v-121q0 -11 -8 -19t-19 -8z" />
    <glyph glyph-name="hehebrew" unicode="&#x5d4;" horiz-adv-x="675" 
d="M273 27q0 -11 -8 -19t-19 -8h-169q-11 0 -19 8t-8 19v302q0 11 8 19t19 8h169q11 0 19 -8t8 -19v-302zM77 571h257q147 0 221.5 -59.5t74.5 -193.5v-291q0 -11 -8 -19t-19 -8h-169q-11 0 -19 7.5t-8 18.5v295q0 75 -74 75h-256q-11 0 -19 8t-8 19v121q0 11 8 19t19 8z
" />
    <glyph glyph-name="vavhebrew" unicode="&#x5d5;" horiz-adv-x="343" 
d="M288 544v-517q0 -11 -8 -19t-19 -8h-179q-11 0 -19 8t-8 19v517q0 11 8 19t19 8h179q11 0 19 -8t8 -19z" />
    <glyph glyph-name="zayinhebrew" unicode="&#x5d6;" horiz-adv-x="500" 
d="M162 27v271q0 80 18 98h-143q-11 0 -19 8t-8 19v121q0 11 8 19t19 8h406q11 0 19 -8t8 -19v-121q0 -10 -7.5 -18.5t-19.5 -8.5h-2q-31 -2 -39 -21.5t-8 -73.5v-271q0 -13 -8.5 -21.5t-20.5 -8.5h-178q-11 0 -18 8t-7 19z" />
    <glyph glyph-name="hethebrew" unicode="&#x5d7;" horiz-adv-x="680" 
d="M77 571h262q150 0 223 -56.5t73 -196.5v-291q0 -11 -8 -19t-19 -8h-169q-11 0 -19 7.5t-8 18.5v295q0 75 -74 75h-65v-369q0 -11 -8 -19t-19 -8h-169q-11 0 -19 8t-8 19v517q0 11 8 19t19 8z" />
    <glyph glyph-name="tethebrew" unicode="&#x5d8;" horiz-adv-x="672" 
d="M339 581h3q141 0 218 -68t77 -185v-82q0 -118 -77.5 -187t-220 -69t-218.5 69t-76 191v294q0 11 8 19t19 8h158q11 0 19 -8t8 -19v-297q0 -72 84 -72t84 71v85q0 36 -23 55.5t-61 19.5h-2q-11 0 -19 8t-8 19v121q0 11 8 19t19 8z" />
    <glyph glyph-name="yodhebrew" unicode="&#x5d9;" horiz-adv-x="313" 
d="M273 544v-277q0 -11 -8 -19t-19 -8h-179q-11 0 -19 8t-8 19v277q0 11 8 19t19 8h179q11 0 19 -8t8 -19z" />
    <glyph glyph-name="finalkafhebrew" unicode="&#x5da;" horiz-adv-x="542" 
d="M485 396h-53v-493q0 -11 -8 -19t-19 -8h-167q-11 0 -19 8t-8 19v493h-174q-11 0 -19 8t-8 19v121q0 11 8 19t19 8h448q11 0 19 -8t8 -19v-121q0 -11 -8 -19t-19 -8z" />
    <glyph glyph-name="kafhebrew" unicode="&#x5db;" horiz-adv-x="526" 
d="M491 308v-45q0 -120 -75.5 -191.5t-220.5 -71.5h-148q-11 0 -19 8t-8 19v131q0 11 8 19t19 8h147q38 0 61 19.5t23 55.5v51q0 36 -23 55.5t-61 19.5h-147q-11 0 -19 8t-8 19v131q0 11 8 19t19 8h148q145 0 220.5 -71.5t75.5 -191.5z" />
    <glyph glyph-name="lamedhebrew" unicode="&#x5dc;" horiz-adv-x="566" 
d="M289 250v136h-242q-11 0 -19 8t-8 19v269q0 11 8 19t19 8h153q11 0 19 -8t8 -19v-111h267q11 0 19 -8t8 -19v-291q0 -118 -78 -190.5t-217 -72.5h-33q-11 0 -19 8t-8 19v131q0 11 8 19t19 8h32q28 0 46 18t18 57z" />
    <glyph glyph-name="finalmemhebrew" unicode="&#x5dd;" horiz-adv-x="655" 
d="M77 571h238q150 0 222.5 -56.5t72.5 -196.5v-290q0 -11 -8 -19.5t-20 -8.5h-505q-11 0 -19 8t-8 19v517q0 11 8 19t19 8zM324 396h-77v-221h151v146q0 75 -74 75z" />
    <glyph glyph-name="memhebrew" unicode="&#x5de;" horiz-adv-x="712" 
d="M54 571h317q147 0 221.5 -59.5t74.5 -193.5v-291q0 -11 -8 -19t-19 -8h-249q-11 0 -19 8t-8 19v111q0 11 8 19t19 8h53v156q0 75 -74 75h-32l-107 -371q-8 -25 -37 -25h-153q-10 0 -18 6.5t-8 12.5t2 12l111 365h-74q-11 0 -19 8t-8 19v121q0 11 8 19t19 8z" />
    <glyph glyph-name="finalnunhebrew" unicode="&#x5df;" horiz-adv-x="323" 
d="M273 544v-641q0 -11 -8 -19t-19 -8h-169q-11 0 -19 8t-8 19v641q0 11 8 19t19 8h169q11 0 19 -8t8 -19z" />
    <glyph glyph-name="nunhebrew" unicode="&#x5e0;" horiz-adv-x="452" 
d="M380 0h-328q-11 0 -19 8t-8 19v131q0 11 8 19t19 8h122v136q0 40 -18 57.5t-56 17.5h-47q-11 0 -19 8t-8 19v131q0 11 8 19t19 8h48q155 0 230.5 -61t75.5 -202v-291q0 -11 -8 -19t-19 -8z" />
    <glyph glyph-name="samekhhebrew" unicode="&#x5e1;" horiz-adv-x="626" 
d="M72 571h242q139 0 208 -67t69 -186v-72q0 -120 -69.5 -188t-209.5 -68t-203.5 67.5t-63.5 192.5v294q0 11 8 19t19 8zM313 396h-66v-149q0 -41 14.5 -56.5t51.5 -15.5t51.5 15t14.5 56v75q0 39 -15 57t-51 18z" />
    <glyph glyph-name="ayinhebrew" unicode="&#x5e2;" horiz-adv-x="670" 
d="M329 0h-282q-11 0 -19 8t-8 19v121q0 11 8 19t19 8h114l-125 365q-2 6 -2 12t8 12.5t18 6.5h163q29 0 37 -25l118 -357q24 19 24 61v295q0 11 8 18.5t19 7.5h169q11 0 19 -8t8 -19v-291q0 -140 -73 -196.5t-223 -56.5z" />
    <glyph glyph-name="finalpehebrew" unicode="&#x5e3;" horiz-adv-x="605" 
d="M533 -124h-158q-11 0 -19 8t-8 19v443q0 50 -64 50h-73v-23q0 -47 33 -47h7q11 0 19 -8t8 -19v-128q0 -11 -8 -19t-19 -8h-8q-104 0 -163.5 57.5t-59.5 176.5v166q0 11 8 19t19 8h238q275 0 275 -228v-440q0 -11 -8 -19t-19 -8z" />
    <glyph glyph-name="pehebrew" unicode="&#x5e4;" horiz-adv-x="655" 
d="M271 209h-8q-155 0 -196 98q-17 41 -17 101v136q0 11 8 19t19 8h268q138 0 206.5 -63t68.5 -175v-70q0 -121 -69 -192t-206 -71h-268q-11 0 -19 8t-8 19v126q0 11 8 19t19 8h267q79 0 79 83v73q0 75 -79 75h-113v-7q0 -33 33 -33h7q11 0 19 -8t8 -19v-108q0 -11 -8 -19
t-19 -8z" />
    <glyph glyph-name="finaltsadihebrew" unicode="&#x5e5;" horiz-adv-x="601" 
d="M363 431v111q0 13 8 21t19 8h149q11 0 19 -9t8 -20v-115q0 -178 -179 -276l92 -242q3 -9 3 -15t-6.5 -12t-15.5 -6h-169q-25 0 -35 24l-245 639q-2 6 -2 12.5t7 13t16 6.5h172q24 0 34 -24l79 -210q46 36 46 94z" />
    <glyph glyph-name="tsadihebrew" unicode="&#x5e6;" horiz-adv-x="587" 
d="M369 472v70q0 13 8 21t19 8h149q11 0 19 -9t8 -20v-74q0 -117 -107 -208l64 -84q15 -20 15 -35v-114q0 -11 -8 -19t-19 -8h-466q-11 0 -19 8t-8 19v126q0 11 8 19t19 8h239l-275 357q-5 7 -5 15t6.5 13.5t15.5 5.5h177q21 0 36 -19l109 -145q15 25 15 65z" />
    <glyph glyph-name="qofhebrew" unicode="&#x5e7;" horiz-adv-x="703" 
d="M436 250v146h-359q-11 0 -19 8t-8 19v121q0 11 8 19t19 8h554q11 0 19 -8t8 -19v-291q0 -119 -73.5 -191t-211.5 -72h-13q-11 0 -19 8t-8 19v131q0 11 8 19t19 8h12q28 0 46 18t18 57zM267 329v-493q0 -11 -8 -19t-19 -8h-163q-11 0 -19 8t-8 19v493q0 11 8 19t19 8h163
q11 0 19 -8t8 -19z" />
    <glyph glyph-name="reshhebrew" unicode="&#x5e8;" horiz-adv-x="546" 
d="M47 571h168q150 0 223 -56.5t73 -196.5v-291q0 -11 -8 -19t-19 -8h-169q-11 0 -19 7.5t-8 18.5v295q0 75 -74 75h-167q-11 0 -19 8t-8 19v121q0 11 8 19t19 8z" />
    <glyph glyph-name="shinhebrew" unicode="&#x5e9;" horiz-adv-x="882" 
d="M248 545v-267q29 10 50 33t21 53v178q0 13 8 21t19 8h139q11 0 19 -9t8 -20v-180q0 -146 -102 -197h140q38 0 61 19.5t23 55.5v305q0 11 8 18.5t19 7.5h149q11 0 19 -8t8 -19v-301q0 -124 -72 -188.5t-214 -64.5h-220q-142 0 -214 64.5t-72 188.5v301q0 11 8 19t19 8h149
q11 0 19 -7.5t8 -18.5z" />
    <glyph glyph-name="tavhebrew" unicode="&#x5ea;" horiz-adv-x="746" 
d="M57 571h348q147 0 221.5 -59.5t74.5 -193.5v-291q0 -11 -8 -19t-19 -8h-169q-11 0 -19 7.5t-8 18.5v295q0 75 -74 75h-70v-369q0 -11 -8 -19t-19 -8h-250q-11 0 -19 8t-8 19v111q0 11 8 19t19 8h54v231h-54q-11 0 -19 8t-8 19v121q0 11 8 19t19 8z" />
    <glyph glyph-name="afii57718" unicode="&#x5f2;" horiz-adv-x="833" 
d="M263 544v-277q0 -11 -8 -19t-19 -8h-179q-11 0 -19 8t-8 19v277q0 11 8 19t19 8h179q11 0 19 -8t8 -19zM550 544v-277q0 -11 -8 -19t-19 -8h-179q-11 0 -19 8t-8 19v277q0 11 8 19t19 8h179q11 0 19 -8t8 -19z" />
    <glyph glyph-name="uni05F3" unicode="&#x5f3;" horiz-adv-x="317" 
d="M110 710h165q9 0 15.5 -6.5t6.5 -13t-1 -9.5l-95 -241q-12 -32 -46 -32h-108q-9 0 -15.5 6.5t-6.5 15.5v2l37 239q2 15 15.5 27t32.5 12z" />
    <glyph glyph-name="uni05F4" unicode="&#x5f4;" horiz-adv-x="609" 
d="M110 710h165q9 0 15.5 -6.5t6.5 -13t-1 -9.5l-95 -241q-12 -32 -46 -32h-108q-9 0 -15.5 6.5t-6.5 15.5v2l37 239q2 15 15.5 27t32.5 12zM402 710h165q9 0 15.5 -6.5t6.5 -13t-1 -9.5l-95 -241q-12 -32 -46 -32h-108q-9 0 -15.5 6.5t-6.5 15.5v2l37 239q2 15 15.5 27
t32.5 12z" />
    <glyph glyph-name="Wgrave" unicode="&#x1e80;" horiz-adv-x="878" 
d="M316 0h-143q-19 0 -31.5 11.5t-14.5 26.5l-92 637v3q0 9 6.5 15.5t15.5 6.5h186q33 0 36 -27l34 -282l41 125q10 29 34 29h102q24 0 34 -29l41 -124l34 281q3 27 36 27h186q9 0 15.5 -6.5t6.5 -15.5v-3l-92 -637q-2 -15 -14.5 -26.5t-31.5 -11.5h-143q-31 0 -41 27
l-82 205l-82 -205q-10 -27 -41 -27zM530 766q0 -16 -16 -16h-140q-30 0 -41 10l-158 130q-5 5 -5 12q0 20 19 20h197q20 0 37 -19l102 -124q5 -5 5 -13z" />
    <glyph glyph-name="wgrave" unicode="&#x1e81;" horiz-adv-x="877" 
d="M392 520h93q27 0 34 -24l65 -208l61 208q7 24 34 24h154q10 0 17 -7t7 -14t-1 -11l-146 -463q-8 -25 -33 -25h-134q-25 0 -33 25l-71 202l-72 -202q-8 -25 -33 -25h-134q-25 0 -33 25l-146 463q-1 4 -1 11t7 14t17 7h154q27 0 34 -24l61 -208l65 208q7 24 34 24zM533 585
q0 -16 -16 -16h-130q-30 0 -41 10l-158 125q-5 5 -5 12q0 20 19 20h187q20 0 37 -19l102 -119q5 -5 5 -13z" />
    <glyph glyph-name="Wacute" unicode="&#x1e82;" horiz-adv-x="878" 
d="M562 0q-31 0 -41 27l-82 205l-82 -205q-10 -27 -41 -27h-143q-19 0 -31.5 11.5t-14.5 26.5l-92 637v3q0 9 6.5 15.5t15.5 6.5h186q33 0 36 -27l34 -282l41 125q10 29 34 29h102q24 0 34 -29l41 -124l34 281q3 27 36 27h186q9 0 15.5 -6.5t6.5 -15.5v-3l-92 -637
q-2 -15 -14.5 -26.5t-31.5 -11.5h-143zM463 922h197q19 0 19 -20q0 -7 -5 -12l-158 -130q-11 -10 -41 -10h-140q-16 0 -16 16q0 8 5 13l102 124q17 19 37 19z" />
    <glyph glyph-name="wacute" unicode="&#x1e83;" horiz-adv-x="877" 
d="M485 520q27 0 34 -24l65 -208l61 208q7 24 34 24h154q10 0 17 -7t7 -14t-1 -11l-146 -463q-8 -25 -33 -25h-134q-25 0 -33 25l-71 202l-72 -202q-8 -25 -33 -25h-134q-25 0 -33 25l-146 463q-1 4 -1 11t7 14t17 7h154q27 0 34 -24l61 -208l65 208q7 24 34 24h93zM487 736
h187q19 0 19 -20q0 -7 -5 -12l-158 -125q-11 -10 -41 -10h-130q-16 0 -16 16q0 8 5 13l102 119q17 19 37 19z" />
    <glyph glyph-name="Wdieresis" unicode="&#x1e84;" horiz-adv-x="878" 
d="M562 0q-31 0 -41 27l-82 205l-82 -205q-10 -27 -41 -27h-143q-19 0 -31.5 11.5t-14.5 26.5l-92 637v3q0 9 6.5 15.5t15.5 6.5h186q33 0 36 -27l34 -282l41 125q10 29 34 29h102q24 0 34 -29l41 -124l34 281q3 27 36 27h186q9 0 15.5 -6.5t6.5 -15.5v-3l-92 -637
q-2 -15 -14.5 -26.5t-31.5 -11.5h-143zM512 922h126q10 0 16.5 -6.5t6.5 -16.5v-126q0 -10 -6.5 -16.5t-16.5 -6.5h-126q-10 0 -16.5 6.5t-6.5 16.5v126q0 10 6.5 16.5t16.5 6.5zM241 922h126q10 0 16.5 -6.5t6.5 -16.5v-126q0 -10 -6.5 -16.5t-16.5 -6.5h-126
q-10 0 -16.5 6.5t-6.5 16.5v126q0 10 6.5 16.5t16.5 6.5z" />
    <glyph glyph-name="wdieresis" unicode="&#x1e85;" horiz-adv-x="877" 
d="M485 520q27 0 34 -24l65 -208l61 208q7 24 34 24h154q10 0 17 -7t7 -14t-1 -11l-146 -463q-8 -25 -33 -25h-134q-25 0 -33 25l-71 202l-72 -202q-8 -25 -33 -25h-134q-25 0 -33 25l-146 463q-1 4 -1 11t7 14t17 7h154q27 0 34 -24l61 -208l65 208q7 24 34 24h93zM261 736
h121q10 0 16.5 -6.5t6.5 -16.5v-121q0 -10 -6.5 -16.5t-16.5 -6.5h-121q-10 0 -16.5 6.5t-6.5 16.5v121q0 10 6.5 16.5t16.5 6.5zM497 736h121q10 0 16.5 -6.5t6.5 -16.5v-121q0 -10 -6.5 -16.5t-16.5 -6.5h-121q-10 0 -16.5 6.5t-6.5 16.5v121q0 10 6.5 16.5t16.5 6.5z" />
    <glyph glyph-name="Ygrave" unicode="&#x1ef2;" horiz-adv-x="724" 
d="M460 0h-196q-11 0 -19 8t-8 19v197l-225 445q-2 4 -2 11t6.5 13.5t15.5 6.5h188q30 0 42 -25l100 -201l100 201q12 25 42 25h188q9 0 15.5 -6.5t6.5 -13.5t-2 -11l-225 -445v-197q0 -11 -8 -19t-19 -8zM470 766q0 -16 -16 -16h-140q-30 0 -41 10l-158 130q-5 5 -5 12
q0 20 19 20h197q20 0 37 -19l102 -124q5 -5 5 -13z" />
    <glyph glyph-name="ygrave" unicode="&#x1ef3;" horiz-adv-x="642" 
d="M40 520h169q23 0 32 -24l82 -228l85 228q10 24 34 24h167q9 0 16 -6.5t7 -13.5t-1 -11l-282 -655q-10 -24 -35 -24h-164q-9 0 -15.5 6t-6.5 14.5t1 10.5l80 192l-193 456q-1 3 -1 7q4 24 25 24zM406 585q0 -16 -16 -16h-130q-30 0 -41 10l-158 125q-5 5 -5 12q0 20 19 20
h187q20 0 37 -19l102 -119q5 -5 5 -13z" />
    <glyph glyph-name="endash" unicode="&#x2013;" horiz-adv-x="549" 
d="M67 437h415q11 0 19 -8t8 -19v-146q0 -11 -8 -19t-19 -8h-415q-11 0 -19 8t-8 19v146q0 11 8 19t19 8z" />
    <glyph glyph-name="emdash" unicode="&#x2014;" horiz-adv-x="739" 
d="M67 437h605q11 0 19 -8t8 -19v-146q0 -11 -8 -19t-19 -8h-605q-11 0 -19 8t-8 19v146q0 11 8 19t19 8z" />
    <glyph glyph-name="quoteleft" unicode="&#x2018;" horiz-adv-x="317" 
d="M207 408h-165q-9 0 -15.5 6.5t-6.5 13t1 9.5l95 241q12 32 46 32h108q9 0 15.5 -6.5t6.5 -15.5v-2l-37 -239q-2 -15 -15.5 -27t-32.5 -12z" />
    <glyph glyph-name="quoteright" unicode="&#x2019;" horiz-adv-x="317" 
d="M110 711h165q9 0 15.5 -6.5t6.5 -13t-1 -9.5l-95 -241q-12 -32 -46 -32h-108q-9 0 -15.5 6.5t-6.5 15.5v2l37 239q2 15 15.5 27t32.5 12z" />
    <glyph glyph-name="quotesinglbase" unicode="&#x201a;" horiz-adv-x="317" 
d="M110 228h165q9 0 15.5 -6.5t6.5 -13t-1 -9.5l-95 -241q-12 -32 -46 -32h-108q-9 0 -15.5 6.5t-6.5 15.5v2l37 239q2 15 15.5 27t32.5 12z" />
    <glyph glyph-name="quotedblleft" unicode="&#x201c;" horiz-adv-x="609" 
d="M499 408h-165q-9 0 -15.5 6.5t-6.5 13t1 9.5l95 241q12 32 46 32h108q9 0 15.5 -6.5t6.5 -15.5v-2l-37 -239q-2 -15 -15.5 -27t-32.5 -12zM207 408h-165q-9 0 -15.5 6.5t-6.5 13t1 9.5l95 241q12 32 46 32h108q9 0 15.5 -6.5t6.5 -15.5v-2l-37 -239q-2 -15 -15.5 -27
t-32.5 -12z" />
    <glyph glyph-name="quotedblright" unicode="&#x201d;" horiz-adv-x="609" 
d="M110 710h165q9 0 15.5 -6.5t6.5 -13t-1 -9.5l-95 -241q-12 -32 -46 -32h-108q-9 0 -15.5 6.5t-6.5 15.5v2l37 239q2 15 15.5 27t32.5 12zM402 710h165q9 0 15.5 -6.5t6.5 -13t-1 -9.5l-95 -241q-12 -32 -46 -32h-108q-9 0 -15.5 6.5t-6.5 15.5v2l37 239q2 15 15.5 27
t32.5 12z" />
    <glyph glyph-name="quotedblbase" unicode="&#x201e;" horiz-adv-x="609" 
d="M110 228h165q9 0 15.5 -6.5t6.5 -13t-1 -9.5l-95 -241q-12 -32 -46 -32h-108q-9 0 -15.5 6.5t-6.5 15.5v2l37 239q2 15 15.5 27t32.5 12zM402 228h165q9 0 15.5 -6.5t6.5 -13t-1 -9.5l-95 -241q-12 -32 -46 -32h-108q-9 0 -15.5 6.5t-6.5 15.5v2l37 239q2 15 15.5 27
t32.5 12z" />
    <glyph glyph-name="dagger" unicode="&#x2020;" horiz-adv-x="547" 
d="M67 524h112v149q0 11 8 19t19 8h134q11 0 19 -8t8 -19v-149h113q11 0 19 -8t8 -19v-132q0 -11 -8 -19t-19 -8h-113v-311q0 -11 -8 -19t-19 -8h-134q-11 0 -19 8t-8 19v311h-112q-11 0 -19 8t-8 19v132q0 11 8 19t19 8z" />
    <glyph glyph-name="daggerdbl" unicode="&#x2021;" horiz-adv-x="547" 
d="M67 312h112v86h-112q-11 0 -19 8t-8 19v132q0 11 8 19t19 8h112v89q0 11 8 19t19 8h134q11 0 19 -8t8 -19v-89h113q11 0 19 -8t8 -19v-132q0 -11 -8 -19t-19 -8h-113v-86h113q11 0 19 -8t8 -19v-132q0 -11 -8 -19t-19 -8h-113v-99q0 -11 -8 -19t-19 -8h-134q-11 0 -19 8
t-8 19v99h-112q-11 0 -19 8t-8 19v132q0 11 8 19t19 8z" />
    <glyph glyph-name="bullet" unicode="&#x2022;" horiz-adv-x="340" 
d="M30 434q0 58 41 99t99 41t99 -41t41 -99t-41 -99t-99 -41t-99 41t-41 99z" />
    <glyph glyph-name="ellipsis" unicode="&#x2026;" horiz-adv-x="854" 
d="M67 208h154q11 0 19 -8t8 -19v-154q0 -11 -8 -19t-19 -8h-154q-11 0 -19 8t-8 19v154q0 11 8 19t19 8zM350 208h154q11 0 19 -8t8 -19v-154q0 -11 -8 -19t-19 -8h-154q-11 0 -19 8t-8 19v154q0 11 8 19t19 8zM633 208h154q11 0 19 -8t8 -19v-154q0 -11 -8 -19t-19 -8
h-154q-11 0 -19 8t-8 19v154q0 11 8 19t19 8z" />
    <glyph glyph-name="perthousand" unicode="&#x2030;" horiz-adv-x="1180" 
d="M593 222v-93q0 -30 25.5 -30t25.5 30v93q0 30 -25.5 30t-25.5 -30zM780 222v-94q0 -66 -43.5 -102t-118.5 -36t-118.5 36t-43.5 103v92q0 66 45 102.5t117 36.5t117 -36.5t45 -101.5zM177 572v-93q0 -30 25.5 -30t25.5 30v93q0 30 -25.5 30t-25.5 -30zM364 572v-94
q0 -66 -43.5 -102t-118.5 -36t-118.5 36t-43.5 103v92q0 66 45 102.5t117 36.5t117 -36.5t45 -101.5zM626 700h64q24 0 24 -20q0 -6 -4 -11l-484 -650q-14 -19 -36 -19h-64q-24 0 -24 20q0 6 4 11l484 650q14 19 36 19zM953 222v-93q0 -30 25.5 -30t25.5 30v93
q0 30 -25.5 30t-25.5 -30zM1140 222v-94q0 -66 -43.5 -102t-118.5 -36t-118.5 36t-43.5 103v92q0 66 45 102.5t117 36.5t117 -36.5t45 -101.5z" />
    <glyph glyph-name="guilsinglleft" unicode="&#x2039;" horiz-adv-x="337" 
d="M287 215v-141q0 -9 -6.5 -15.5t-15 -6.5t-14.5 5l-217 211q-14 12 -14 28v66q0 16 14 28l217 211q6 5 14.5 5t15 -6.5t6.5 -15.5v-141q0 -27 -18 -45l-69 -69l69 -69q18 -18 18 -45z" />
    <glyph glyph-name="guilsinglright" unicode="&#x203a;" horiz-adv-x="337" 
d="M50 443v141q0 9 6.5 15.5t15 6.5t14.5 -5l217 -211q14 -12 14 -28v-66q0 -16 -14 -28l-217 -211q-6 -5 -14.5 -5t-15 6.5t-6.5 15.5v141q0 27 18 45l69 69l-69 69q-18 18 -18 45z" />
    <glyph glyph-name="fraction" unicode="&#x2044;" horiz-adv-x="16" 
d="M288 700h74q24 0 24 -20q0 -6 -4 -11l-494 -650q-14 -19 -36 -19h-74q-24 0 -24 20q0 6 4 11l494 650q14 19 36 19z" />
    <glyph glyph-name="zerosuperior" unicode="&#x2070;" horiz-adv-x="424" 
d="M187 572v-93q0 -30 25.5 -30t25.5 30v93q0 30 -25.5 30t-25.5 -30zM374 572v-94q0 -66 -43.5 -102t-118.5 -36t-118.5 36t-43.5 103v92q0 66 45 102.5t117 36.5t117 -36.5t45 -101.5z" />
    <glyph glyph-name="foursuperior" unicode="&#x2074;" horiz-adv-x="465" 
d="M353 507h43q14 0 14 -13v-85q0 -13 -13 -13h-44v-33q0 -13 -14 -13h-103q-13 0 -13 13v33h-160q-13 0 -13 13v82q0 10 5 15l142 185q7 9 18 9h124q14 0 14 -14v-179zM226 502v72l-52 -72h52z" />
    <glyph glyph-name="fivesuperior" unicode="&#x2075;" horiz-adv-x="430" 
d="M188 456q10 -14 24 -14t22 8.5t8 21t-7 21.5t-18.5 9t-19.5 -5.5t-10 -5.5h-104q-10 0 -10 10v2l20 180q3 17 20 17h223q14 0 14 -14v-80q0 -14 -14 -14h-147l-4 -35q27 17 72 17t81.5 -29.5t36.5 -80t-42 -87.5t-118 -37t-118 32t-42 81q0 10 9 10h107q3 0 17 -7z" />
    <glyph glyph-name="sixsuperior" unicode="&#x2076;" horiz-adv-x="425" 
d="M337 556q38 -30 38 -85.5t-45 -93t-116 -37.5t-117.5 34.5t-46.5 87.5t48 116l86 112q7 10 19 10h111q11 0 11 -11q0 -3 -2 -7l-68 -89q44 -7 82 -37zM245 470q0 29 -32 29q-13 0 -22 -7.5t-9 -21.5t9 -22t22 -8t22.5 8t9.5 22z" />
    <glyph glyph-name="sevensuperior" unicode="&#x2077;" horiz-adv-x="375" 
d="M53 700h269q13 0 13 -14v-66q0 -13 -6 -25l-109 -234q-7 -11 -21 -11h-106q-11 0 -11 11q0 3 1 4l103 222h-133q-13 0 -13 14v85q0 14 13 14z" />
    <glyph glyph-name="eightsuperior" unicode="&#x2078;" horiz-adv-x="430" 
d="M214 710q76 0 111 -31.5t35 -76.5t-30 -68q20 -10 32.5 -32t12.5 -47q0 -48 -39.5 -81.5t-121 -33.5t-120.5 34t-39 84t43 76q-31 23 -31 67.5t35.5 76.5t111.5 32zM245 455q0 27 -31 27q-14 0 -23 -7.5t-9 -19.5t9 -19t23 -7t22.5 7t8.5 19zM243 594q0 10 -8 17t-21 7
t-20.5 -7t-7.5 -17q0 -24 28.5 -24t28.5 24z" />
    <glyph glyph-name="ninesuperior" unicode="&#x2079;" horiz-adv-x="425" 
d="M88.5 496q-38.5 30 -38.5 83.5t43 92t118.5 38.5t119.5 -34.5t44 -91.5q0 -31 -21 -66q-6 -10 -24.5 -34.5t-22.5 -30.5l-70 -93q-7 -10 -20 -10h-110q-11 0 -11 11q0 4 2 6l71 94q-42 5 -80.5 35zM180 580q0 -14 9 -22t22.5 -8t22.5 8t9 22t-9 21.5t-22 7.5t-22.5 -7.5
t-9.5 -21.5z" />
    <glyph glyph-name="parenleftsuperior" unicode="&#x207d;" horiz-adv-x="253" 
d="M150 583v-117q0 -30 18 -50.5t46 -24.5q9 0 9 -11v-78q0 -11 -11 -11q-72 0 -117 43.5t-45 120.5v139q0 77 45 120.5t117 43.5q11 0 11 -11v-78q0 -11 -9 -11q-28 -4 -46 -24.5t-18 -50.5z" />
    <glyph glyph-name="parenrightsuperior" unicode="&#x207e;" horiz-adv-x="253" 
d="M103 466v117q0 30 -18 50.5t-46 24.5q-9 0 -9 11v78q0 11 11 11q72 0 117 -43.5t45 -120.5v-139q0 -77 -45 -120.5t-117 -43.5q-11 0 -11 11v78q0 11 9 11q28 4 46 24.5t18 50.5z" />
    <glyph glyph-name="zeroinferior" unicode="&#x2080;" horiz-adv-x="424" 
d="M187 52v-93q0 -30 25.5 -30t25.5 30v93q0 30 -25.5 30t-25.5 -30zM374 52v-94q0 -66 -43.5 -102t-118.5 -36t-118.5 36t-43.5 103v92q0 66 45 102.5t117 36.5t117 -36.5t45 -101.5z" />
    <glyph glyph-name="oneinferior" unicode="&#x2081;" horiz-adv-x="326" 
d="M265 166v-323q0 -13 -13 -13h-108q-14 0 -14 13v191l-51 -39q-9 -8 -19 4l-49 64q-2 5 -2 10.5t7 9.5l120 93q5 4 11 4h105q13 0 13 -14z" />
    <glyph glyph-name="twoinferior" unicode="&#x2082;" horiz-adv-x="421" 
d="M357 -67q14 0 14 -14v-76q0 -13 -14 -13h-294q-13 0 -13 13v52q0 18 12 27q94 68 129 98t35 50.5t-18 20.5t-27 -25q-5 -12 -20 -12h-94q-11 0 -11 11q0 56 43 90.5t110.5 34.5t107.5 -29.5t40 -76t-28 -80.5t-83 -71h111z" />
    <glyph glyph-name="threeinferior" unicode="&#x2083;" horiz-adv-x="430" 
d="M375 -63q0 -52 -46 -84.5t-122 -32.5t-116.5 35t-40.5 71q0 10 10 10h100q8 0 16 -8t29 -8q31 0 31 23q0 20 -31 20h-57q-12 0 -12 13v48q0 14 10 20l49 28h-111q-14 0 -14 14v80q0 14 14 14h256q13 0 13 -14v-63q0 -14 -10 -20l-58 -40q90 -23 90 -106z" />
    <glyph glyph-name="fourinferior" unicode="&#x2084;" horiz-adv-x="440" 
d="M328 -13h43q14 0 14 -13v-85q0 -13 -13 -13h-44v-33q0 -13 -14 -13h-103q-13 0 -13 13v33h-160q-13 0 -13 13v82q0 10 5 15l142 185q7 9 18 9h124q14 0 14 -14v-179zM201 -18v72l-52 -72h52z" />
    <glyph glyph-name="fiveinferior" unicode="&#x2085;" horiz-adv-x="430" 
d="M188 -64q10 -14 24 -14t22 8.5t8 21t-7 21.5t-18.5 9t-19.5 -5.5t-10 -5.5h-104q-10 0 -10 10v2l20 180q3 17 20 17h223q14 0 14 -14v-80q0 -14 -14 -14h-147l-4 -35q27 17 72 17t81.5 -29.5t36.5 -80t-42 -87.5t-118 -37t-118 32t-42 81q0 10 9 10h107q3 0 17 -7z" />
    <glyph glyph-name="sixinferior" unicode="&#x2086;" horiz-adv-x="425" 
d="M337 36q38 -30 38 -85.5t-45 -93t-116 -37.5t-117.5 34.5t-46.5 87.5t48 116l86 112q7 10 19 10h111q11 0 11 -11q0 -3 -2 -7l-68 -89q44 -7 82 -37zM245 -50q0 29 -32 29q-13 0 -22 -7.5t-9 -21.5t9 -22t22 -8t22.5 8t9.5 22z" />
    <glyph glyph-name="seveninferior" unicode="&#x2087;" horiz-adv-x="375" 
d="M53 180h269q13 0 13 -14v-66q0 -13 -6 -25l-109 -234q-7 -11 -21 -11h-106q-11 0 -11 11q0 3 1 4l103 222h-133q-13 0 -13 14v85q0 14 13 14z" />
    <glyph glyph-name="eightinferior" unicode="&#x2088;" horiz-adv-x="430" 
d="M214 190q76 0 111 -31.5t35 -76.5t-30 -68q20 -10 32.5 -32t12.5 -47q0 -48 -39.5 -81.5t-121 -33.5t-120.5 34t-39 84t43 76q-31 23 -31 67.5t35.5 76.5t111.5 32zM245 -65q0 27 -31 27q-14 0 -23 -7.5t-9 -19.5t9 -19t23 -7t22.5 7t8.5 19zM243 74q0 10 -8 17t-21 7
t-20.5 -7t-7.5 -17q0 -24 28.5 -24t28.5 24z" />
    <glyph glyph-name="nineinferior" unicode="&#x2089;" horiz-adv-x="425" 
d="M88.5 -25q-38.5 30 -38.5 83.5t43 92t118.5 38.5t119.5 -34.5t44 -91.5q0 -31 -21 -66q-6 -10 -24.5 -34.5t-22.5 -30.5l-70 -93q-7 -10 -20 -10h-110q-11 0 -11 11q0 4 2 6l71 94q-42 5 -80.5 35zM180 59q0 -14 9 -22t22.5 -8t22.5 8t9 22t-9 21.5t-22 7.5t-22.5 -7.5
t-9.5 -21.5z" />
    <glyph glyph-name="parenleftinferior" unicode="&#x208d;" horiz-adv-x="253" 
d="M150 63v-117q0 -30 18 -50.5t46 -24.5q9 0 9 -11v-78q0 -11 -11 -11q-72 0 -117 43.5t-45 120.5v139q0 77 45 120.5t117 43.5q11 0 11 -11v-78q0 -11 -9 -11q-28 -4 -46 -24.5t-18 -50.5z" />
    <glyph glyph-name="parenrightinferior" unicode="&#x208e;" horiz-adv-x="253" 
d="M103 -54v117q0 30 -18 50.5t-46 24.5q-9 0 -9 11v78q0 11 11 11q72 0 117 -43.5t45 -120.5v-139q0 -77 -45 -120.5t-117 -43.5q-11 0 -11 11v78q0 11 9 11q28 4 46 24.5t18 50.5z" />
    <glyph glyph-name="Euro" unicode="&#x20ac;" horiz-adv-x="800" 
d="M52 436h51q0 140 91 207.5t239 67.5t245 -65t97 -181q0 -9 -6.5 -15.5t-15.5 -6.5h-204q-29 0 -41 29q-18 44 -71 44q-74 0 -74 -80h94q11 0 19 -8t8 -19v-116q0 -11 -8 -19t-19 -8h-94q0 -81 74 -81q53 0 71 44q12 29 41 29h204q9 0 15.5 -6.5t6.5 -15.5
q0 -116 -97 -181t-245 -65t-239 67.5t-91 207.5v1h-51q-11 0 -19 8t-8 19v116q0 11 8 19t19 8z" />
    <glyph glyph-name="afii61352" unicode="&#x2116;" horiz-adv-x="1280" 
d="M427 700h181q11 0 19 -8t8 -19v-646q0 -11 -8 -19t-19 -8h-158q-31 0 -41 23l-109 225v-221q0 -11 -8 -19t-19 -8h-181q-11 0 -19 8t-8 19v646q0 11 8 19t19 8h158q32 0 41 -23l109 -247v243q0 11 8 19t19 8zM685 397q0 114 76.5 175t203.5 61t203.5 -61t76.5 -175v-28
q0 -116 -73.5 -176t-206.5 -60t-206.5 60t-73.5 176v28zM1000 405q0 41 -6 54.5t-29 13.5t-29 -13.5t-6 -54.5v-44q0 -43 5.5 -55.5t29 -12.5t29.5 13.5t6 54.5v44zM1218 103q11 0 19 -8t8 -19v-49q0 -11 -8 -19t-19 -8h-506q-11 0 -19 8t-8 19v49q0 11 8 19t19 8h506z" />
    <glyph glyph-name="trademark" unicode="&#x2122;" horiz-adv-x="629" 
d="M498 700h70q11 0 11 -10v-246q0 -10 -11 -10h-78q-11 0 -11 10v94l-24 -41q-7 -9 -15 -9h-26q-8 0 -15 9l-24 41v-94q0 -10 -11 -10h-78q-11 0 -11 10v246q0 10 11 10h70q6 0 16 -10l55 -92l55 92q10 10 16 10zM21 700h212q11 0 11 -10v-71q0 -11 -11 -11h-53v-164
q0 -10 -10 -10h-86q-10 0 -10 10v164h-53q-11 0 -11 11v71q0 10 11 10z" />
    <glyph glyph-name="estimated" unicode="&#x212e;" horiz-adv-x="677" 
d="M613 223h-328v-14q0 -29 14.5 -46t40 -17t40.5 16.5t36 16.5h188q24 0 24 -26q0 -62 -74 -112.5t-214 -50.5t-222.5 73.5t-82.5 211.5v58q0 128 86.5 202.5t227 74.5t217 -80.5t76.5 -217.5v-56q0 -14 -8.5 -23.5t-20.5 -9.5zM339 460q-54 0 -54 -79v-3h108v3
q0 47 -14.5 63t-39.5 16z" />
    <glyph glyph-name="onethird" unicode="&#x2153;" horiz-adv-x="844" 
d="M265 686v-323q0 -13 -13 -13h-108q-14 0 -14 13v191l-51 -39q-9 -8 -19 4l-49 64q-2 5 -2 10.5t7 9.5l120 93q5 4 11 4h105q13 0 13 -14zM783 107q0 -52 -46 -84.5t-122 -32.5t-116.5 35t-40.5 71q0 10 10 10h100q8 0 16 -8t29 -8q31 0 31 23q0 20 -31 20h-57
q-12 0 -12 13v48q0 14 10 20l49 28h-111q-14 0 -14 14v80q0 14 14 14h256q13 0 13 -14v-63q0 -14 -10 -20l-58 -40q90 -23 90 -106zM601 700h74q24 0 24 -20q0 -6 -4 -11l-494 -650q-14 -19 -36 -19h-74q-24 0 -24 20q0 6 4 11l494 650q14 19 36 19z" />
    <glyph glyph-name="twothirds" unicode="&#x2154;" horiz-adv-x="874" 
d="M834 107q0 -52 -46 -84.5t-122 -32.5t-116.5 35t-40.5 71q0 10 10 10h100q8 0 16 -8t29 -8q31 0 31 23q0 20 -31 20h-57q-12 0 -12 13v48q0 14 10 20l49 28h-111q-14 0 -14 14v80q0 14 14 14h256q13 0 13 -14v-63q0 -14 -10 -20l-58 -40q90 -23 90 -106zM317 453
q14 0 14 -14v-76q0 -13 -14 -13h-294q-13 0 -13 13v52q0 18 12 27q94 68 129 98t35 50.5t-18 20.5t-27 -25q-5 -12 -20 -12h-94q-11 0 -11 11q0 56 43 90.5t110.5 34.5t107.5 -29.5t40 -76t-28 -80.5t-83 -71h111zM647 700h74q24 0 24 -20q0 -6 -4 -11l-494 -650
q-14 -19 -36 -19h-74q-24 0 -24 20q0 6 4 11l494 650q14 19 36 19z" />
    <glyph glyph-name="oneeighth" unicode="&#x215b;" horiz-adv-x="840" 
d="M265 686v-323q0 -13 -13 -13h-108q-14 0 -14 13v191l-51 -39q-9 -8 -19 4l-49 64q-2 5 -2 10.5t7 9.5l120 93q5 4 11 4h105q13 0 13 -14zM618 360q76 0 111 -31.5t35 -76.5t-30 -68q20 -10 32.5 -32t12.5 -47q0 -48 -39.5 -81.5t-121 -33.5t-120.5 34t-39 84t43 76
q-31 23 -31 67.5t35.5 76.5t111.5 32zM649 105q0 27 -31 27q-14 0 -23 -7.5t-9 -19.5t9 -19t23 -7t22.5 7t8.5 19zM647 244q0 10 -8 17t-21 7t-20.5 -7t-7.5 -17q0 -24 28.5 -24t28.5 24zM606 700h74q24 0 24 -20q0 -6 -4 -11l-494 -650q-14 -19 -36 -19h-74q-24 0 -24 20
q0 6 4 11l494 650q14 19 36 19z" />
    <glyph glyph-name="threeeighths" unicode="&#x215c;" horiz-adv-x="850" 
d="M335 457q0 -52 -46 -84.5t-122 -32.5t-116.5 35t-40.5 71q0 10 10 10h100q8 0 16 -8t29 -8q31 0 31 23q0 20 -31 20h-57q-12 0 -12 13v48q0 14 10 20l49 28h-111q-14 0 -14 14v80q0 14 14 14h256q13 0 13 -14v-63q0 -14 -10 -20l-58 -40q90 -23 90 -106zM629 360
q76 0 111 -31.5t35 -76.5t-30 -68q20 -10 32.5 -32t12.5 -47q0 -48 -39.5 -81.5t-121 -33.5t-120.5 34t-39 84t43 76q-31 23 -31 67.5t35.5 76.5t111.5 32zM660 105q0 27 -31 27q-14 0 -23 -7.5t-9 -19.5t9 -19t23 -7t22.5 7t8.5 19zM658 244q0 10 -8 17t-21 7t-20.5 -7
t-7.5 -17q0 -24 28.5 -24t28.5 24zM621 700h74q24 0 24 -20q0 -6 -4 -11l-494 -650q-14 -19 -36 -19h-74q-24 0 -24 20q0 6 4 11l494 650q14 19 36 19z" />
    <glyph glyph-name="fiveeighths" unicode="&#x215d;" horiz-adv-x="835" 
d="M614 360q76 0 111 -31.5t35 -76.5t-30 -68q20 -10 32.5 -32t12.5 -47q0 -48 -39.5 -81.5t-121 -33.5t-120.5 34t-39 84t43 76q-31 23 -31 67.5t35.5 76.5t111.5 32zM645 105q0 27 -31 27q-14 0 -23 -7.5t-9 -19.5t9 -19t23 -7t22.5 7t8.5 19zM643 244q0 10 -8 17t-21 7
t-20.5 -7t-7.5 -17q0 -24 28.5 -24t28.5 24zM143 456q10 -14 24 -14t22 8.5t8 21t-7 21.5t-18.5 9t-19.5 -5.5t-10 -5.5h-104q-10 0 -10 10v2l20 180q3 17 20 17h223q14 0 14 -14v-80q0 -14 -14 -14h-147l-4 -35q27 17 72 17t81.5 -29.5t36.5 -80t-42 -87.5t-118 -37
t-118 32t-42 81q0 10 9 10h107q3 0 17 -7zM613 700h74q24 0 24 -20q0 -6 -4 -11l-494 -650q-14 -19 -36 -19h-74q-24 0 -24 20q0 6 4 11l494 650q14 19 36 19z" />
    <glyph glyph-name="seveneighths" unicode="&#x215e;" horiz-adv-x="790" 
d="M569 360q76 0 111 -31.5t35 -76.5t-30 -68q20 -10 32.5 -32t12.5 -47q0 -48 -39.5 -81.5t-121 -33.5t-120.5 34t-39 84t43 76q-31 23 -31 67.5t35.5 76.5t111.5 32zM600 105q0 27 -31 27q-14 0 -23 -7.5t-9 -19.5t9 -19t23 -7t22.5 7t8.5 19zM598 244q0 10 -8 17t-21 7
t-20.5 -7t-7.5 -17q0 -24 28.5 -24t28.5 24zM23 700h269q13 0 13 -14v-66q0 -13 -6 -25l-109 -234q-7 -11 -21 -11h-106q-11 0 -11 11q0 3 1 4l103 222h-133q-13 0 -13 14v85q0 14 13 14zM557 700h74q24 0 24 -20q0 -6 -4 -11l-494 -650q-14 -19 -36 -19h-74q-24 0 -24 20
q0 6 4 11l494 650q14 19 36 19z" />
    <glyph glyph-name="partialdiff" unicode="&#x2202;" horiz-adv-x="655" 
d="M35 226v8q0 114 81 175t209 61h14q-43 100 -174 189q-13 9 -13 18.5t6.5 16t15.5 6.5h188q34 0 53 -13q200 -143 200 -399v-62q0 -115 -78 -175.5t-212 -60.5t-212 60.5t-78 175.5zM370 218v35q-1 31 -11.5 44t-34.5 13t-34 -15t-10 -53v-24q0 -40 10 -54t35 -14t35 15
t10 53z" />
    <glyph glyph-name="uni2206" unicode="&#x2206;" horiz-adv-x="785" 
d="M713 0h-641q-11 0 -19 8t-8 19v45q0 14 6 30l218 525q14 33 45 33h157q31 0 45 -33l218 -525q6 -16 6 -30v-45q0 -11 -8 -19t-19 -8zM499 174l-107 288l-106 -288h213z" />
    <glyph glyph-name="product" unicode="&#x220f;" horiz-adv-x="688" 
d="M77 700h534q11 0 19 -8t8 -19v-846q0 -11 -8 -19t-19 -8h-159q-11 0 -19 8t-8 19v641h-162v-641q0 -11 -8 -19t-19 -8h-159q-11 0 -19 7.5t-8 19.5v846q0 11 8 19t19 8z" />
    <glyph glyph-name="summation" unicode="&#x2211;" horiz-adv-x="683" 
d="M50 519v154q0 11 8 19t19 8h534q11 0 19 -8t8 -19v-178q0 -11 -8 -19t-19 -8h-217l211 -160q33 -25 33 -44v-28q0 -19 -33 -44l-211 -160h217q11 0 19 -8t8 -19v-178q0 -11 -8 -19t-19 -8h-534q-11 0 -19 8t-8 19v154q0 23 14 37q5 5 16 13l280 219l-280 219
q-30 22 -30 50z" />
    <glyph glyph-name="minus" unicode="&#x2212;" horiz-adv-x="487" 
d="M67 435h353q11 0 19 -8t8 -19v-142q0 -11 -8 -19t-19 -8h-353q-11 0 -19 8t-8 19v142q0 11 8 19t19 8z" />
    <glyph glyph-name="radical" unicode="&#x221a;" horiz-adv-x="828" 
d="M518 860h263q11 0 19 -8t8 -19v-106q0 -11 -8 -19t-19 -8h-143l-219 -675q-8 -25 -33 -25h-140q-25 0 -33 25l-162 463q-1 3 -1 10t7 14t17 7h129q24 0 33 -24l80 -232l169 573q9 24 33 24z" />
    <glyph glyph-name="infinity" unicode="&#x221e;" horiz-adv-x="906" 
d="M648 493q108 0 168 -67.5t60 -154.5t-60 -154.5t-168 -67.5q-61 0 -105.5 26.5t-89.5 74.5q-45 -48 -89.5 -74.5t-105.5 -26.5q-108 0 -168 67.5t-60 154.5t60 154.5t168 67.5q60 0 104.5 -26t90.5 -74q46 48 90.5 74t104.5 26zM645.5 205q23.5 0 45.5 19t22 47t-22 47
t-45.5 19t-47 -16.5t-36.5 -32.5l-14 -17q17 -24 45.5 -45t52 -21zM215 224q22 -19 45.5 -19t47 16.5t36.5 32.5l14 17q-17 24 -45.5 45t-52 21t-45.5 -19t-22 -47t22 -47z" />
    <glyph glyph-name="integral" unicode="&#x222b;" horiz-adv-x="481" 
d="M151 28v464q0 94 64.5 151t157.5 57h51q11 0 19 -8t8 -19v-111q0 -11 -8 -19t-19 -8h-31q-63 0 -63 -63v-464q0 -94 -64.5 -151t-157.5 -57h-51q-11 0 -19 8t-8 19v111q0 11 8 19t19 8h31q63 0 63 63z" />
    <glyph glyph-name="approxequal" unicode="&#x2248;" horiz-adv-x="550" 
d="M160 591q50 0 117.5 -21t109.5 -21t71 26q10 8 21.5 8.5t16 -8t4.5 -28.5v-108q0 -34 -30 -57t-80 -23t-117.5 21t-109.5 21t-71 -26q-10 -8 -21.5 -8.5t-16 8t-4.5 28.5v108q0 34 30 57t80 23zM160 341q50 0 117.5 -21t109.5 -21t71 26q10 8 21.5 8.5t16 -8t4.5 -28.5
v-108q0 -34 -30 -57t-80 -23t-117.5 21t-109.5 21t-71 -26q-10 -8 -21.5 -8.5t-16 8t-4.5 28.5v108q0 34 30 57t80 23z" />
    <glyph glyph-name="notequal" unicode="&#x2260;" horiz-adv-x="559" 
d="M77 553h208l16 39q13 30 44 30h94q9 0 15.5 -6.5t6.5 -13t-2 -11.5l-16 -38h39q11 0 19 -8t8 -19v-116q0 -11 -8 -19t-19 -8h-110l-34 -80h144q11 0 19 -8t8 -19v-116q0 -11 -8 -19t-19 -8h-215l-17 -40q-12 -30 -44 -30h-91q-9 0 -15.5 6.5t-6.5 13t2 11.5l16 39h-34
q-11 0 -19 8t-8 19v116q0 11 8 19t19 8h104l33 80h-137q-11 0 -19 8t-8 19v116q0 11 8 19t19 8z" />
    <glyph glyph-name="lessequal" unicode="&#x2264;" horiz-adv-x="541" 
d="M30 419v42q0 29 29 42l400 180q8 3 14 3t12 -6t6 -15v-122q0 -34 -32 -44l-175 -59l175 -60q32 -12 32 -43v-122q0 -9 -6 -15t-12 -6t-14 3l-400 180q-29 13 -29 42zM57 163h407q11 0 19 -8t8 -19v-109q0 -11 -8 -19t-19 -8h-407q-11 0 -19 8t-8 19v109q0 11 8 19t19 8z
" />
    <glyph glyph-name="greaterequal" unicode="&#x2265;" horiz-adv-x="541" 
d="M511 461v-42q0 -29 -29 -42l-400 -180q-7 -3 -13.5 -3t-12.5 6t-6 15v122q0 31 32 43l175 60l-175 59q-32 10 -32 44v122q0 9 6 15t12 6t14 -3l400 -180q29 -13 29 -42zM77 163h407q11 0 19 -8t8 -19v-109q0 -11 -8 -19t-19 -8h-407q-11 0 -19 8t-8 19v109q0 11 8 19
t19 8z" />
    <glyph glyph-name="lozenge" unicode="&#x25ca;" horiz-adv-x="658" 
d="M618 355q0 -11 -8 -22l-188 -300q-20 -33 -50 -33h-86q-30 0 -50 33l-188 300q-8 11 -8 22t8 22l188 300q20 33 50 33h86q30 0 50 -33l188 -300q8 -11 8 -22zM235 355l94 -150l94 150l-94 150z" />
    <glyph glyph-name="commaaccent" unicode="&#xf6c3;" horiz-adv-x="338" 
d="M156 -240h-107q-19 0 -19 19q0 5 5 15l65 136q9 20 42 20h130q16 0 16 -16q0 -8 -5 -15l-90 -140q-12 -19 -37 -19z" />
    <glyph glyph-name="Acute" unicode="&#xf6c9;" horiz-adv-x="460" 
d="M194 922h197q19 0 19 -20q0 -7 -5 -12l-158 -130q-11 -10 -41 -10h-140q-16 0 -16 16q0 8 5 13l102 124q17 19 37 19z" />
    <glyph glyph-name="Caron" unicode="&#xf6ca;" horiz-adv-x="548" 
d="M339 750h-130q-11 0 -16 3t-21 16l-117 124q-5 5 -5 13q0 16 16 16h71q19 0 40 -7l97 -42l97 42q21 7 40 7h71q16 0 16 -16q0 -8 -5 -13l-117 -124q-16 -13 -21 -16t-16 -3z" />
    <glyph glyph-name="Dieresis" unicode="&#xf6cb;" horiz-adv-x="543" 
d="M344 922h126q10 0 16.5 -6.5t6.5 -16.5v-126q0 -10 -6.5 -16.5t-16.5 -6.5h-126q-10 0 -16.5 6.5t-6.5 16.5v126q0 10 6.5 16.5t16.5 6.5zM73 922h126q10 0 16.5 -6.5t6.5 -16.5v-126q0 -10 -6.5 -16.5t-16.5 -6.5h-126q-10 0 -16.5 6.5t-6.5 16.5v126q0 10 6.5 16.5
t16.5 6.5z" />
    <glyph glyph-name="Grave" unicode="&#xf6ce;" horiz-adv-x="460" 
d="M410 766q0 -16 -16 -16h-140q-30 0 -41 10l-158 130q-5 5 -5 12q0 20 19 20h197q20 0 37 -19l102 -124q5 -5 5 -13z" />
    <glyph glyph-name="Hungarumlaut" unicode="&#xf6cf;" horiz-adv-x="646" 
d="M147 922h158q20 0 20 -19q0 -7 -6 -13l-122 -133q-6 -7 -40 -7h-91q-16 0 -16 16q0 5 5 15l55 122q7 17 22 19h15zM418 922h158q20 0 20 -19q0 -7 -6 -13l-122 -133q-6 -7 -40 -7h-91q-16 0 -16 16q0 5 5 15l55 122q7 17 22 19h15z" />
    <glyph glyph-name="Macron" unicode="&#xf6d0;" horiz-adv-x="523" 
d="M73 917h377q10 0 16.5 -6.5t6.5 -16.5v-116q0 -10 -6.5 -16.5t-16.5 -6.5h-377q-10 0 -16.5 6.5t-6.5 16.5v116q0 10 6.5 16.5t16.5 6.5z" />
    <glyph glyph-name="shinshindothebrew" unicode="&#xfb2a;" horiz-adv-x="882" 
d="M773 674v-36q0 -11 -8 -19t-19 -8h-35q-11 0 -19 8t-8 19v36q0 11 8 19t19 8h35q11 0 19 -8t8 -19zM248 545v-267q29 10 50 33t21 53v178q0 13 8 21t19 8h139q11 0 19 -9t8 -20v-180q0 -146 -102 -197h140q38 0 61 19.5t23 55.5v305q0 11 8 18.5t19 7.5h149q11 0 19 -8
t8 -19v-301q0 -124 -72 -188.5t-214 -64.5h-220q-142 0 -214 64.5t-72 188.5v301q0 11 8 19t19 8h149q11 0 19 -7.5t8 -18.5z" />
    <glyph glyph-name="shinsindothebrew" unicode="&#xfb2b;" horiz-adv-x="882" 
d="M184 674v-36q0 -11 -8 -19t-19 -8h-35q-11 0 -19 8t-8 19v36q0 11 8 19t19 8h35q11 0 19 -8t8 -19zM248 545v-267q29 10 50 33t21 53v178q0 13 8 21t19 8h139q11 0 19 -9t8 -20v-180q0 -146 -102 -197h140q38 0 61 19.5t23 55.5v305q0 11 8 18.5t19 7.5h149q11 0 19 -8
t8 -19v-301q0 -124 -72 -188.5t-214 -64.5h-220q-142 0 -214 64.5t-72 188.5v301q0 11 8 19t19 8h149q11 0 19 -7.5t8 -18.5z" />
    <glyph glyph-name="shindageshshindothebrew" unicode="&#xfb2c;" horiz-adv-x="882" 
d="M606 298v-26q0 -11 -8 -19t-19 -8h-25q-11 0 -19 8t-8 19v26q0 11 8 19t19 8h25q11 0 19 -8t8 -19zM773 674v-36q0 -11 -8 -19t-19 -8h-35q-11 0 -19 8t-8 19v36q0 11 8 19t19 8h35q11 0 19 -8t8 -19zM248 545v-267q29 10 50 33t21 53v178q0 13 8 21t19 8h139q11 0 19 -9
t8 -20v-180q0 -146 -102 -197h140q38 0 61 19.5t23 55.5v305q0 11 8 18.5t19 7.5h149q11 0 19 -8t8 -19v-301q0 -124 -72 -188.5t-214 -64.5h-220q-142 0 -214 64.5t-72 188.5v301q0 11 8 19t19 8h149q11 0 19 -7.5t8 -18.5z" />
    <glyph glyph-name="shindageshsindothebrew" unicode="&#xfb2d;" horiz-adv-x="882" 
d="M606 298v-26q0 -11 -8 -19t-19 -8h-25q-11 0 -19 8t-8 19v26q0 11 8 19t19 8h25q11 0 19 -8t8 -19zM184 674v-36q0 -11 -8 -19t-19 -8h-35q-11 0 -19 8t-8 19v36q0 11 8 19t19 8h35q11 0 19 -8t8 -19zM248 545v-267q29 10 50 33t21 53v178q0 13 8 21t19 8h139q11 0 19 -9
t8 -20v-180q0 -146 -102 -197h140q38 0 61 19.5t23 55.5v305q0 11 8 18.5t19 7.5h149q11 0 19 -8t8 -19v-301q0 -124 -72 -188.5t-214 -64.5h-220q-142 0 -214 64.5t-72 188.5v301q0 11 8 19t19 8h149q11 0 19 -7.5t8 -18.5z" />
    <glyph glyph-name="betdageshhebrew" unicode="&#xfb31;" horiz-adv-x="595" 
d="M199 298v-26q0 -11 -8 -19t-19 -8h-25q-11 0 -19 8t-8 19v26q0 11 8 19t19 8h25q11 0 19 -8t8 -19zM67 571h142q152 0 229 -57t77 -196v-143h33q11 0 19 -8t8 -19v-121q0 -11 -8 -19t-19 -8h-491q-11 0 -19 8t-8 19v121q0 11 8 19t19 8h225v146q0 75 -74 75h-141
q-11 0 -19 8t-8 19v121q0 11 8 19t19 8z" />
    <glyph glyph-name="gimeldageshhebrew" unicode="&#xfb32;" horiz-adv-x="618" 
d="M199 334v-26q0 -11 -8 -19t-19 -8h-25q-11 0 -19 8t-8 19v26q0 11 8 19t19 8h25q11 0 19 -8t8 -19zM602 27q1 -3 1 -8t-8 -12t-20 -7h-179q-18 0 -27 26l-36 79q-26 -4 -43 -21.5t-17 -45.5v-9q0 -13 -8 -21t-19 -8h-179q-11 0 -19 9t-8 20v5q0 92 65.5 161t162.5 83v44
q0 39 -19 61.5t-55 22.5h-51q-11 0 -19 8t-8 19v121q0 11 8 19t19 8h52q150 0 228.5 -61t78.5 -201v-67z" />
    <glyph glyph-name="daletdageshhebrew" unicode="&#xfb33;" horiz-adv-x="552" 
d="M149 298v-26q0 -11 -8 -19t-19 -8h-25q-11 0 -19 8t-8 19v26q0 11 8 19t19 8h25q11 0 19 -8t8 -19zM495 396h-53v-369q0 -11 -8 -19t-19 -8h-177q-11 0 -19 8t-8 19v369h-174q-11 0 -19 8t-8 19v121q0 11 8 19t19 8h458q11 0 19 -8t8 -19v-121q0 -11 -8 -19t-19 -8z" />
    <glyph glyph-name="hedageshhebrew" unicode="&#xfb34;" horiz-adv-x="675" 
d="M379 298v-26q0 -11 -8 -19t-19 -8h-25q-11 0 -19 8t-8 19v26q0 11 8 19t19 8h25q11 0 19 -8t8 -19zM273 27q0 -11 -8 -19t-19 -8h-169q-11 0 -19 8t-8 19v302q0 11 8 19t19 8h169q11 0 19 -8t8 -19v-302zM77 571h257q147 0 221.5 -59.5t74.5 -193.5v-291q0 -11 -8 -19
t-19 -8h-169q-11 0 -19 7.5t-8 18.5v295q0 75 -74 75h-256q-11 0 -19 8t-8 19v121q0 11 8 19t19 8z" />
    <glyph glyph-name="vavdageshhebrew" unicode="&#xfb35;" horiz-adv-x="432" 
d="M109 298v-26q0 -11 -8 -19t-19 -8h-25q-11 0 -19 8t-8 19v26q0 11 8 19t19 8h25q11 0 19 -8t8 -19zM377 544v-517q0 -11 -8 -19t-19 -8h-179q-11 0 -19 8t-8 19v517q0 11 8 19t19 8h179q11 0 19 -8t8 -19z" />
    <glyph glyph-name="zayindageshhebrew" unicode="&#xfb36;" horiz-adv-x="500" 
d="M127 298v-26q0 -11 -8 -19t-19 -8h-25q-11 0 -19 8t-8 19v26q0 11 8 19t19 8h25q11 0 19 -8t8 -19zM162 27v271q0 80 18 98h-143q-11 0 -19 8t-8 19v121q0 11 8 19t19 8h406q11 0 19 -8t8 -19v-121q0 -10 -7.5 -18.5t-19.5 -8.5h-2q-31 -2 -39 -21.5t-8 -73.5v-271
q0 -13 -8.5 -21.5t-20.5 -8.5h-178q-11 0 -18 8t-7 19z" />
    <glyph glyph-name="tetdageshhebrew" unicode="&#xfb38;" horiz-adv-x="672" 
d="M381 298v-26q0 -11 -8 -19t-19 -8h-25q-11 0 -19 8t-8 19v26q0 11 8 19t19 8h25q11 0 19 -8t8 -19zM339 581h3q141 0 218 -68t77 -185v-82q0 -118 -77.5 -187t-220 -69t-218.5 69t-76 191v294q0 11 8 19t19 8h158q11 0 19 -8t8 -19v-297q0 -72 84 -72t84 71v85
q0 36 -23 55.5t-61 19.5h-2q-11 0 -19 8t-8 19v121q0 11 8 19t19 8z" />
    <glyph glyph-name="yoddageshhebrew" unicode="&#xfb39;" horiz-adv-x="417" 
d="M109 298v-26q0 -11 -8 -19t-19 -8h-25q-11 0 -19 8t-8 19v26q0 11 8 19t19 8h25q11 0 19 -8t8 -19zM377 544v-277q0 -11 -8 -19t-19 -8h-179q-11 0 -19 8t-8 19v277q0 11 8 19t19 8h179q11 0 19 -8t8 -19z" />
    <glyph glyph-name="finalkafdageshhebrew" unicode="&#xfb3a;" horiz-adv-x="542" 
d="M146 298v-26q0 -11 -8 -19t-19 -8h-25q-11 0 -19 8t-8 19v26q0 11 8 19t19 8h25q11 0 19 -8t8 -19zM485 396h-53v-493q0 -11 -8 -19t-19 -8h-167q-11 0 -19 8t-8 19v493h-174q-11 0 -19 8t-8 19v121q0 11 8 19t19 8h448q11 0 19 -8t8 -19v-121q0 -11 -8 -19t-19 -8z" />
    <glyph glyph-name="kafdageshhebrew" unicode="&#xfb3b;" horiz-adv-x="526" 
d="M189 298v-26q0 -11 -8 -19t-19 -8h-25q-11 0 -19 8t-8 19v26q0 11 8 19t19 8h25q11 0 19 -8t8 -19zM491 308v-45q0 -120 -75.5 -191.5t-220.5 -71.5h-148q-11 0 -19 8t-8 19v131q0 11 8 19t19 8h147q38 0 61 19.5t23 55.5v51q0 36 -23 55.5t-61 19.5h-147q-11 0 -19 8
t-8 19v131q0 11 8 19t19 8h148q145 0 220.5 -71.5t75.5 -191.5z" />
    </font>
</defs>
</svg>
